elamicon.sfdir
StartChar: uniE002
Encoding: 57346 57346 9
Width: 845
VWidth: -205
Flags: HW
HStem: -205 43G<205 317 528 641>
VStem: 205 113<-205 1433> 528 113<-205 475 753 1433>
LayerCount: 3
Fore
SplineSet
528 1433 m 1
 641 1433 l 1
 641 753 l 1
 528 753 l 1
 528 1433 l 1
641 -205 m 1
 528 -205 l 1
 528 475 l 1
 641 475 l 1
 641 -205 l 1
317 -205 m 1
 205 -205 l 1
 205 1433 l 1
 317 1433 l 1
 317 -205 l 1
EndSplineSet
EndChar
StartChar: uniE004
Encoding: 57348 57348 230
Width: 844
VWidth: -205
Flags: HW
LayerCount: 3
Back
SplineSet
260 1106 m 25
 260 97 l 1049
584 -205 m 17
 584 475 l 1033
584 1433 m 17
 584 753 l 1033
EndSplineSet
Fore
SplineSet
529 1433 m 1
 639 1433 l 1
 639 753 l 1
 529 753 l 1
 529 1433 l 1
639 -205 m 1
 529 -205 l 1
 529 475 l 1
 639 475 l 1
 639 -205 l 1
205 1106 m 1
 315 1106 l 1
 315 97 l 1
 205 97 l 1
 205 1106 l 1
EndSplineSet
EndChar
StartChar: uniE008
Encoding: 57352 57352 319
Width: 663
VWidth: -205
Flags: HW
LayerCount: 3
Back
SplineSet
260 0 m 4
 260 42 292 76 331 76 c 4
 370 76 401 42 401 0 c 4
 401 -42 370 -76 331 -76 c 4
 292 -76 260 -42 260 0 c 4
260 1236 m 4
 260 1278 292 1312 331 1312 c 4
 370 1312 401 1278 401 1236 c 4
 401 1194 370 1161 331 1161 c 4
 292 1161 260 1194 260 1236 c 4
330 0 m 29
 332 1236 l 1053
261 615 m 4
 261 657 293 690 332 690 c 4
 371 690 402 657 402 615 c 4
 402 573 371 539 332 539 c 4
 293 539 261 573 261 615 c 4
EndSplineSet
Fore
SplineSet
205 1236 m 0
 205 1299 254 1362 331 1362 c 0
 409 1362 456 1298 456 1236 c 0
 456 1191 431 1145 387 1124 c 1
 386 728 l 1
 431 707 457 661 457 615 c 0
 457 569 431 522 386 501 c 1
 385 114 l 1
 430 93 456 46 456 0 c 0
 456 -62 409 -126 331 -126 c 0
 254 -126 205 -63 205 0 c 0
 205 46 231 91 275 113 c 1
 275 242 276 373 276 502 c 1
 232 524 206 569 206 615 c 0
 206 661 232 706 276 727 c 1
 277 1123 l 1
 232 1144 205 1189 205 1236 c 0
EndSplineSet
EndChar
StartChar: uniE009
Encoding: 57353 57353 342
Width: 663
VWidth: -205
Flags: HW
LayerCount: 3
Back
SplineSet
260.096 0 m 4
 260.096 41.8281 291.75 75.7764 330.752 75.7764 c 4
 369.754 75.7764 401.408 41.8281 401.408 0 c 4
 401.408 -41.8281 369.754 -75.7764 330.752 -75.7764 c 4
 291.75 -75.7764 260.096 -41.8281 260.096 0 c 4
260.048 1236.4 m 4
 260.048 1278.23 291.702 1312.18 330.704 1312.18 c 4
 369.706 1312.18 401.36 1278.23 401.36 1236.4 c 4
 401.36 1194.57 369.706 1160.62 330.704 1160.62 c 4
 291.702 1160.62 260.048 1194.57 260.048 1236.4 c 4
329.729 0 m 29
 331.729 1236.4 l 1053
261 926 m 4
 261 968 293 1001 332 1001 c 4
 371 1001 402 968 402 926 c 4
 402 884 371 850 332 850 c 4
 293 850 261 884 261 926 c 4
EndSplineSet
Fore
SplineSet
205 1236 m 0
 205 1298 254 1362 331 1362 c 0
 408 1362 456 1298 456 1236 c 0
 456 1190 431 1145 387 1123 c 1
 386 1039 l 1
 430 1018 457 972 457 926 c 0
 457 880 431 833 386 812 c 1
 385 114 l 1
 430 93 456 46 456 0 c 0
 456 -62 408 -126 331 -126 c 0
 254 -126 205 -62 205 0 c 0
 205 46 231 91 275 113 c 1
 276 813 l 1
 232 835 206 880 206 926 c 0
 206 972 232 1018 276 1039 c 1
 277 1122 l 1
 232 1143 205 1190 205 1236 c 0
EndSplineSet
EndChar
StartChar: uniE00A
Encoding: 57354 57354 320
Width: 663
VWidth: -205
Flags: HW
LayerCount: 3
Back
SplineSet
260.096 0 m 0
 260.096 41.8281 291.75 75.7764 330.752 75.7764 c 0
 369.754 75.7764 401.408 41.8281 401.408 0 c 0
 401.408 -41.8281 369.754 -75.7764 330.752 -75.7764 c 0
 291.75 -75.7764 260.096 -41.8281 260.096 0 c 0
260.048 1236.4 m 0
 260.048 1278.23 291.702 1312.18 330.704 1312.18 c 0
 369.706 1312.18 401.36 1278.23 401.36 1236.4 c 0
 401.36 1194.57 369.706 1160.62 330.704 1160.62 c 0
 291.702 1160.62 260.048 1194.57 260.048 1236.4 c 0
329.729 0 m 25
 331.729 1236.4 l 1049
EndSplineSet
Fore
SplineSet
205 1236 m 0
 205 1298 254 1362 331 1362 c 0
 408 1362 456 1298 456 1236 c 0
 456 1190 431 1145 387 1123 c 1
 385 114 l 1
 430 93 456 46 456 0 c 0
 456 -62 408 -126 331 -126 c 0
 254 -126 205 -62 205 0 c 0
 205 46 231 91 275 113 c 1
 276 449 276 786 277 1122 c 1
 232 1143 205 1190 205 1236 c 0
EndSplineSet
EndChar
StartChar: uniE018
Encoding: 57368 57368 396
Width: 1149
VWidth: -205
Flags: HMW
LayerCount: 3
Back
SplineSet
889 1433.4 m 29
 889 -205 l 1053
582 1432.4 m 29
 582 -206 l 1053
260 1433.4 m 29
 260 -205 l 1053
513 615 m 4
 513 657 544 690 583 690 c 4
 622 690 654 657 654 615 c 4
 654 573 622 539 583 539 c 4
 544 539 513 573 513 615 c 4
EndSplineSet
Fore
SplineSet
205 1433 m 1
 315 1433 l 1
 315 -205 l 1
 205 -205 l 1
 205 1433 l 1
527 1432 m 1
 637 1432 l 1
 637 728 l 1
 682 707 709 662 709 615 c 0
 709 569 682 522 637 501 c 1
 637 -206 l 1
 527 -206 l 1
 527 502 l 1
 483 524 458 570 458 615 c 0
 458 660 484 706 527 727 c 1
 527 1432 l 1
834 1433 m 1
 944 1433 l 1
 944 -205 l 1
 834 -205 l 1
 834 1433 l 1
EndSplineSet
EndChar
StartChar: uniE01F
Encoding: 57375 57375 356
Width: 1435
VWidth: -205
Flags: HW
LayerCount: 3
Back
SplineSet
1176 1369 m 29
 770 830 l 29
 1176 261 l 29
 766 -269 l 1053
670 1369 m 29
 264 830 l 29
 670 261 l 29
 260 -269 l 1053
EndSplineSet
Fore
SplineSet
1176 1369 m 0
 1191 1360 1206 1350 1221 1341 c 1
 836 829 l 1
 1222 288 l 2
 1228 280 1231 270 1231 261 c 0
 1231 251 1227 240 1221 232 c 2
 811 -298 l 1
 721 -240 l 1
 1110 262 l 1
 724 803 l 2
 719 811 715 820 715 830 c 0
 715 840 719 850 725 858 c 2
 1131 1397 l 1
 1146 1388 1161 1378 1176 1369 c 0
625 1397 m 1
 715 1341 l 1
 330 829 l 1
 716 288 l 2
 722 280 725 270 725 261 c 0
 725 251 721 240 715 232 c 2
 305 -298 l 1
 215 -240 l 1
 604 262 l 1
 218 803 l 2
 213 811 209 820 209 830 c 0
 209 840 213 850 219 858 c 2
 625 1397 l 1
EndSplineSet
EndChar
StartChar: uniE020
Encoding: 57376 57376 2
Width: 1432
VWidth: -205
Flags: HW
HStem: -4 176<652 819> 530 176<652 819> 1046 176<660 827>
VStem: 639 193<9 158 544 693 1065 1204>
LayerCount: 3
Back
SplineSet
1175.55 -205 m 29
 770.048 333.624 l 29
 1175.55 902.97 l 29
 765.952 1433.4 l 1053
669.696 -205 m 29
 264.192 333.624 l 29
 669.696 902.97 l 29
 260.096 1433.4 l 1053
698.368 83.7676 m 4
 698.368 104.117 716.718 120.632 739.328 120.632 c 4
 761.938 120.632 780.288 104.117 780.288 83.7676 c 4
 780.288 63.4189 761.938 46.9043 739.328 46.9043 c 4
 716.718 46.9043 698.368 63.4189 698.368 83.7676 c 4
698.368 618.296 m 4
 698.368 638.645 716.718 655.16 739.328 655.16 c 4
 761.938 655.16 780.288 638.645 780.288 618.296 c 4
 780.288 597.947 761.938 581.432 739.328 581.432 c 4
 716.718 581.432 698.368 597.947 698.368 618.296 c 4
706.561 1134.39 m 4
 706.561 1154.74 724.91 1171.26 747.52 1171.26 c 4
 770.13 1171.26 788.48 1154.74 788.48 1134.39 c 4
 788.48 1114.04 770.13 1097.53 747.52 1097.53 c 4
 724.91 1097.53 706.561 1114.04 706.561 1134.39 c 4
EndSplineSet
Fore
SplineSet
1219 -176 m 1
 1124 -234 l 1
 719 305 l 0
 707 323 709 346 719 362 c 0
 1104 901 l 1
 715 1405 l 1
 809 1462 l 1
 1219 932 l 0
 1225 924 1227 913 1227 903 c 0
 1227 893 1225 882 1219 874 c 0
 834 334 l 1
 1219 -176 l 1
713 -176 m 1
 619 -234 l 1
 213 305 l 0
 207 313 205 324 205 334 c 0
 205 344 207 354 213 362 c 0
 598 901 l 1
 209 1405 l 1
 303 1462 l 1
 713 932 l 0
 725 916 725 892 713 874 c 0
 328 334 l 1
 713 -176 l 1
639 84 m 0
 639 133 682 172 735 172 c 0
 788 172 832 133 832 84 c 0
 832 35 788 -4 735 -4 c 0
 682 -4 639 35 639 84 c 0
639 618 m 0
 639 667 682 706 735 706 c 0
 788 706 832 667 832 618 c 0
 832 569 788 530 735 530 c 0
 682 530 639 569 639 618 c 0
647 1134 m 0
 647 1183 691 1222 744 1222 c 0
 797 1222 840 1183 840 1134 c 0
 840 1085 797 1046 744 1046 c 0
 691 1046 647 1085 647 1134 c 0
EndSplineSet
EndChar
StartChar: uniE022
Encoding: 57378 57378 115
Width: 1294
VWidth: -205
Flags: HW
HStem: 74 217<938 1063> 344 217<228 352> 626 217<945 1066> 950 217<232 350>
VStem: 205 238<416 487 1018 1087> 852 233<154 214 699 773>
LayerCount: 3
Back
SplineSet
585.729 735.032 m 0
 585.729 766.686 613.253 792.376 647.168 792.376 c 0
 681.083 792.376 708.608 766.686 708.608 735.032 c 0
 708.608 703.378 681.083 677.688 647.168 677.688 c 0
 613.253 677.688 585.729 703.378 585.729 735.032 c 0
583.68 182.072 m 0
 583.68 213.726 611.205 239.416 645.12 239.416 c 0
 679.035 239.416 706.561 213.726 706.561 182.072 c 0
 706.561 150.418 679.035 124.729 645.12 124.729 c 0
 611.205 124.729 583.68 150.418 583.68 182.072 c 0
-61.4404 452.408 m 0
 -61.4404 484.062 -33.9141 509.752 0 509.752 c 0
 33.9141 509.752 61.4404 484.062 61.4404 452.408 c 0
 61.4404 420.754 33.9141 395.064 0 395.064 c 0
 -33.9141 395.064 -61.4404 420.754 -61.4404 452.408 c 0
-59.3916 1058.62 m 0
 -59.3916 1090.27 -31.8662 1115.96 2.04785 1115.96 c 0
 35.9619 1115.96 63.4883 1090.27 63.4883 1058.62 c 0
 63.4883 1026.96 35.9619 1001.27 2.04785 1001.27 c 0
 -31.8662 1001.27 -59.3916 1026.96 -59.3916 1058.62 c 0
446.464 -0.200195 m 25
 643.072 182.072 l 25
 374.784 454.456 l 25
 645.12 732.984 l 25
 200.704 1234.74 l 25
 2.04785 1058.62 l 25
 290.816 739.128 l 25
 0 452.408 l 25
 446.464 -0.200195 l 25
EndSplineSet
Fore
SplineSet
811 -37 m 2
 803 -45 786 -51 770 -51 c 0
 756 -51 741 -47 729 -35 c 2
 352 348 l 1
 344 346 334 344 324 344 c 0
 258 344 205 393 205 452 c 0
 205 511 258 561 324 561 c 0
 334 561 344 559 354 557 c 1
 541 741 l 1
 350 952 l 1
 342 950 334 950 326 950 c 0
 260 950 209 1000 209 1059 c 0
 209 1118 260 1167 326 1167 c 0
 338 1167 350 1165 362 1161 c 1
 485 1272 l 2
 495 1280 510 1286 524 1286 c 0
 540 1286 555 1280 567 1268 c 2
 944 842 l 1
 952 844 963 844 971 844 c 0
 1037 844 1090 794 1090 735 c 0
 1090 676 1037 626 971 626 c 0
 963 626 952 627 944 629 c 1
 774 454 l 1
 938 287 l 1
 948 289 959 291 969 291 c 0
 1035 291 1085 241 1085 182 c 0
 1085 123 1035 74 969 74 c 0
 957 74 946 76 936 78 c 1
 811 -37 l 2
434 1018 m 1
 657 772 l 2
 665 762 670 751 670 739 c 0
 670 727 665 714 655 704 c 2
 436 487 l 1
 440 477 442 464 442 452 c 0
 442 440 440 428 436 416 c 1
 772 76 l 1
 856 153 l 1
 854 161 852 172 852 182 c 0
 852 194 854 205 858 215 c 1
 657 420 l 2
 647 430 643 445 643 457 c 0
 643 469 647 481 655 489 c 2
 858 698 l 1
 854 710 852 723 852 735 c 0
 852 749 854 762 860 774 c 1
 520 1159 l 1
 438 1087 l 1
 440 1079 442 1069 442 1059 c 0
 442 1045 440 1030 434 1018 c 1
EndSplineSet
EndChar
StartChar: uniE026
Encoding: 57382 57382 189
Width: 2003
VWidth: -205
Flags: HW
LayerCount: 3
Back
SplineSet
458.752 722.744 m 29
 1743 723 l 29
 1742.27 1027.9 l 29
 260.096 1027.9 l 5
 927.744 -0.200195 l 5
 1414 729 l 1029
EndSplineSet
Fore
SplineSet
1441 673 m 1
 975 -26 l 2
 972 -30 964 -39 956 -43 c 0
 947 -48 938 -50 928 -50 c 0
 909 -50 890 -41 880 -26 c 2
 213 1002 l 2
 209 1008 205 1019 205 1028 c 0
 205 1055 230 1078 260 1078 c 2
 1742 1078 l 2
 1769 1078 1797 1056 1797 1028 c 2
 1798 723 l 2
 1798 701 1776 673 1743 673 c 2
 1441 673 l 1
555 673 m 1
 928 97 l 1
 1312 673 l 1
 555 673 l 1
490 773 m 1
 1688 773 l 1
 1687 978 l 1
 356 978 l 1
 490 773 l 1
EndSplineSet
EndChar
StartChar: uniE028
Encoding: 57384 57384 3
Width: 1667
VWidth: -205
Flags: HMW
LayerCount: 3
Back
SplineSet
834.96875 0 m 1053
838.866210938 997 m 29,5,-1
 259.999023438 1427.74023438 l 5,4,-1
 266.03125 993.540039062 l 4,3,-1
 406.439453125 677.666992188 499.674804688 376.5234375 834.96875 -0.2001953125 c 5,2,-1
 1137.65136719 330.36328125 1239.51367188 660.926757812 1406.703125 991.490234375 c 5,7,-1
 266.03125 993.540039062 l 1053
EndSplineSet
Fore
SplineSet
835.391601562 0 m 1025
865.0234375 1042.46484375 m 1
 1407.234375 1041.49023438 l 2
 1412.36425781 1041.48144531 1420.14355469 1040.41308594 1426.11035156 1038.41699219 c 0
 1455.78222656 1028.49707031 1470.30371094 996.715820312 1457.09667969 970.603515625 c 0
 1292.57617188 645.31640625 1188.27246094 307.030273438 877.663085938 -32.189453125 c 0
 861.986328125 -49.3095703125 817.744140625 -59.8623046875 792.634765625 -31.6513671875 c 0
 451.221679688 351.948242188 354.208984375 662.668945312 215.459960938 974.807617188 c 0
 213.26953125 979.734375 211.543945312 986.776367188 211.458007812 992.909179688 c 2
 205.42578125 1427.109375 l 2
 205.317382812 1434.93945312 208.651367188 1447.63476562 215.259765625 1456.27734375 c 0
 233.302734375 1479.87695312 270.793945312 1484.63671875 295.258789062 1466.43164062 c 2
 838.52734375 1062.18066406 l 1
 865.0234375 1042.46484375 l 1
690.935546875 1042.77734375 m 1
 316.908203125 1321.09472656 l 1
 320.765625 1043.44335938 l 1
 690.935546875 1042.77734375 l 1
347.518554688 943.39453125 m 1
 467.638671875 663.958984375 563.879882812 400.310546875 835.794921875 79.9501953125 c 1
 1078.390625 362.991210938 1181.05078125 648.560546875 1322.26953125 941.642578125 c 1
 778.647460938 942.620117188 l 1
 347.518554688 943.39453125 l 1
EndSplineSet
EndChar
StartChar: uniE029
Encoding: 57385 57385 25
Width: 1712
VWidth: -205
Flags: HW
LayerCount: 3
Back
SplineSet
854.470703125 0 m 1053
850.41796875 997 m 29
 1452.43945312 1427.74023438 l 5
 1446.16601562 993.540039062 l 4
 1300.140625 677.666992188 1203.17675781 376.5234375 854.470703125 -0.2001953125 c 5
 539.680664062 330.36328125 433.744140625 660.926757812 259.8671875 991.490234375 c 5
 1446.16601562 993.540039062 l 1053
EndSplineSet
Fore
SplineSet
854.033203125 0 m 1025
1002.88769531 1042.77539062 m 1
 1391.4453125 1043.44628906 l 1
 1395.49414062 1323.68066406 l 1
 1002.88769531 1042.77539062 l 1
1363.46679688 943.3984375 m 1
 913.69921875 942.62109375 l 1
 345.672851562 941.639648438 l 1
 493.21875 647.045898438 598.7578125 363.150390625 853.625 78.009765625 c 1
 1137.77929688 398.946289062 1238.32910156 663.4765625 1363.46679688 943.3984375 c 1
824.59765625 1042.46679688 m 1
 853.689453125 1063.28222656 l 1
 1417.98632812 1467.03125 l 2
 1442.83007812 1484.80664062 1480.21386719 1479.39550781 1497.75683594 1455.48632812 c 0
 1503.99023438 1446.99023438 1507.11132812 1434.9921875 1506.99707031 1427.08398438 c 2
 1500.72363281 992.883789062 l 2
 1500.63183594 986.521484375 1498.80664062 979.303710938 1496.43261719 974.168945312 c 0
 1352.171875 662.111328125 1251.13671875 351.15234375 896.116210938 -32.3935546875 c 0
 872.244140625 -58.18359375 829.994140625 -51.349609375 812.450195312 -32.9267578125 c 0
 489.485351562 306.22265625 380.849609375 644.75390625 209.810546875 969.920898438 c 0
 196.171875 995.849609375 210.165039062 1027.82617188 239.668945312 1038.15234375 c 0
 245.916015625 1040.33886719 255.0546875 1041.48339844 259.325195312 1041.49023438 c 2
 824.59765625 1042.46679688 l 1
EndSplineSet
EndChar
StartChar: uniE02A
Encoding: 57386 57386 142
Width: 1862
VWidth: -205
Flags: HW
HStem: 657 102<574.896 1283.9> 977 102<320.896 1539.9>
LayerCount: 3
Back
SplineSet
1382.4 708.408 m 29
 473.088 708.408 l 1053
926.133 -0.200195 m 29
 475.136 708.408 l 29
 327.68 417.592 l 13
 257.921 1027.9 l 29
 1597.57 1027.9 l 13
 1560.58 429.88 l 21
 1380.35 708.408 l 29
 926.133 -0.200195 l 29
927.308 -0.200195 m 1053
  Spiro
    927.308 -0.2 {
    617.472 559.928 v
    1238.02 559.928 v
    0 0 z
  EndSpiro
EndSplineSet
Fore
SplineSet
877.896 -27 m 2
 482.896 598 l 1
 380.896 397 l 2
 372.896 379 350.896 366 327.896 366 c 0
 319.896 366 312.896 366 304.896 370 c 0
 286.896 378 275.896 399 273.896 411 c 2
 204.896 1022 l 2
 200.896 1055 230.896 1079 259.896 1079 c 2
 1598.9 1079 l 2
 1631.9 1079 1658.9 1053 1656.9 1026 c 2
 1617.9 428 l 2
 1615.9 401 1590.9 379 1561.9 379 c 0
 1559.9 379 1559.9 379 1557.9 379 c 0
 1537.9 379 1520.9 391 1512.9 403 c 2
 1381.9 608 l 1
 976.896 -27 l 2
 966.896 -43 945.896 -51 927.896 -51 c 0
 917.896 -51 906.896 -49 898.896 -45 c 0
 890.896 -41 881.896 -33 877.896 -27 c 2
474.896 760 m 1
 1383.9 760 l 1
 1401.9 760 1420.9 751 1430.9 735 c 2
 1516.9 602 l 1
 1539.9 977 l 1
 320.896 977 l 1
 363.896 608 l 1
 425.896 729 l 2
 429.896 735 437.896 747 447.896 753 c 0
 455.896 757 466.896 760 474.896 760 c 1
1283.9 657 m 1
 574.896 657 l 1
 927.896 102 l 1
 1283.9 657 l 1
EndSplineSet
EndChar
StartChar: uniE02E
Encoding: 57390 57390 161
Width: 1864
VWidth: -205
Flags: HW
HStem: 672 102<461 1399> 977 102<360 1020>
LayerCount: 3
Back
SplineSet
1593.34 1027.9 m 29
 1353.73 1310.52 l 29
 1052.67 1031.99 l 1053
452.608 722.744 m 29
 1390.59 722.744 l 1053
921.6 -0.200195 m 5
 253.952 1027.9 l 13
 1593.34 1027.9 l 5
 921.6 -0.200195 l 5
EndSplineSet
Fore
SplineSet
1646 1059 m 1
 1556 997 l 1
 1356 1233 l 1
 1102 995 l 1
 1020 1069 l 1
 1321 1347 l 0
 1329 1355 1346 1360 1362 1360 c 0
 1378 1360 1395 1355 1407 1341 c 0
 1646 1059 l 1
461 672 m 1
 461 774 l 1
 1399 774 l 1
 1399 672 l 1
 461 672 l 1
930 100 m 1
 1503 977 l 1
 360 977 l 1
 930 100 l 1
880 -27 m 2
 213 1001 l 0
 207 1009 205 1020 205 1028 c 0
 205 1046 215 1063 233 1073 c 0
 241 1077 254 1079 262 1079 c 0
 1601 1079 l 0
 1632 1079 1659 1057 1659 1028 c 0
 1659 1018 1654 1007 1650 1001 c 0
 979 -27 l 0
 969 -43 950 -51 932 -51 c 0
 922 -51 911 -47 901 -43 c 0
 893 -39 882 -31 880 -27 c 2
EndSplineSet
EndChar
StartChar: uniE02F
Encoding: 57391 57391 163
Width: 2236
VWidth: -205
Flags: HW
HStem: 672 102<557 1300> 977 102<358 1501 1632 1794>
LayerCount: 3
Back
SplineSet
1599.49 1027.9 m 29
 1974.27 1027.9 l 29
 1347.58 630.584 l 1053
458.752 722.744 m 29
 1396.74 722.744 l 1053
927.744 -0.200195 m 5
 260.096 1027.9 l 13
 1599.49 1027.9 l 5
 927.744 -0.200195 l 5
EndSplineSet
Fore
SplineSet
879 -27 m 2
 211 1001 l 2
 205 1009 203 1020 203 1028 c 0
 203 1046 213 1063 231 1073 c 0
 239 1077 252 1079 260 1079 c 2
 1599 1079 l 1
 1974 1079 l 2
 2005 1079 2032 1057 2032 1028 c 0
 2032 1010 2017 991 2007 985 c 2
 1380 588 l 1
 1378 590 l 1
 977 -27 l 2
 967 -43 948 -51 930 -51 c 0
 920 -51 909 -47 899 -43 c 0
 891 -39 881 -31 879 -27 c 2
1300 672 m 1
 557 672 l 1
 928 100 l 1
 1300 672 l 1
1368 774 m 1
 1501 977 l 1
 358 977 l 1
 489 774 l 1
 1368 774 l 1
1632 977 m 1
 1516 801 l 1
 1794 977 l 1
 1632 977 l 1
EndSplineSet
EndChar
StartChar: uniE032
Encoding: 57394 57394 359
Width: 1728
VWidth: -205
Flags: HW
LayerCount: 3
Back
SplineSet
464 1029 m 25
 260 1433 l 25
 772 1032 l 1049
1319 724 m 25
 616 724 l 1049
967 -0 m 1
 1468 1029 l 9
 464 1029 l 1
 967 -0 l 1
EndSplineSet
Fore
SplineSet
1016.65 -20 m 2
 1011.65 -31 1000.65 -41 988.651 -46 c 0
 961.651 -57 928.651 -45 916.651 -20 c 2
 413.651 1008 l 2
 413.651 1008 l 2
 209.651 1412 l 2
 197.651 1437 209.651 1467 236.651 1478 c 0
 256.651 1486 281.651 1482 295.651 1471 c 2
 796.651 1079 l 1
 1467.65 1079 l 2
 1471.65 1079 1482.65 1078 1489.65 1075 c 0
 1516.65 1064 1529.65 1034 1517.65 1009 c 2
 1016.65 -20 l 2
1283.65 774 m 1
 1383.65 979 l 1
 548.651 979 l 1
 648.651 774 l 1
 1283.65 774 l 1
1234.65 674 m 1
 697.651 674 l 1
 966.651 123 l 1
 1234.65 674 l 1
498.651 1079 m 1
 626.651 1079 l 1
 414.651 1245 l 1
 498.651 1079 l 1
EndSplineSet
EndChar
StartChar: uniE034
Encoding: 57396 57396 373
Width: 1752
VWidth: -205
Flags: HW
LayerCount: 3
Back
SplineSet
1495.99902344 932 m 29
 254.999023438 931.740234375 l 5
 255.999023438 1234.74023438 l 29
 1495.99902344 1234.74023438 l 5
 1495.99902344 932 l 5
 1495.99902344 932 1539.99902344 0 1054.99902344 0 c 4
 549.999023438 0 583.999023438 937.740234375 583.999023438 937.740234375 c 1029
EndSplineSet
Fore
SplineSet
561.33984375 986.8046875 m 1
 1445.96289062 986.989257812 l 1
 1445.96289062 1179.74023438 l 1
 305.78125 1179.74023438 l 1
 305.14453125 986.750976562 l 1
 561.33984375 986.8046875 l 1
1446.99609375 876.990234375 m 1
 633.655273438 876.819335938 l 1
 636.728515625 653.068359375 688.659179688 55 1054.96289062 55 c 0
 1406.52734375 55 1447.4453125 659.936523438 1446.99609375 876.990234375 c 1
533.645507812 876.798828125 m 1
 254.97265625 876.740234375 l 2
 224.76953125 876.734375 204.883789062 907.9453125 204.963867188 931.939453125 c 2
 205.962890625 1234.93945312 l 2
 206.06640625 1266.25683594 231.247070312 1289.74023438 255.962890625 1289.74023438 c 2
 1495.96289062 1289.74023438 l 2
 1526.22753906 1289.74023438 1545.96289062 1258.34570312 1545.96289062 1234.74023438 c 2
 1545.96289062 933.313476562 l 2
 1546.20117188 927.599609375 1546.99414062 906.11328125 1547 873.203125 c 0
 1547.03710938 685.1796875 1527.19238281 -55 1054.96289062 -55 c 0
 568.204101562 -55 536.125976562 684.67578125 533.645507812 876.798828125 c 1
EndSplineSet
EndChar
StartChar: uniE04E
Encoding: 57422 57422 368
Width: 1070
VWidth: 0
Flags: HW
LayerCount: 3
Back
SplineSet
792 614 m 29
 286 614 l 1053
763 368 m 29
 310 368 l 1053
761 841 m 29
 308 841 l 1053
531 1235 m 5
 350 1017 260 807 260 603 c 4
 260 395 354 194 538 0 c 5
 719 191 810 388 810 593 c 4
 810 800 717 1014 531 1235 c 5
EndSplineSet
Fore
SplineSet
380 318 m 1
 417 238 469 158 538 79 c 1
 607 159 659 238 695 318 c 1
 380 318 l 1
342 418 m 1
 731 418 l 1
 744 466 752 515 754 564 c 1
 316 564 l 1
 319 515 328 466 342 418 c 1
342 791 m 1
 330 748 322 706 318 664 c 1
 751 664 l 1
 746 706 738 748 725 791 c 1
 342 791 l 1
377 891 m 1
 689 891 l 1
 652 975 599 1062 531 1150 c 1
 463 1061 412 975 377 891 c 1
576 -37 m 1
 564.669 -44.5542 550.217 -48.5418 536.222 -48.5418 c 0
 520.576 -48.5418 505.502 -43.5573 496 -33 c 0
 306 167 205 381 205 603 c 0
 205 821 301 1041 487 1265 c 0
 489 1267 494 1272 498 1275 c 0
 507.72 1281.89 519.244 1285.16 530.713 1285.16 c 0
 547.562 1285.16 564.29 1278.09 575 1265 c 0
 766 1038 865 814 865 593 c 0
 865 374 765 162 576 -37 c 1
EndSplineSet
EndChar
StartChar: uniE051
Encoding: 57425 57425 15
Width: 1155
VWidth: -205
Flags: HW
HStem: 123 102<315 840> 1007 103<315 840>
VStem: 203 112<104 123 225 1007 1110 1134> 840 110<100 121 223 1007 1110 1132>
LayerCount: 3
Back
SplineSet
895.016601562 998.620117188 m 29
 260.095703125 998.620117188 l 1053
260.095703125 233.915039062 m 5
 260.096 83.7676 l 4
 577.669 -205 l 5
 894.976 79.6719 l 4
 894.975585938 231.83203125 l 5
 895.016601562 998.620117188 l 21
 894.976 1152.82 l 4
 577.669 1441.59 l 5
 260.096 1154.87 l 4
 260.095703125 998.620117188 l 13
 260.095703125 233.915039062 l 5
260.080078125 233.90234375 m 29
 894.975585938 231.833984375 l 1053
EndSplineSet
Fore
SplineSet
577.643472575 1491.92846454 m 0
 591.583729108 1491.92846454 605.520579448 1486.92366795 616.51345452 1476.91943692 c 2
 933.880221788 1188.14932793 l 2
 944.114818266 1178.83517973 949.997457745 1165.92757588 950.000920217 1152.77752082 c 0
 950.006147226 1101.39171961 950.011374235 1050.0059184 950.016601403 998.620117188 c 2
 950.016601494 998.617592242 l 2
 950.002929674 743.023056286 949.989257855 487.428520331 949.975585986 231.833984375 c 2
 949.975585919 231.83215738 l 1
 949.975585937 231.83215738 949.975585937 79.6720261297 949.975585937 79.6720261297 c 2
 949.975585937 66.396703332 943.98192104 53.3726602249 933.575189565 44.0362635433 c 2
 616.29236674 -240.583104191 l 2
 605.327302092 -250.420409347 591.506990058 -255.334656781 577.692324861 -255.334656781 c 0
 563.758065358 -255.334656781 549.829550885 -250.334955237 538.842621496 -240.344593238 c 2
 221.208351754 48.4231954457 l 2
 210.960681607 57.7413525745 205.071185947 70.660644599 205.071159924 83.8219979445 c 2
 205.095505676 232.707549598 l 2
 205.085239772 233.104692211 205.080078125 233.50297432 205.080078125 233.90234375 c 0
 205.080078125 234.304264175 205.085305958 234.70510439 205.095703125 235.104810297 c 2
 205.095703125 998.620117188 l 1
 205.095703125 1154.87008807 l 2
 205.095728246 1168.09170674 211.040763362 1181.06641529 221.372484423 1190.39438418 c 2
 538.920991706 1477.06092752 l 2
 549.901197398 1486.97437915 563.774020827 1491.92846454 577.643472575 1491.92846454 c 0
839.975701237 182.012835432 m 1
 315.095703125 183.722786836 l 1
 315.095703125 104.461157879 l 1
 577.929571107 -134.532180166 l 1
 839.975943151 100.562660534 l 1
 839.975943151 127.712718833 839.975701237 154.862777132 839.975701237 182.012835432 c 1
315.095703125 283.723441415 m 1
 839.978270154 282.013481642 l 1
 840.013926992 948.620117188 l 1
 315.095703125 948.620117188 l 1
 315.095703125 283.723441415 l 1
840.00343629 1048.62011719 m 1
 839.981445448 1132.13392101 l 1
 577.514426692 1370.99597261 l 1
 315.095703125 1134.07210744 l 1
 315.095703125 1048.62011719 l 1
 840.00343629 1048.62011719 l 1
EndSplineSet
EndChar
StartChar: uniE058
Encoding: 57432 57432 6
Width: 2222
VWidth: -205
Flags: W
HStem: 764 98<903.75 1024 1198 1319.09>
LayerCount: 3
Back
SplineSet
1833.83 471.676 m 29
 1962.86 864.061 l 29
 1643.37 659.256 l 29
 1717.1 1072.95 l 29
 1393.51 778.04 l 29
 1336.17 1249.08 l 29
 1112.94 814.9 l 1053
1833.83 471.676 m 4
 1687.11 677.219 1419.07 814.9 1112.94 814.9 c 1028
392.04 471.676 m 29
 263.016 864.061 l 29
 582.504 659.256 l 29
 508.776 1072.95 l 29
 832.36 778.04 l 29
 889.704 1249.08 l 29
 1112.94 814.9 l 1053
392.04 471.676 m 4
 538.761 677.219 806.801 814.9 1112.94 814.9 c 1028
EndSplineSet
Fore
SplineSet
1733 655 m 1
 1760 632 1785 608 1810 583 c 1
 1860 737 l 1
 1733 655 l 1
1491 794 m 1
 1528 780 1564 763 1599 743 c 1
 1609 804 1622 864 1632 923 c 1
 1491 794 l 1
1198 862 m 1
 1241 860 1284 852 1327 844 c 1
 1300 1063 l 1
 1198 862 l 1
895 844 m 1
 938 852 981 860 1024 862 c 1
 922 1063 l 1
 895 844 l 1
623 743 m 1
 658 763 694 780 731 794 c 1
 590 923 l 1
 623 743 l 1
412 583 m 1
 437 608 462 632 489 655 c 1
 362 737 l 1
 412 583 l 1
438 444 m 0
 426 428 409 422 391 422 c 0
 368 422 344 434 336 457 c 2
 207 850 l 2
 205 854 205 858 205 864 c 0
 205 891 231 915 262 915 c 0
 272 915 283 913 293 905 c 2
 504 772 l 1
 451 1065 l 2
 451 1067 451 1071 451 1073 c 0
 451 1104 479 1124 510 1124 c 0
 522 1124 537 1118 547 1110 c 2
 788 891 l 1
 831 1255 l 2
 835 1284 862 1298 887 1298 c 0
 910 1298 930 1290 938 1272 c 2
 1112 936 l 1
 1284 1272 l 2
 1292 1290 1312 1298 1335 1298 c 0
 1360 1298 1387 1284 1391 1255 c 2
 1436 891 l 1
 1675 1110 l 2
 1687 1120 1700 1124 1714 1124 c 0
 1743 1124 1772 1102 1772 1073 c 0
 1772 1071 1772 1067 1772 1065 c 2
 1718 772 l 1
 1929 905 l 2
 1939 913 1950 915 1960 915 c 0
 1991 915 2017 891 2017 864 c 0
 2017 858 2017 854 2015 850 c 2
 1886 457 l 2
 1878 434 1856 422 1831 422 c 0
 1813 422 1796 428 1784 444 c 0
 1649 634 1399 764 1112 764 c 0
 823 764 573 634 438 444 c 0
EndSplineSet
EndChar
StartChar: uniE05A
Encoding: 57434 57434 305
Width: 1793
VWidth: -205
Flags: W
VStem: 509 110<1089 1265>
LayerCount: 3
Back
SplineSet
260 1110 m 21
 708 1008 1142 574 1138 0 c 13
 1533 240 l 29
 1112 306 l 29
 1433 622 l 29
 983 578 l 21
 1192 946 l 29
 803 820 l 29
 921 1224 l 13
 561 990 l 29
 573 1386 l 29
 260 1110 l 21
EndSplineSet
Fore
SplineSet
1168 246 m 1
 1179 196 1186 143 1190 92 c 1
 1388 212 l 1
 1168 246 l 1
1126 394 m 1
 1293 558 l 1
 1065 536 l 1
 1088 491 1108 443 1126 394 c 1
978 678 m 1
 1079 856 l 1
 885 793 l 1
 918 757 949 719 978 678 c 1
771 904 m 1
 829 1102 l 1
 656 991 l 1
 695 965 735 935 771 904 c 1
509 1075 m 1
 514 1265 l 1
 365 1133 l 1
 414 1117 462 1098 509 1075 c 1
247 1061 m 0
 241 1062 228 1068 221 1075 c 0
 211 1085 205 1097 205 1110 c 0
 205 1123 211 1136 222 1146 c 0
 535 1422 l 0
 545 1431 560 1436 575 1436 c 0
 605 1435 629 1412 628 1385 c 0
 619 1089 l 1
 889 1265 l 0
 901 1273 919 1276 935 1272 c 0
 959 1266 976 1246 976 1224 c 0
 976 1220 975 1215 974 1211 c 0
 883 899 l 1
 1174 993 l 0
 1188 998 1204 996 1217 990 c 0
 1236 982 1247 963 1247 945 c 0
 1247 937 1245 930 1241 923 c 0
 1079 638 l 1
 1427 672 l 0
 1442 674 1458 669 1470 659 c 0
 1482 650 1487 636 1487 622 c 0
 1487 610 1483 598 1473 588 c 0
 1221 340 l 1
 1542 289 l 0
 1555 287 1571 279 1579 268 c 0
 1585 259 1588 250 1588 240 c 0
 1588 224 1580 207 1564 198 c 0
 1169 -42 l 0
 1162 -46 1149 -50 1138 -50 c 0
 1108 -50 1083 -27 1083 0 c 0
 1083 3 1083 7 1083 10 c 0
 1083 110 1068 206 1043 296 c 0
 1016 391 976 479 927 560 c 0
 877 642 816 718 749 783 c 0
 680 849 605 905 525 951 c 0
 435 1002 341 1040 247 1061 c 0
EndSplineSet
EndChar
StartChar: uniE05C
Encoding: 57436 57436 308
Width: 1732
VWidth: -205
Flags: W
HStem: 751 100<779.806 980.977>
VStem: 205 110<278 489.785> 1417 110<279 478.643>
LayerCount: 3
Back
SplineSet
343 564 m 29
 377 1158 l 29
 688 784 l 29
 893 1234.74 l 21
 1070 782 l 29
 1367 1131 l 29
 1415 543 l 1053
260 277 m 17
 245 996 1496 957 1472 277 c 1033
EndSplineSet
Fore
SplineSet
315 278 m 1
 205 276 l 1
 205 288 205 300 205 312 c 0
 209 419 239 510 289 585 c 1
 322 1161 l 2
 324 1187 349 1208 378 1208 c 0
 379 1208 379 1208 380 1208 c 0
 397 1207 415 1195 421 1188 c 2
 674 884 l 1
 842 1254 l 2
 850 1273 871 1285 893 1285 c 0
 900 1285 907 1283 914 1281 c 0
 929 1275 941 1262 945 1251 c 2
 1088 885 l 1
 1323 1162 l 2
 1333 1175 1350 1182 1367 1182 c 0
 1379 1182 1391 1178 1401 1171 c 0
 1414 1162 1421 1147 1422 1135 c 2
 1470 547 l 1
 1463 547 l 1
 1503 476 1527 392 1527 297 c 0
 1527 290 1527 282 1527 275 c 1
 1417 279 l 1
 1417 285 1417 291 1417 297 c 0
 1417 587 1156 743 878 751 c 0
 871 751 863 751 856 751 c 0
 583 751 325 607 315 308 c 0
 315 298 315 288 315 278 c 1
406 710 m 1
 462 753 527 787 597 810 c 1
 424 1018 l 1
 406 710 l 1
776 847 m 1
 805 849 834 851 863 851 c 0
 869 851 876 851 882 851 c 0
 917 850 953 846 988 841 c 1
 889 1095 l 1
 776 847 l 1
1154 798 m 1
 1226 771 1292 733 1348 685 c 1
 1323 997 l 1
 1154 798 l 1
EndSplineSet
EndChar
StartChar: uniE05D
Encoding: 57437 57437 309
Width: 2115
VWidth: -205
Flags: W
LayerCount: 3
Back
SplineSet
460 156 m 25
 386.335 1073.96 l 25
 781.585 636.133 l 25
 1123.61 1349.23 l 17
 1502.83 632.68 l 25
 1858 1029 l 25
 1804 138 l 1049
304 0 m 17
 1123.61 790.917 l 1
 1928.48 0 l 1033
457.442 204.747 m 25
 386.335 1073.96 l 25
 781.585 636.133 l 25
 1123.61 1349.23 l 17
 1502.83 632.68 l 25
 1858 1029 l 25
 1804.74 181.568 l 1049
304 0 m 17
 1123.61 790.917 l 1
 1928.48 0 l 1033
EndSplineSet
Fore
SplineSet
285 -34 m 1
 205 34 l 1
 345 169 l 1
 272 1070 l 2
 270 1097 293 1122 323 1124 c 0
 342 1125 362 1115 370 1106 c 2
 708 731 l 1
 1014 1369 l 2
 1023 1388 1045 1399 1066 1399 c 0
 1073 1399 1080 1398 1087 1395 c 0
 1100 1390 1111 1377 1114 1371 c 2
 1456 725 l 1
 1756 1061 l 2
 1767 1073 1783 1079 1799 1079 c 0
 1811 1079 1824 1075 1834 1068 c 0
 1848 1058 1855 1042 1854 1026 c 2
 1800 142 l 1
 1910 34 l 1
 1829 -34 l 1
 1064 718 l 1
 285 -34 l 1
447 268 m 1
 1025 825 l 2
 1036 835 1051 840 1065 840 c 0
 1080 840 1094 835 1105 825 c 2
 1696 244 l 1
 1709 455 1722 667 1735 878 c 1
 1486 601 l 2
 1482 596 1475 591 1468 588 c 0
 1460 585 1452 583 1444 583 c 0
 1423 583 1403 593 1394 611 c 2
 1067 1229 l 1
 773 616 l 2
 770 610 764 602 757 597 c 0
 747 590 735 586 723 586 c 0
 707 586 691 592 680 604 c 2
 395 920 l 1
 447 268 l 1
EndSplineSet
EndChar
StartChar: uniE05F
Encoding: 57439 57439 406
Width: 1994
VWidth: -205
Flags: HW
LayerCount: 3
Back
SplineSet
1583.76269531 428.908203125 m 5
 1734.70507812 972 l 5
 1233.70507812 723 l 5
 1221.70507812 1263 l 5
 771.705078125 945 l 5
 654.705078125 1433.40039062 l 5
 259.705078125 1070.79296875 l 5
 768.705078125 990 1241.30078125 784.83984375 1583.76269531 428.908203125 c 5
EndSplineSet
Fore
SplineSet
697.633789062 1019.40722656 m 1
 622.559570312 1332.79394531 l 1
 371.266601562 1102.10839844 l 1
 482.646484375 1080.58691406 591.290039062 1053.20410156 697.633789062 1019.40722656 c 1
876.162109375 955.456054688 m 1
 980.165039062 913.784179688 1080.96582031 865.310546875 1176.80273438 810.052734375 c 1
 1168.97265625 1162.37597656 l 1
 876.162109375 955.456054688 l 1
1329.21386719 713.461914062 m 1
 1408.67480469 658.211914062 1485.29980469 596.455078125 1555.3828125 530.752929688 c 1
 1650.55175781 873.169921875 l 1
 1329.21386719 713.461914062 l 1
1637.12988281 416.66015625 m 2
 1634.96191406 408.859375 1629.91308594 400.265625 1623.15234375 393.971679688 c 0
 1601.0625 373.411132812 1563.22167969 374.356445312 1542.40722656 395.989257812 c 0
 1437.10058594 505.438476562 1319.13476562 600.234375 1191.19335938 681.28515625 c 0
 1053.49316406 768.516601562 904.217773438 839.823242188 746.841796875 896.131835938 c 0
 588.295898438 952.860351562 421.534179688 994.356445312 250.288085938 1021.53808594 c 0
 241.138671875 1022.99023438 231.659179688 1026.90527344 224.232421875 1032.61523438 c 0
 200.092773438 1051.17382812 198.421875 1085.55371094 220.66796875 1105.97558594 c 2
 615.66796875 1468.58300781 l 2
 621.693359375 1474.11328125 630.12109375 1478.87207031 638.864257812 1481.26953125 c 0
 669.131835938 1489.5703125 701.760742188 1472.12207031 708.48828125 1444.04003906 c 2
 806.913085938 1033.1796875 l 1
 1187.99316406 1302.47558594 l 2
 1193.28710938 1306.21679688 1205.93945312 1311.82128906 1216.32617188 1312.75585938 c 0
 1247.78710938 1315.58984375 1276.09863281 1292.74511719 1276.73730469 1264.00976562 c 2
 1286.90625 806.404296875 l 1
 1708.36425781 1015.87207031 l 2
 1717.04785156 1020.1875 1731.63769531 1023.20507812 1743.99609375 1021.28808594 c 0
 1775.16113281 1016.45605469 1795.81640625 987.6171875 1788.07226562 959.751953125 c 2
 1637.12988281 416.66015625 l 2
EndSplineSet
EndChar
StartChar: uniE064
Encoding: 57444 57444 94
Width: 1683
VWidth: -205
Flags: HW
HStem: -115 217<228 340 1340 1455> 1122 217<228 344 1340 1455>
VStem: 205 233<-92 38 1190 1316> 784 113<1241 1277> 1241 238<-90 36 1188 1314>
LayerCount: 3
Fore
SplineSet
786 -119 m 1
 897 -119 l 1
 897 467 l 1
 1251 37 l 1
 1245 25 1241 8 1241 -6 c 0
 1241 -65 1294 -115 1360 -115 c 0
 1426 -115 1479 -65 1479 -6 c 0
 1479 53 1426 102 1360 102 c 0
 1354 102 1345 102 1339 100 c 1
 922 614 l 1
 1339 1124 l 1
 1345 1122 1354 1122 1360 1122 c 0
 1426 1122 1479 1172 1479 1231 c 0
 1479 1290 1426 1339 1360 1339 c 0
 1294 1339 1241 1290 1241 1231 c 0
 1241 1217 1245 1200 1251 1188 c 1
 897 751 l 1
 897 1241 l 1
 936 1259 963 1298 963 1339 c 0
 963 1398 910 1448 844 1448 c 0
 778 1448 725 1398 725 1339 c 0
 725 1300 749 1263 784 1245 c 1
 784 1085 784 911 784 751 c 1
 430 1190 l 1
 436 1202 438 1217 438 1231 c 0
 438 1290 388 1339 322 1339 c 0
 256 1339 205 1290 205 1231 c 0
 205 1172 256 1122 322 1122 c 0
 330 1122 338 1122 344 1124 c 1
 762 614 l 1
 340 100 l 1
 334 100 328 102 322 102 c 0
 256 102 205 53 205 -6 c 0
 205 -65 256 -115 322 -115 c 0
 388 -115 438 -65 438 -6 c 0
 438 10 436 25 430 39 c 1
 784 469 l 1
 786 -119 l 1
EndSplineSet
EndChar
StartChar: uniE065
Encoding: 57445 57445 106
Width: 1990
VWidth: -205
Flags: HW
HStem: -111 217<396 512 1509 1624> 506 217<226 415 1574 1763> 563 102<375 900 1120 1613> 1126 217<396 509 1509 1624>
VStem: 373 236<-87 38 1191 1320> 895 236<-196 -26 1264 1427> 954 113<-50 467 763 1287> 1411 236<-87 40 1193 1320>
LayerCount: 3
Back
SplineSet
948.224 1345.34 m 0
 948.224 1376.99 975.749 1402.68 1009.66 1402.68 c 0
 1043.58 1402.68 1071.1 1376.99 1071.1 1345.34 c 0
 1071.1 1313.68 1043.58 1287.99 1009.66 1287.99 c 0
 975.749 1287.99 948.224 1313.68 948.224 1345.34 c 0
1607.68 614.2 m 0
 1607.68 645.854 1635.21 671.544 1669.12 671.544 c 0
 1703.04 671.544 1730.56 645.854 1730.56 614.2 c 0
 1730.56 582.546 1703.04 556.856 1669.12 556.856 c 0
 1635.21 556.856 1607.68 582.546 1607.68 614.2 c 0
260.096 614.2 m 0
 260.096 645.854 287.621 671.544 321.536 671.544 c 0
 355.451 671.544 382.976 645.854 382.976 614.2 c 0
 382.976 582.546 355.451 556.856 321.536 556.856 c 0
 287.621 556.856 260.096 582.546 260.096 614.2 c 0
321.536 614.2 m 25
 1667.07 614.2 l 1049
430.08 -2.24805 m 0
 430.08 -33.9023 457.605 -59.5918 491.52 -59.5918 c 0
 525.435 -59.5918 552.96 -33.9023 552.96 -2.24805 c 0
 552.96 29.4062 525.435 55.0957 491.52 55.0957 c 0
 457.605 55.0957 430.08 29.4062 430.08 -2.24805 c 0
952.32 -110.792 m 0
 952.32 -142.446 979.845 -168.136 1013.76 -168.136 c 0
 1047.67 -168.136 1075.2 -142.446 1075.2 -110.792 c 0
 1075.2 -79.1377 1047.67 -53.4482 1013.76 -53.4482 c 0
 979.845 -53.4482 952.32 -79.1377 952.32 -110.792 c 0
1468.42 -2.24805 m 0
 1468.42 -33.9023 1495.94 -59.5918 1529.86 -59.5918 c 0
 1563.77 -59.5918 1591.3 -33.9023 1591.3 -2.24805 c 0
 1591.3 29.4062 1563.77 55.0957 1529.86 55.0957 c 0
 1495.94 55.0957 1468.42 29.4062 1468.42 -2.24805 c 0
430.08 1234.74 m 0
 430.08 1266.4 457.605 1292.09 491.52 1292.09 c 0
 525.435 1292.09 552.96 1266.4 552.96 1234.74 c 0
 552.96 1203.09 525.435 1177.4 491.52 1177.4 c 0
 457.605 1177.4 430.08 1203.09 430.08 1234.74 c 0
1468.42 1234.74 m 0
 1468.42 1266.4 1495.94 1292.09 1529.86 1292.09 c 0
 1563.77 1292.09 1591.3 1266.4 1591.3 1234.74 c 0
 1591.3 1203.09 1563.77 1177.4 1529.86 1177.4 c 0
 1495.94 1177.4 1468.42 1203.09 1468.42 1234.74 c 0
1529.86 1236.79 m 25
 493.568 -4.2959 l 1049
1011.71 1347.38 m 25
 1009.66 -123.08 l 1049
489.472 1236.79 m 25
 1529.86 -4.2959 l 1049
EndSplineSet
Fore
SplineSet
1411 1235 m 0xbb
 1411 1294 1463 1343 1529 1343 c 0
 1595 1343 1647 1294 1647 1235 c 0
 1647 1176 1595 1126 1529 1126 c 0
 1522 1126 1516 1127 1509 1128 c 1
 1118 665 l 1
 1564 665 l 1xbb
 1584 699 1622 723 1668 723 c 0
 1734 723 1786 673 1786 614 c 0
 1786 555 1734 506 1668 506 c 0xdb
 1622 506 1584 529 1564 563 c 1
 1120 563 l 1
 1508 105 l 1
 1515 106 1522 106 1529 106 c 0
 1595 106 1647 57 1647 -2 c 0
 1647 -61 1595 -111 1529 -111 c 0
 1463 -111 1411 -61 1411 -2 c 0
 1411 13 1415 27 1421 40 c 1
 1066 468 l 1
 1065 -14 l 1
 1104 -32 1130 -69 1130 -111 c 0
 1130 -170 1079 -219 1013 -219 c 0
 947 -219 895 -170 895 -111 c 0
 895 -72 917 -36 952 -17 c 1
 952 143 953 307 953 467 c 1
 599 39 l 1
 605 26 608 13 608 -2 c 0
 608 -61 556 -111 490 -111 c 0
 424 -111 373 -61 373 -2 c 0
 373 57 424 106 490 106 c 0
 498 106 506 105 513 104 c 1
 900 563 l 1
 424 563 l 1xbd
 404 529 367 506 321 506 c 0
 255 506 203 555 203 614 c 0
 203 673 255 723 321 723 c 0xdd
 367 723 404 699 424 665 c 1
 901 665 l 1
 509 1128 l 1
 503 1127 496 1126 490 1126 c 0
 424 1126 373 1176 373 1235 c 0
 373 1294 424 1343 490 1343 c 0
 556 1343 608 1294 608 1235 c 0
 608 1219 605 1205 598 1191 c 1
 954 762 l 1
 954 1249 l 1
 916 1267 891 1304 891 1345 c 0
 891 1404 943 1454 1009 1454 c 0
 1075 1454 1126 1404 1126 1345 c 0
 1126 1305 1103 1270 1067 1251 c 1
 1066 763 l 1
 1421 1192 l 1
 1415 1205 1411 1220 1411 1235 c 0xbb
EndSplineSet
EndChar
StartChar: uniE067
Encoding: 57447 57447 367
Width: 1648
VWidth: 0
Flags: HW
LayerCount: 3
Back
SplineSet
1146.08007812 614.200195312 m 4
 1146.08007812 634.549804688 1164.42773438 651.0703125 1187.04003906 651.0703125 c 4
 1209.6484375 651.0703125 1228 634.549804688 1228 614.200195312 c 4
 1228 593.860351562 1209.6484375 577.33984375 1187.04003906 577.33984375 c 4
 1164.42773438 577.33984375 1146.08007812 593.860351562 1146.08007812 614.200195312 c 4
426.080078125 614.200195312 m 4
 426.080078125 634.549804688 444.427734375 651.0703125 467.040039062 651.0703125 c 4
 489.6484375 651.0703125 508 634.549804688 508 614.200195312 c 4
 508 593.860351562 489.6484375 577.33984375 467.040039062 577.33984375 c 4
 444.427734375 577.33984375 426.080078125 593.860351562 426.080078125 614.200195312 c 4
602 -93 m 1053
825.344 1154.87 m 29
 819.2 71.4805 l 1053
778.412 71.4805 m 4
 778.412 91.8291 796.76 108.344 819.372 108.344 c 4
 841.979 108.344 860.332 91.8291 860.332 71.4805 c 4
 860.332 51.1309 841.979 34.6162 819.372 34.6162 c 4
 796.76 34.6162 778.412 51.1309 778.412 71.4805 c 4
260.096 145.208 m 5
 260.096 1082.85 l 5
 824.31 612.443 l 5
 260.096 145.208 l 5
786.604 1152.82 m 4
 786.604 1173.17 804.952 1189.69 827.564 1189.69 c 4
 850.172 1189.69 868.524 1173.17 868.524 1152.82 c 4
 868.524 1132.48 850.172 1115.96 827.564 1115.96 c 4
 804.952 1115.96 786.604 1132.48 786.604 1152.82 c 4
824.31 612.443 m 5
 1387.99 142.48 l 5
 1387.99 1079.23 l 5
 824.31 612.443 l 5
EndSplineSet
Fore
SplineSet
1091.08007812 614.200195312 m 0
 1091.08007812 662.5859375 1134.49902344 701.0703125 1187.04003906 701.0703125 c 0
 1239.56640625 701.0703125 1283 662.62109375 1283 614.200195312 c 0
 1283 565.80859375 1239.56640625 527.33984375 1187.04003906 527.33984375 c 0
 1134.51660156 527.33984375 1091.08007812 565.782226562 1091.08007812 614.200195312 c 0
371.080078125 614.200195312 m 0
 371.080078125 662.5859375 414.499023438 701.0703125 467.040039062 701.0703125 c 0
 519.56640625 701.0703125 563 662.62109375 563 614.200195312 c 0
 563 565.80859375 519.56640625 527.33984375 467.040039062 527.33984375 c 0
 414.516601562 527.33984375 371.080078125 565.782226562 371.080078125 614.200195312 c 0
602 -93 m 1025
825.34375 1154.87011719 m 1
 880.342773438 1154.61230469 l 1
 874.19921875 71.22265625 l 1
 819.200195312 71.48046875 l 1
 764.201171875 71.73828125 l 1
 770.344726562 1155.12792969 l 1
 825.34375 1154.87011719 l 1
723.412109375 71.48046875 m 0
 723.412109375 119.873046875 766.842773438 158.344726562 819.372070312 158.344726562 c 0
 871.884765625 158.344726562 915.33203125 119.911132812 915.33203125 71.48046875 c 0
 915.33203125 23.0810546875 871.892578125 -15.3837890625 819.372070312 -15.3837890625 c 0
 766.853515625 -15.3837890625 723.412109375 23.0556640625 723.412109375 71.48046875 c 0
315.095703125 258.388671875 m 1
 742.787109375 612.568359375 l 1
 315.095703125 969.150390625 l 1
 315.095703125 258.388671875 l 1
205.095703125 145.208007812 m 2
 205.095703125 1082.84960938 l 2
 205.095703125 1111.59082031 232.893554688 1134.95019531 264.411132812 1132.6953125 c 0
 276.967773438 1131.796875 291.01953125 1124.91113281 297.270507812 1119.69921875 c 2
 861.484375 649.29296875 l 2
 887.235351562 627.822265625 880.810546875 591.59765625 861.34765625 575.48046875 c 2
 297.133789062 108.244140625 l 2
 273.76171875 88.8896484375 236.045898438 91.8408203125 216.655273438 114.541015625 c 0
 208.956054688 123.5546875 205.095703125 137.825195312 205.095703125 145.208007812 c 2
731.603515625 1152.81933594 m 0
 731.603515625 1201.20800781 775.026367188 1239.69042969 827.564453125 1239.69042969 c 0
 880.088867188 1239.69042969 923.524414062 1201.2421875 923.524414062 1152.81933594 c 0
 923.524414062 1104.42675781 880.08984375 1065.95996094 827.564453125 1065.95996094 c 0
 775.04296875 1065.95996094 731.603515625 1104.39941406 731.603515625 1152.81933594 c 0
787.134765625 575.59375 m 2
 767.731445312 591.771484375 761.44140625 628.015625 787.271484375 649.40625 c 2
 1350.95214844 1116.19335938 l 2
 1359.59277344 1123.34863281 1371.5234375 1128.20703125 1383.67480469 1129.07617188 c 0
 1415.19238281 1131.33105469 1442.99023438 1107.97070312 1442.99023438 1079.23046875 c 2
 1442.99023438 142.479492188 l 2
 1442.99023438 134.327148438 1439.01171875 120.625976562 1431.31640625 111.6796875 c 0
 1411.84179688 89.0390625 1374.11523438 86.2041015625 1350.81542969 105.629882812 c 2
 787.134765625 575.59375 l 2
905.83203125 612.318359375 m 1
 1332.99023438 256.178710938 l 1
 1332.99023438 966.049804688 l 1
 905.83203125 612.318359375 l 1
EndSplineSet
EndChar
StartChar: uniE06D
Encoding: 57453 57453 68
Width: 1650
VWidth: -205
Flags: HW
HStem: 354 82<315 428 1217 1331> 573 82<315 690 961 1331> 790 82<315 430 1223 1331>
VStem: 205 111<262 354 436 573 655 790 872 966> 766 113<71 493 731 1155> 1331 113<260 354 436 573 655 790 872 962>
LayerCount: 3
Back
SplineSet
1390.59 395.064 m 17
 1089.54 395.064 l 1025
559.764 395.064 m 1
 258.048 395.064 l 1033
1390.59 831.29 m 17
 1089.54 831.29 l 1025
559.764 831.29 m 1
 258.048 831.29 l 1033
266.24 614.2 m 29
 1384.45 614.2 l 1053
825.344 1154.87 m 25
 819.2 71.4805 l 1049
260.096 145.208 m 1
 260.096 1082.85 l 1
 824.31 612.443 l 1
 260.096 145.208 l 1
824.31 612.443 m 1
 1387.99 142.48 l 1
 1387.99 1079.23 l 1
 824.31 612.443 l 1
EndSplineSet
Fore
SplineSet
205 145 m 2
 205 1083 l 2
 205 1112 229 1134 260 1134 c 0
 274 1134 291 1126 299 1120 c 2
 766 731 l 1
 770 1155 l 1
 881 1155 l 1
 879 727 l 1
 1350 1118 l 2
 1360 1126 1375 1130 1389 1130 c 0
 1420 1130 1444 1108 1444 1079 c 2
 1444 143 l 2
 1444 133 1440 118 1430 108 c 0
 1419 97 1403 92 1387 92 c 0
 1374 92 1360 96 1350 104 c 2
 879 497 l 1
 877 71 l 1
 762 71 l 1
 766 493 l 1
 299 108 l 2
 288 99 273 95 259 95 c 0
 244 95 230 99 219 110 c 0
 209 120 205 137 205 145 c 2
694 573 m 1
 315 573 l 1
 315 436 l 1
 528 436 l 1
 694 573 l 1
954 573 m 1
 1120 436 l 1
 1331 436 l 1
 1331 573 l 1
 954 573 l 1
690 655 m 1
 528 790 l 1
 315 790 l 1
 315 655 l 1
 690 655 l 1
1331 655 m 1
 1331 790 l 1
 1122 790 l 1
 961 655 l 1
 1331 655 l 1
430 872 m 1
 315 966 l 1
 315 872 l 1
 430 872 l 1
1331 872 m 1
 1331 962 l 1
 1223 872 l 1
 1331 872 l 1
428 354 m 1
 315 354 l 1
 315 262 l 1
 428 354 l 1
1217 354 m 1
 1331 260 l 1
 1331 354 l 1
 1217 354 l 1
EndSplineSet
EndChar
StartChar: uniE06E
Encoding: 57454 57454 76
Width: 1650
VWidth: -205
Flags: HW
VStem: 205 111<262 966> 369 74<522 702> 723 195<-2 142 1084 1222> 766 113<73 493 731 1135> 1204 74<522 702> 1331 113<260 962>
LayerCount: 3
Back
SplineSet
1241.09 454.456 m 29
 1030.14 614.2 l 29
 1241.09 769.848 l 29
 1241.09 454.456 l 29
405.504 454.456 m 29
 616.448 614.2 l 29
 405.504 769.848 l 29
 405.504 454.456 l 29
825.344 1154.87 m 29
 819.2 71.4805 l 1053
778.412 71.4805 m 4
 778.412 91.8291 796.76 108.344 819.372 108.344 c 4
 841.979 108.344 860.332 91.8291 860.332 71.4805 c 4
 860.332 51.1309 841.979 34.6162 819.372 34.6162 c 4
 796.76 34.6162 778.412 51.1309 778.412 71.4805 c 4
260.096 145.208 m 5
 260.096 1082.85 l 5
 824.31 612.443 l 5
 260.096 145.208 l 5
786.604 1152.82 m 4
 786.604 1173.17 804.952 1189.69 827.564 1189.69 c 4
 850.172 1189.69 868.524 1173.17 868.524 1152.82 c 4
 868.524 1132.48 850.172 1115.96 827.564 1115.96 c 4
 804.952 1115.96 786.604 1132.48 786.604 1152.82 c 4
824.31 612.443 m 5
 1387.99 142.48 l 5
 1387.99 1079.23 l 5
 824.31 612.443 l 5
EndSplineSet
Fore
SplineSet
907 612 m 1xcc
 1331 260 l 1
 1331 962 l 1
 907 612 l 1xcc
731 1153 m 0
 731 1202 774 1241 827 1241 c 0
 880 1241 926 1202 926 1153 c 0
 926 1122 908 1095 881 1079 c 1
 879 727 l 1
 1350 1118 l 2
 1360 1126 1375 1130 1389 1130 c 0
 1420 1130 1444 1108 1444 1079 c 2
 1444 143 l 2
 1444 133 1440 118 1430 108 c 0
 1419 97 1403 92 1387 92 c 0
 1374 92 1360 96 1350 104 c 2
 879 497 l 1xdc
 879 378 877 262 877 143 c 1
 902 127 918 102 918 71 c 0
 918 22 872 -17 819 -17 c 0
 766 -17 723 22 723 71 c 0xec
 723 102 739 127 764 143 c 1
 766 493 l 1
 299 108 l 2
 288 99 273 95 259 95 c 0
 244 95 230 99 219 110 c 0
 209 120 205 137 205 145 c 2
 205 1083 l 2
 205 1112 229 1134 260 1134 c 0
 274 1134 291 1126 299 1120 c 2
 766 731 l 1xdc
 768 1083 l 1
 745 1099 731 1124 731 1153 c 0
315 262 m 1
 741 612 l 1
 315 966 l 1
 315 262 l 1
442 522 m 1
 561 614 l 1
 442 702 l 1
 442 522 l 1
430 432 m 2
 424 428 414 424 406 424 c 0
 386 424 369 438 369 454 c 2
 369 770 l 2
 369 776 373 784 379 790 c 0
 385 796 395 800 404 800 c 0
 413 800 421 797 428 792 c 2
 639 637 l 2
 651 629 659 606 641 592 c 2
 430 432 l 2
1217 432 m 2
 1006 592 l 2
 998 598 994 605 994 613 c 0
 994 622 999 630 1008 637 c 2
 1219 792 l 2
 1226 797 1234 800 1243 800 c 0
 1252 800 1262 796 1268 790 c 0
 1274 784 1278 774 1278 770 c 2
 1278 454 l 2
 1278 438 1261 424 1241 424 c 0
 1233 424 1221 430 1217 432 c 2
1204 522 m 1
 1204 702 l 1
 1085 614 l 1
 1204 522 l 1
EndSplineSet
EndChar
StartChar: uniE074
Encoding: 57460 57460 112
Width: 1874
VWidth: -205
Flags: HMW
LayerCount: 3
Back
SplineSet
177 177 m 25
 495 177 l 1049
105 176 m 0
 105 218 137 251 176 251 c 0
 215 251 246 218 246 176 c 0
 246 134 215 100 176 100 c 0
 137 100 105 134 105 176 c 0
1455 379 m 25
 938 379 l 25
 938 2 l 1049
1459 1235 m 9
 1459 0 l 25
 494 0 l 25
 494 379 l 25
 938 379 l 25
 938 1235 l 17
 1111 1235 1286 1235 1459 1235 c 9
EndSplineSet
Fore
SplineSet
1669 1235 m 2
 1669 0 l 2
 1669 -27 1644 -50 1614 -50 c 2
 649 -50 l 2
 619 -50 594 -27 594 0 c 2
 594 127 l 1
 446 127 l 1
 428 84 388 50 331 50 c 1
 254 50 205 113 205 176 c 0
 205 239 255 301 331 301 c 0
 386 301 427 269 445 227 c 1
 594 227 l 1
 594 379 l 2
 594 406 619 429 649 429 c 2
 1038 429 l 1
 1038 1235 l 2
 1038 1262 1063 1285 1093 1285 c 2
 1614 1285 l 2
 1644 1285 1669 1262 1669 1235 c 2
1559 1185 m 1
 1148 1185 l 1
 1148 429 l 1
 1559 429 l 1
 1559 1185 l 1
1038 329 m 1
 704 329 l 1
 704 50 l 1
 1038 50 l 1
 1038 329 l 1
1148 50 m 1
 1559 50 l 1
 1559 329 l 1
 1148 329 l 1
 1148 50 l 1
EndSplineSet
EndChar
StartChar: uniE075
Encoding: 57461 57461 113
Width: 1875
VWidth: -205
Flags: HW
HStem: -51 102<762 1561> 319 102<1237 1561> 805 102<315 647> 1184 102<315 1126>
VStem: 205 111<907 1184> 647 115<51 805> 1126 111<422 1184> 1561 111<51 319>
LayerCount: 3
Back
SplineSet
1177.6 855.86 m 1049
1615.87 -0.200195 m 1
 1615.87 370.488 l 0
 1181.7 370.488 l 0
 1181.7 1234.74 l 9
 260.096 1234.74 l 25
 260.096 855.86 l 25
 704.512 855.86 l 25
 704.512 -0.200195 l 17
 877.91 -0.200195 1442.47 -0.200195 1615.87 -0.200195 c 1
EndSplineSet
Fore
SplineSet
1561 51 m 1
 1561 319 l 1
 1182 319 l 2
 1151 319 1126 341 1126 370 c 2
 1126 1184 l 1
 315 1184 l 1
 315 907 l 1
 705 907 l 2
 736 907 762 885 762 856 c 2
 762 51 l 1
 1561 51 l 1
1671 0 m 2
 1671 -29 1647 -51 1616 -51 c 2
 705 -51 l 2
 674 -51 647 -29 647 0 c 2
 647 805 l 1
 260 805 l 2
 229 805 205 827 205 856 c 2
 205 1235 l 2
 205 1264 229 1286 260 1286 c 2
 1182 1286 l 2
 1213 1286 1237 1264 1237 1235 c 2
 1237 422 l 1
 1616 422 l 2
 1647 422 1671 399 1671 370 c 2
 1671 0 l 2
EndSplineSet
EndChar
StartChar: uniE077
Encoding: 57463 57463 166
Width: 2258
VWidth: -205
Flags: HW
LayerCount: 3
Back
SplineSet
1108 -4 m 25
 1251 188 l 25
 954 188 l 25
 1108 -4 l 25
561 -13 m 25
 1114 560 l 25
 1667 -12 l 25
 2014 349 l 25
 1162 1234 l 25
 261 299 l 1049
1504 163 m 25
 1849 522 l 1049
1300 364 m 25
 1645 723 l 1049
1114 560 m 25
 1459 919 l 1049
EndSplineSet
Fore
SplineSet
587 -46 m 1
 505 20 l 1
 1058 593 l 1
 1374 922 l 1
 1147 1158 l 1
 287 266 l 1
 205 332 l 1
 1106 1267 l 2
 1115 1276 1131 1283 1148 1283 c 0
 1162 1283 1177 1279 1188 1267 c 0
 1472 972 1756 677 2040 382 c 0
 2049 372 2053 361 2053 349 c 0
 2053 337 2049 326 2040 316 c 2
 1693 -45 l 2
 1684 -54 1668 -61 1651 -61 c 0
 1637 -61 1622 -57 1611 -45 c 2
 1099 484 l 1
 587 -46 l 1
1091 83 m 1
 1132 138 l 1
 1047 138 l 1
 1091 83 l 1
1139 -32 m 2
 1137 -35 1130 -41 1125 -44 c 0
 1115 -50 1104 -53 1093 -53 c 0
 1076 -53 1060 -46 1049 -33 c 2
 895 159 l 2
 889 166 884 177 884 188 c 0
 884 215 909 238 939 238 c 2
 1236 238 l 2
 1245 238 1258 235 1267 229 c 0
 1283 220 1291 204 1291 188 c 0
 1291 178 1288 169 1282 160 c 2
 1139 -32 l 2
1760 521 m 1
 1635 652 l 1
 1360 366 l 1
 1486 236 l 1
 1760 521 l 1
1833 445 m 1
 1559 160 l 1
 1652 64 l 1
 1926 349 l 1
 1833 445 l 1
1561 728 m 1
 1447 846 l 1
 1172 560 l 1
 1287 442 l 1
 1561 728 l 1
EndSplineSet
EndChar
StartChar: uniE07A
Encoding: 57466 57466 223
Width: 1529
VWidth: -205
Flags: HW
LayerCount: 3
Back
SplineSet
704 221 m 0
 704 253 731 279 765 279 c 0
 799 279 826 253 826 221 c 0
 826 189 799 164 765 164 c 0
 731 164 704 189 704 221 c 0
260 612 m 0
 260 644 288 669 322 669 c 0
 356 669 383 644 383 612 c 0
 383 580 356 555 322 555 c 0
 288 555 260 580 260 612 c 0
1147 612 m 0
 1147 644 1174 669 1208 669 c 0
 1242 669 1270 644 1270 612 c 0
 1270 580 1242 555 1208 555 c 0
 1174 555 1147 580 1147 612 c 0
702 1016 m 0
 702 1048 730 1073 764 1073 c 0
 798 1073 825 1048 825 1016 c 0
 825 984 798 958 764 958 c 0
 730 958 702 984 702 1016 c 0
1207 614 m 17
 323 614 l 1033
765 217 m 25
 765 1015 l 1049
EndSplineSet
Fore
SplineSet
647 1016 m 0
 647 1075 700 1123 764 1123 c 0
 829 1123 880 1074 880 1016 c 0
 880 976 856 940 820 921 c 1
 820 664 l 1
 1107 664 l 1
 1127 697 1164 719 1208 719 c 0
 1272 719 1325 671 1325 612 c 0
 1325 553 1272 505 1208 505 c 0
 1162 505 1123 529 1104 564 c 1
 820 564 l 1
 820 316 l 1
 857 297 881 261 881 221 c 0
 881 163 830 114 765 114 c 0
 700 114 649 163 649 221 c 0
 649 261 673 297 710 316 c 1
 710 564 l 1
 426 564 l 1
 407 529 368 505 322 505 c 0
 258 505 205 553 205 612 c 0
 205 671 258 719 322 719 c 0
 366 719 403 697 423 664 c 1
 710 664 l 1
 710 920 l 1
 672 938 647 975 647 1016 c 0
EndSplineSet
EndChar
StartChar: uniE080
Encoding: 57472 57472 12
Width: 1718
VWidth: -205
Flags: HW
HStem: -213 264<779 947> 1177 102<717 997>
VStem: 205 113<483 745> 741 236<-190 -44> 1401 113<581 657>
CounterMasks: 1 38
LayerCount: 3
Back
SplineSet
1131.6 545.715 m 25
 511.877 1144.06 l 1049
708.73 87.9463 m 25
 89.0059 686.29 l 1049
1000.37 239.334 m 25
 223.888 992.67 l 1049
81.7158 545.715 m 25
 701.44 1144.06 l 1049
504.586 87.9463 m 25
 1124.31 686.29 l 1049
212.951 239.334 m 25
 989.43 992.67 l 1049
540.672 -102.6 m 0
 540.672 -70.9463 568.197 -45.2559 602.112 -45.2559 c 0
 636.027 -45.2559 663.552 -70.9463 663.552 -102.6 c 0
 663.552 -134.254 636.027 -159.944 602.112 -159.944 c 0
 568.197 -159.944 540.672 -134.254 540.672 -102.6 c 0
1196.03 536.376 m 25
 499.712 1216.31 l 1049
720.896 16.1836 m 25
 24.5762 696.12 l 1049
1048.58 188.216 m 25
 176.128 1044.28 l 1049
16.3838 536.376 m 25
 712.704 1216.31 l 1049
491.52 16.1836 m 25
 1187.84 696.12 l 1049
163.84 188.216 m 25
 1036.29 1044.28 l 1049
4.0957 614.2 m 4
 4.0957 953.35 272.007 1228.6 602.112 1228.6 c 4
 932.217 1228.6 1200.13 953.35 1200.13 614.2 c 4
 1200.13 275.051 932.217 -0.200195 602.112 -0.200195 c 4
 272.007 -0.200195 4.0957 275.051 4.0957 614.2 c 4
585.729 1236.79 m 1049
EndSplineSet
Fore
SplineSet
205 614 m 0
 205 976 491 1280 860 1280 c 0
 1227 1280 1513 976 1513 614 c 0
 1513 284 1275 4 956 -43 c 1
 968 -61 977 -82 977 -105 c 0
 977 -164 926 -213 860 -213 c 0
 792 -213 741 -164 741 -105 c 0
 741 -82 750 -61 762 -43 c 1
 443 4 205 284 205 614 c 0
485 207 m 1
 544 150 616 105 696 78 c 1
 813 190 l 1
 639 356 l 1
 485 207 l 1
1276 975 m 1
 1135 837 l 1
 1313 665 l 1
 1389 737 l 1
 1369 827 1329 907 1276 975 c 1
440 258 m 1
 592 403 l 1
 416 573 l 1
 330 491 l 1
 350 403 387 324 440 258 c 1
1231 1024 m 1
 1170 1085 1094 1130 1010 1155 c 1
 909 1055 l 1
 1085 885 l 1
 1231 1024 l 1
778 57 m 1
 805 53 831 51 858 51 c 0
 889 51 919 53 948 59 c 1
 864 141 l 1
 778 57 l 1
1399 657 m 1
 1360 620 l 1
 1401 581 l 1
 1401 591 1401 604 1401 614 c 0
 1401 628 1401 643 1399 657 c 1
319 573 m 1
 367 620 l 1
 319 665 l 1
 317 649 317 630 317 614 c 0
 317 600 317 585 319 573 c 1
938 1171 m 1
 913 1175 887 1177 860 1177 c 0
 835 1177 811 1175 786 1173 c 1
 864 1100 l 1
 938 1171 l 1
641 885 m 1
 817 1055 l 1
 711 1155 l 1
 629 1132 555 1087 492 1028 c 1
 641 885 l 1
686 839 m 1
 864 667 l 1
 1040 839 l 1
 862 1009 l 1
 686 839 l 1
1087 450 m 1
 1266 620 l 1
 1087 792 l 1
 911 620 l 1
 1087 450 l 1
1137 403 m 1
 1282 262 l 1
 1335 330 1373 412 1391 500 c 1
 1313 573 l 1
 1137 403 l 1
594 837 m 1
 446 979 l 1
 385 905 342 813 326 713 c 1
 348 729 l 1
 416 665 l 1
 594 837 l 1
639 792 m 1
 463 620 l 1
 639 450 l 1
 815 620 l 1
 639 792 l 1
1038 405 m 1
 864 575 l 1
 686 403 l 1
 860 235 l 1
 1038 405 l 1
1087 356 m 1
 911 186 l 1
 1022 78 l 1
 1104 105 1178 152 1237 213 c 1
 1087 356 l 1
EndSplineSet
EndChar
StartChar: uniE083
Encoding: 57475 57475 43
Width: 1501
VWidth: -205
Flags: HW
HStem: 1149 176<686 854>
VStem: 674 193<1163 1311>
LayerCount: 3
Back
SplineSet
708.608 1236.79 m 0
 708.608 1283.9 749.568 1324.86 804.864 1324.86 c 0
 860.16 1324.86 901.12 1283.9 901.12 1236.79 c 0
 901.12 1189.69 860.16 1148.73 804.864 1148.73 c 0
 749.568 1148.73 708.608 1189.69 708.608 1236.79 c 0
1232.9 378.68 m 9
 675.84 925.5 l 1041
1017.86 155.448 m 9
 450.56 720.696 l 1041
880.763 87.9463 m 25
 339.968 614.2 l 1049
1172.4 239.334 m 25
 577.536 833.34 l 1049
337.92 378.68 m 9
 897.024 943.93 l 1041
552.96 155.448 m 9
 1122.3 722.744 l 1041
267.182 545.715 m 25
 790.528 1052.47 l 25
 1303.63 545.715 l 1049
690.053 87.9463 m 25
 1232.9 614.2 l 1049
398.418 239.334 m 25
 1011.71 835.38 l 1049
743.424 1236.79 m 0
 743.424 1268.45 770.949 1294.14 804.864 1294.14 c 0
 838.779 1294.14 866.304 1268.45 866.304 1236.79 c 0
 866.304 1205.14 838.779 1179.45 804.864 1179.45 c 0
 770.949 1179.45 743.424 1205.14 743.424 1236.79 c 0
EndSplineSet
Fore
SplineSet
674 1237 m 0
 674 1284 715 1325 770 1325 c 0
 825 1325 866 1284 866 1237 c 0
 866 1190 825 1149 770 1149 c 0
 715 1149 674 1190 674 1237 c 0
391 219 m 1
 336 260 l 1
 479 399 l 1
 423 453 l 1
 330 358 l 1
 276 399 l 1
 376 499 l 1
 304 569 l 1
 260 526 l 1
 205 567 l 1
 729 1073 l 2
 736 1080 745 1083 755 1083 c 0
 765 1083 776 1079 782 1073 c 2
 1296 565 l 1
 1241 526 l 1
 1198 568 l 1
 1125 497 l 1
 1225 399 l 1
 1171 358 l 1
 1077 451 l 1
 1025 400 l 1
 1165 260 l 1
 1110 219 l 1
 976 353 l 1
 903 282 l 1
 1010 176 l 1
 956 135 l 1
 855 236 l 1
 798 180 l 1
 872 108 l 1
 819 67 l 1
 751 134 l 1
 682 67 l 1
 629 108 l 1
 703 180 l 1
 646 236 l 1
 545 135 l 1
 492 176 l 1
 598 282 l 1
 527 351 l 1
 391 219 l 1
1151 615 m 1
 1089 677 l 1
 1016 604 l 1
 1078 544 l 1
 1151 615 l 1
929 835 m 1
 864 898 l 1
 791 825 l 1
 854 763 l 1
 929 835 l 1
976 788 m 1
 902 716 l 1
 968 651 l 1
 1041 724 l 1
 976 788 l 1
817 945 m 1
 756 1005 l 1
 681 933 l 1
 744 871 l 1
 817 945 l 1
648 775 m 1
 697 824 l 1
 633 887 l 1
 584 839 l 1
 648 775 l 1
696 728 m 1
 756 668 l 1
 807 716 l 1
 744 777 l 1
 696 728 l 1
871 554 m 1
 921 604 l 1
 854 670 l 1
 804 620 l 1
 871 554 l 1
918 507 m 1
 978 447 l 1
 1030 497 l 1
 969 557 l 1
 918 507 l 1
601 728 m 1
 536 793 l 1
 462 721 l 1
 529 655 l 1
 601 728 l 1
648 680 m 1
 576 608 l 1
 635 550 l 1
 708 621 l 1
 648 680 l 1
823 506 m 1
 755 573 l 1
 682 502 l 1
 751 434 l 1
 823 506 l 1
870 459 m 1
 798 387 l 1
 817 368 837 348 856 329 c 1
 929 400 l 1
 870 459 l 1
422 547 m 1
 482 607 l 1
 414 675 l 1
 352 615 l 1
 422 547 l 1
470 500 m 1
 527 445 l 1
 587 503 l 1
 530 560 l 1
 470 500 l 1
645 329 m 1
 703 387 l 1
 634 456 l 1
 575 398 l 1
 645 329 l 1
693 283 m 1
 751 227 l 1
 808 283 l 1
 751 340 l 1
 693 283 l 1
EndSplineSet
EndChar
StartChar: uniE091
Encoding: 57489 57489 140
Width: 1849
VWidth: -205
Flags: HW
LayerCount: 3
Back
SplineSet
256 614.2 m 13
 376.832 1234.74 l 29
 1452.03 -0.200195 l 1045
401.408 -0.200195 m 13
 1458.18 1244.98 l 29
 1587.2 614.2 l 1045
EndSplineSet
Fore
SplineSet
446 -31 m 1
 356 31 l 1
 848 610 l 1
 410 1114 l 1
 311 606 l 1
 201 622 l 1
 322 1243 l 2
 326 1268 350 1286 377 1286 c 0
 381 1286 383 1286 387 1286 c 0
 401 1284 416 1274 422 1268 c 2
 920 694 l 1
 1413 1276 l 2
 1423 1288 1442 1296 1458 1296 c 0
 1470 1296 1483 1292 1493 1286 c 0
 1505 1278 1511 1263 1513 1255 c 2
 1642 624 l 1
 1532 604 l 1
 1425 1122 l 1
 991 612 l 1
 1497 33 l 1
 1407 -33 l 1
 922 528 l 1
 446 -31 l 1
EndSplineSet
EndChar
StartChar: uniE09C
Encoding: 57500 57500 68
Width: 1316
VWidth: -205
Flags: HW
HStem: -49 102<381 924> 563 102<205 563 754 1112> 1184 102<391 942>
LayerCount: 3
Back
SplineSet
352.555 1234.4 m 25
 1093.42 1236.44 l 9
 340.311 1.67383 l 25
 1071.81 1.65723 l 9
 352.555 1234.4 l 25
1167.36 614.2 m 25
 259.406 615.556 l 1049
EndSplineSet
Fore
SplineSet
1112 665 m 1
 1112 563 l 1
 752 563 l 1
 1067 26 l 2
 1069 22 1073 10 1073 2 c 0
 1073 -27 1047 -49 1016 -49 c 2
 285 -49 l 2
 277 -49 266 -47 258 -43 c 0
 240 -33 229 -15 229 3 c 0
 229 11 232 18 236 26 c 2
 563 563 l 1
 205 565 l 1
 205 667 l 1
 565 665 l 1
 248 1210 l 2
 244 1218 241 1226 241 1234 c 0
 241 1253 252 1271 270 1280 c 0
 278 1284 295 1286 297 1286 c 2
 1038 1288 l 2
 1069 1288 1094 1266 1094 1237 c 0
 1094 1229 1089 1216 1087 1212 c 2
 754 665 l 1
 1112 665 l 1
657 508 m 1
 381 53 l 1
 924 53 l 1
 657 508 l 1
659 723 m 1
 942 1186 l 1
 391 1184 l 1
 659 723 l 1
EndSplineSet
EndChar
StartChar: uniE09F
Encoding: 57503 57503 71
Width: 1316
VWidth: -205
Flags: HW
HStem: 563 102<205 567 762 1112> 919 102<205 1112>
LayerCount: 3
Back
SplineSet
1167.36 968.5 m 17
 864.709 968.17 562.058 969.439 259.406 969.86 c 1033
1167.36 614.2 m 17
 864.709 613.868 562.058 615.14 259.406 615.556 c 1033
1071.81 1.65723 m 1
 721.58 618.49 l 1
 340.311 1.67383 l 1025
EndSplineSet
Fore
SplineSet
1067 24 m 1
 967 -23 l 1
 664 510 l 1
 334 -23 l 1
 236 26 l 1
 567 563 l 1
 446 563 326 565 205 565 c 1
 205 667 l 1
 352 667 498 665 645 665 c 1
 659 671 674 669 688 665 c 1
 829 665 971 665 1112 665 c 1
 1112 563 l 1
 995 563 879 563 762 563 c 1
 1067 24 l 1
1112 1020 m 1
 1112 917 l 1
 809 917 508 919 205 919 c 1
 205 1022 l 1
 508 1022 809 1020 1112 1020 c 1
EndSplineSet
EndChar
StartChar: uniE0A1
Encoding: 57505 57505 120
Width: 1495
VWidth: -205
Flags: HW
HStem: -51 102<451 1044> 561 102<451 683 816 1044>
VStem: 340 111<51 561> 1044 115<51 561>
LayerCount: 3
Back
SplineSet
688.128 618.296 m 0
 688.128 649.016 714.752 675.64 749.568 675.64 c 0
 784.384 675.64 811.008 649.016 811.008 618.296 c 0
 811.008 587.576 784.384 560.952 749.568 560.952 c 0
 714.752 560.952 688.128 587.576 688.128 618.296 c 0
1234.94 612.152 m 25
 260.096 612.152 l 1049
745.472 1488.7 m 25
 260.096 612.152 l 17
 393.216 614.2 l 1
 395.264 -0.200195 l 1
 1101.82 -0.200195 l 1
 1101.82 614.2 l 1
 1234.94 612.152 l 9
 745.472 1488.7 l 25
EndSplineSet
Fore
SplineSet
745 1376 m 1
 352 665 l 1
 393 665 l 2
 399 665 404 665 408 663 c 2
 643 663 l 1
 661 700 701 727 750 727 c 0
 799 727 838 700 856 663 c 1
 1087 663 l 2
 1091 665 1098 665 1102 665 c 2
 1143 665 l 1
 745 1376 l 1
694 1511 m 2
 698 1519 711 1530 721 1534 c 0
 729 1538 737 1540 745 1540 c 0
 765 1540 787 1529 797 1511 c 2
 1286 635 l 2
 1288 631 1290 620 1290 612 c 0
 1290 583 1266 561 1235 561 c 2
 1159 561 l 1
 1159 0 l 2
 1159 -29 1133 -51 1102 -51 c 2
 395 -51 l 2
 366 -51 340 -29 340 0 c 2
 338 561 l 1
 260 561 l 2
 252 561 244 563 236 567 c 0
 218 575 203 596 203 614 c 0
 203 620 205 629 209 635 c 2
 694 1511 l 2
451 561 m 1
 451 51 l 1
 1044 51 l 1
 1044 561 l 1
 850 561 l 1
 830 530 793 510 750 510 c 0
 707 510 669 530 649 561 c 1
 451 561 l 1
EndSplineSet
EndChar
StartChar: uniE0AE
Encoding: 57518 57518 391
Width: 1411
VWidth: 0
Flags: HW
LayerCount: 3
Back
SplineSet
1151 614 m 29
 803 614 255 614 258 614 c 1028
260 0 m 29
 260 1026 l 29
 1150 1024 l 29
 1151 0 l 1053
861 0 m 29
 861 614 l 1053
548 0 m 29
 548 614 l 1053
1151 614 m 1053
EndSplineSet
Fore
SplineSet
1151 614 m 1025
548 0 m 1
 493 0 l 1
 493 564 l 1
 315 564 l 1
 315 0 l 1
 260 0 l 1
 205 0 l 1
 205 1026 l 2
 205 1056.22460938 236.278320312 1076.05273438 260.135742188 1075.99902344 c 2
 1150.13574219 1074 l 2
 1181.44824219 1073.9296875 1204.97558594 1048.78515625 1205 1024.04492188 c 2
 1206 0.0439453125 l 1
 1151 0 l 1
 1096 -0.0439453125 l 1
 1095.44921875 564 l 1
 916 564 l 1
 916 0 l 1
 861 0 l 1
 806 0 l 1
 806 564 l 1
 603 564 l 1
 603 0 l 1
 548 0 l 1
1095.3515625 664 m 1
 1095.04882812 974.124023438 l 1
 315 975.875976562 l 1
 315 664 l 1
 1095.3515625 664 l 1
EndSplineSet
EndChar
StartChar: uniE0B1
Encoding: 57521 57521 27
Width: 1523
VWidth: -205
Flags: HW
HStem: 983 102<369 1159>
VStem: 205 213<-77 73> 254 115<24 983> 1159 113<37 981>
LayerCount: 3
Back
SplineSet
1161.22 -0.200195 m 4
 1161.22 22.4102 1184.15 40.7598 1212.42 40.7598 c 4
 1240.68 40.7598 1263.62 22.4102 1263.62 -0.200195 c 4
 1263.62 -22.8096 1240.68 -41.1602 1212.42 -41.1602 c 4
 1184.15 -41.1602 1161.22 -22.8096 1161.22 -0.200195 c 4
260.096 -2.24805 m 4
 260.096 20.3623 283.033 38.7119 311.296 38.7119 c 4
 339.559 38.7119 362.496 20.3623 362.496 -2.24805 c 4
 362.496 -24.8574 339.559 -43.208 311.296 -43.208 c 4
 283.033 -43.208 260.096 -24.8574 260.096 -2.24805 c 4
311.296 -0.200195 m 29
 311.296 1034.04 l 29
 1215.72 1031.99 l 29
 1216.04 -0.200195 l 1053
1161.22 -0.200195 m 4
 1161.22 22.4102 1184.15 40.7598 1212.42 40.7598 c 4
 1240.68 40.7598 1263.62 22.4102 1263.62 -0.200195 c 4
 1263.62 -22.8096 1240.68 -41.1602 1212.42 -41.1602 c 4
 1184.15 -41.1602 1161.22 -22.8096 1161.22 -0.200195 c 4
260.096 -2.24805 m 4
 260.096 20.3623 283.033 38.7119 311.296 38.7119 c 4
 339.559 38.7119 362.496 20.3623 362.496 -2.24805 c 4
 362.496 -24.8574 339.559 -43.208 311.296 -43.208 c 4
 283.033 -43.208 260.096 -24.8574 260.096 -2.24805 c 4
311.296 -0.200195 m 29
 311.296 1034.04 l 29
 1215.72 1031.99 l 29
 1216.04 -0.200195 l 1053
EndSplineSet
Fore
SplineSet
369 76 m 1xb0
 398 62 418 33 418 -2 c 0
 418 -59 364 -94 311 -94 c 0
 258 -94 205 -59 205 -2 c 0xd0
 205 33 225 62 254 76 c 1
 254 1034 l 2
 254 1065 286 1085 311 1085 c 2
 1217 1083 l 2
 1250 1083 1272 1057 1272 1032 c 2
 1272 76 l 1
 1299 60 1319 35 1319 0 c 0
 1319 -57 1265 -92 1212 -92 c 0
 1159 -92 1106 -57 1106 0 c 0
 1106 37 1128 66 1159 80 c 1
 1159 981 l 1
 369 983 l 1
 369 76 l 1xb0
EndSplineSet
EndChar
StartChar: uniE0B4
Encoding: 57524 57524 107
Width: 1476
VWidth: -205
Flags: HW
HStem: 561 102<369 1159> 987 102<369 1159>
VStem: 254 115<33 563 665 987> 1159 113<663 985>
LayerCount: 3
Back
SplineSet
262.144 -4.2959 m 4
 262.144 18.3135 285.082 36.6641 313.344 36.6641 c 4
 341.606 36.6641 364.544 18.3135 364.544 -4.2959 c 4
 364.544 -26.9062 341.606 -45.2559 313.344 -45.2559 c 4
 285.082 -45.2559 262.144 -26.9062 262.144 -4.2959 c 4
311.296 -0.200195 m 29
 311.296 1038.14 l 29
 1215.72 1036.09 l 21
 1215.91 612.093 l 5
 1216.51 614.2 306.269 614.204 308.781 614.2 c 1029
1216.51 614.2 m 1053
EndSplineSet
Fore
SplineSet
369 665 m 1
 537 665 993 665 1159 663 c 1
 1159 985 l 1
 369 987 l 1
 369 665 l 1
369 76 m 1
 400 62 422 33 422 -4 c 0
 422 -61 366 -96 313 -96 c 0
 260 -96 205 -61 205 -4 c 0
 205 31 225 58 254 74 c 1
 254 1038 l 2
 254 1069 286 1089 311 1089 c 2
 1217 1087 l 2
 1250 1087 1272 1061 1272 1036 c 2
 1272 606 l 1
 1266 581 1242 561 1217 561 c 0
 1215 561 1212 561 1210 561 c 0
 1159 563 562 563 369 563 c 1
 369 76 l 1
EndSplineSet
EndChar
StartChar: uniE0B5
Encoding: 57525 57525 122
Width: 1525
VWidth: -205
Flags: HW
HStem: -53 102<369 1159> 362 102<369 1159>
VStem: 254 115<49 362 465 994> 1159 113<51 362 465 992>
LayerCount: 3
Back
SplineSet
1163.26 1029.94 m 4
 1163.26 1007.33 1186.2 988.98 1214.46 988.98 c 4
 1242.73 988.98 1265.66 1007.33 1265.66 1029.94 c 4
 1265.66 1052.55 1242.73 1070.9 1214.46 1070.9 c 4
 1186.2 1070.9 1163.26 1052.55 1163.26 1029.94 c 4
262.144 1031.99 m 4
 262.144 1009.38 285.082 991.03 313.344 991.03 c 4
 341.606 991.03 364.544 1009.38 364.544 1031.99 c 4
 364.544 1054.6 341.606 1072.95 313.344 1072.95 c 4
 285.082 1072.95 262.144 1054.6 262.144 1031.99 c 4
1216.51 413.496 m 21
 1216.51 413.496 306.269 413.496 308.781 413.496 c 1028
311.296 1027.9 m 29
 311.296 -2.24805 l 29
 1215.72 -0.200195 l 29
 1216.04 1027.9 l 1053
1216.51 413.496 m 1053
EndSplineSet
Fore
SplineSet
205 1032 m 0
 205 1089 260 1124 313 1124 c 0
 366 1124 422 1089 422 1032 c 0
 422 995 400 966 369 952 c 1
 369 465 l 1
 1159 465 l 1
 1159 950 l 1
 1128 964 1106 993 1106 1030 c 0
 1106 1087 1161 1122 1214 1122 c 0
 1267 1122 1323 1087 1323 1030 c 0
 1323 995 1301 968 1272 952 c 1
 1272 635 1272 317 1272 0 c 0
 1272 -25 1250 -51 1217 -51 c 2
 311 -53 l 2
 286 -53 254 -33 254 -2 c 2
 254 954 l 1
 225 970 205 997 205 1032 c 0
369 362 m 1
 369 49 l 1
 1159 51 l 1
 1159 362 l 1
 369 362 l 1
EndSplineSet
EndChar
StartChar: uniE0B6
Encoding: 57526 57526 109
Width: 1429
VWidth: -205
Flags: HW
HStem: -53 102<319 1110> 362 102<319 1110>
VStem: 205 115<49 362 465 1028> 1110 115<51 362 465 1028>
LayerCount: 3
Back
SplineSet
1167.36 413.496 m 21
 1167.36 413.496 258.048 413.496 260.096 413.496 c 1028
262.144 1027.9 m 29
 262.144 -2.24805 l 29
 1167.36 -0.200195 l 29
 1167.36 1027.9 l 1053
1167.36 413.496 m 1053
EndSplineSet
Fore
SplineSet
205 1028 m 1
 319 1028 l 1
 319 465 l 1
 1110 465 l 1
 1110 1028 l 1
 1225 1028 l 1
 1225 0 l 2
 1225 -25 1200 -51 1167 -51 c 2
 262 -53 l 2
 237 -53 205 -33 205 -2 c 2
 205 1028 l 1
319 362 m 1
 319 49 l 1
 1110 51 l 1
 1110 362 l 1
 319 362 l 1
EndSplineSet
EndChar
StartChar: uniE0B7
Encoding: 57527 57527 326
Width: 1429
VWidth: -205
Flags: HW
LayerCount: 3
Back
SplineSet
262 1028 m 25
 262 -2 l 25
 1167 -0 l 25
 1167 1028 l 1049
EndSplineSet
Fore
SplineSet
207 1028 m 1
 317 1028 l 1
 317 48 l 1
 1112 50 l 1
 1112 1028 l 1
 1222 1028 l 1
 1222 0 l 0
 1222 -25 1198 -50 1167 -50 c 0
 262 -52 l 0
 238 -52 207 -32 207 -2 c 0
 207 1028 l 1
EndSplineSet
EndChar
StartChar: uniE0BE
Encoding: 57534 57534 81
Width: 1429
VWidth: -205
Flags: HW
VStem: 352 106<692 970> 971 106<487 849>
LayerCount: 3
Back
SplineSet
333.824 395.064 m 29
 958.464 26.4238 l 1053
782.336 1234.74 m 29
 339.968 1046.33 l 29
 1052.67 933.689 l 29
 401.408 616.248 l 29
 1103.87 368.44 l 29
 468.992 32.5684 l 1053
1169.41 1234.74 m 1053
1169.41 1234.74 m 21
 982.823 828.35 968.352 644.44 1169.41 227.128 c 13
 714.752 -205 l 29
 260.096 227.128 l 21
 461.152 644.44 446.681 828.35 260.096 1234.74 c 1037
EndSplineSet
Fore
SplineSet
1118 1255 m 1
 1221 1214 l 1
 1127 1009 1077 870 1077 727 c 0
 1077 590 1125 449 1221 248 c 0
 1225 242 1225 233 1225 227 c 0
 1225 215 1220 202 1210 192 c 2
 756 -240 l 2
 746 -250 731 -256 717 -256 c 0
 701 -256 684 -250 674 -240 c 2
 219 192 l 2
 209 200 205 215 205 227 c 0
 205 235 207 242 209 248 c 0
 305 449 352 590 352 727 c 0
 352 870 303 1009 209 1214 c 1
 311 1255 l 1
 336 1204 357 1155 375 1108 c 1
 762 1272 l 1
 803 1198 l 1
 489 1065 l 1
 1010 983 l 1
 1035 1065 1071 1155 1118 1255 c 1
416 993 m 1
 445 899 459 813 459 725 c 0
 459 715 459 702 459 692 c 1
 915 913 l 1
 416 993 l 1
442 559 m 1
 432 510 415 460 397 407 c 1
 723 215 l 1
 999 360 l 1
 442 559 l 1
483 88 m 1
 635 168 l 1
 367 327 l 1
 355 298 340 268 326 237 c 1
 483 88 l 1
549 26 m 1
 715 -131 l 1
 879 24 l 1
 721 119 l 1
 549 26 l 1
1073 305 m 1
 809 164 l 1
 942 86 l 1
 1104 237 l 1
 1094 260 1083 282 1073 305 c 1
1020 442 m 1
 987 544 971 635 971 725 c 0
 971 768 973 809 981 852 c 1
 510 622 l 1
 1020 442 l 1
EndSplineSet
EndChar
StartChar: uniE0C0
Encoding: 57536 57536 407
Width: 1526
VWidth: 0
Flags: HW
LayerCount: 3
Back
SplineSet
1163.26 -2.24805 m 4
 1163.26 20.3623 1186.2 38.7119 1214.46 38.7119 c 4
 1242.73 38.7119 1265.66 20.3623 1265.66 -2.24805 c 4
 1265.66 -24.8574 1242.73 -43.208 1214.46 -43.208 c 4
 1186.2 -43.208 1163.26 -24.8574 1163.26 -2.24805 c 4
262.144 -4.2959 m 4
 262.144 18.3135 285.082 36.6641 313.344 36.6641 c 4
 341.606 36.6641 364.544 18.3135 364.544 -4.2959 c 4
 364.544 -26.9062 341.606 -45.2559 313.344 -45.2559 c 4
 285.082 -45.2559 262.144 -26.9062 262.144 -4.2959 c 4
1216.51 614.2 m 29
 862.499 614.2 306.269 614.2 308.781 614.2 c 1028
311.296 -0.200195 m 29
 311.296 1029.94 l 1045
1215.72 1027.9 m 13
 1216.04 -0.200195 l 1053
1216.51 614.2 m 1053
EndSplineSet
Fore
SplineSet
1108.59960938 -2.248046875 m 0
 1108.59960938 53.4130859375 1162.1875 88.7119140625 1214.79980469 88.7119140625 c 0
 1267.42675781 88.7119140625 1321 53.4052734375 1321 -2.248046875 c 0
 1321 -57.8984375 1267.42675781 -93.2080078125 1214.79980469 -93.2080078125 c 0
 1162.18554688 -93.2080078125 1108.59960938 -57.9091796875 1108.59960938 -2.248046875 c 0
207.483398438 -4.2958984375 m 0
 207.483398438 51.3623046875 261.068359375 86.6640625 313.68359375 86.6640625 c 0
 366.301757812 86.6640625 419.883789062 51.36328125 419.883789062 -4.2958984375 c 0
 419.883789062 -59.9541015625 366.299804688 -95.255859375 313.68359375 -95.255859375 c 0
 261.067382812 -95.255859375 207.483398438 -59.95703125 207.483398438 -4.2958984375 c 0
1216.84960938 614.200195312 m 1
 1216.84960938 564.200195312 l 1
 309.12109375 564.200195312 l 1
 309.114257812 564.200195312 l 1
 309.114257812 633.174804688 l 1
 309.114257812 664.200195312 l 1
 309.12109375 664.200195312 l 1
 1216.84960938 664.200195312 l 1
 1216.84960938 614.200195312 l 1
311.635742188 -0.2001953125 m 1
 256.635742188 -0.2001953125 l 1
 256.635742188 1029.93945312 l 1
 311.635742188 1029.93945312 l 1
 366.635742188 1029.93945312 l 1
 366.635742188 -0.2001953125 l 1
 311.635742188 -0.2001953125 l 1
1216.05957031 1027.90039062 m 1
 1271.05957031 1027.91503906 l 1
 1271.37988281 -0.185546875 l 1
 1216.37988281 -0.2001953125 l 1
 1161.37988281 -0.2138671875 l 1
 1161.05957031 1027.88574219 l 1
 1216.05957031 1027.90039062 l 1
1216.84960938 614.200195312 m 1025
EndSplineSet
EndChar
StartChar: uniE0C5
Encoding: 57541 57541 183
Width: 1413
VWidth: -205
Flags: HW
LayerCount: 3
Back
SplineSet
1153 1234 m 1
 1157 1076 970 963 715 963 c 1
 478 963 263 1089 260 1234 c 1025
EndSplineSet
Fore
SplineSet
205.01 1233.06 m 1
 314.99 1234.94 l 1
 317.057 1135.03 489.636 1013 715 1013 c 0
 959.448 1013 1100.89 1118.82 1098.01 1232.85 c 1
 1116.34 1233.23 1134.67 1233.62 1153 1234 c 0
 1171.33 1234.38 1189.66 1234.77 1207.99 1235.15 c 1
 1213.09 1033.17 980.567 913 715 913 c 0
 466.366 913 208.941 1042.97 205.01 1233.06 c 1
EndSplineSet
EndChar
StartChar: uniE0C7
Encoding: 57543 57543 209
Width: 1609
VWidth: -205
Flags: HW
LayerCount: 3
Back
SplineSet
1404 0 m 1
 1138 0 947 262 947 614 c 1
 947 942 1160 1235 1404 1235 c 1025
205 0 m 1
 471 0 662 262 662 614 c 1
 662 942 449 1235 205 1235 c 1025
EndSplineSet
Fore
SplineSet
205 1185 m 1
 205 1285 l 1
 499 1285 717 953 717 614 c 0
 717 252 518 -50 205 -50 c 1
 205 50 l 1
 424 50 607 272 607 614 c 0
 607 931 399 1185 205 1185 c 1
1404 1285 m 1
 1404 1185 l 1
 1210 1185 1002 931 1002 614 c 0
 1002 272 1185 50 1404 50 c 1
 1404 -50 l 1
 1091 -50 892 252 892 614 c 0
 892 953 1110 1285 1404 1285 c 1
EndSplineSet
EndChar
StartChar: uniE0D5
Encoding: 57557 57557 358
Width: 1390
VWidth: -205
Flags: HW
LayerCount: 3
Back
SplineSet
688 114 m 25
 260 1032 l 25
 1130 1034 l 25
 688 114 l 25
EndSplineSet
Fore
SplineSet
637 94 m 2
 209 1012 l 2
 206 1018 205 1025 205 1031 c 0
 205 1051 218 1070 239 1078 c 0
 246 1081 259 1082 260 1082 c 2
 1130 1084 l 2
 1160 1084 1185 1061 1185 1034 c 0
 1185 1027 1181 1016 1180 1014 c 2
 738 94 l 2
 729 75 708 64 687 64 c 0
 680 64 673 65 666 68 c 0
 653 73 642 84 637 94 c 2
689 240 m 1
 1046 984 l 1
 343 982 l 1
 689 240 l 1
EndSplineSet
EndChar
StartChar: uniE0D6
Encoding: 57558 57558 360
Width: 1755
VWidth: -205
Flags: HW
LayerCount: 3
Back
SplineSet
874 502 m 29
 663 989 l 29
 1087 990 l 29
 874 502 l 29
874 -4 m 29
 260 1234 l 29
 1495 1234 l 29
 874 -4 l 29
EndSplineSet
Fore
SplineSet
874.188 638 m 1
 1005.92 939.809 l 1
 743.693 939.19 l 1
 874.188 638 l 1
822.826 483.677 m 2
 611.826 970.677 l 0
 600.849 996.016 614.97 1025.54 642.844 1035.52 c 0
 649.202 1037.8 657.82 1038.99 662.857 1039 c 0
 1086.86 1040 l 0
 1116.81 1040.07 1141.92 1017.36 1142 990.13 c 0
 1142.02 983.783 1140.29 976.521 1138.12 971.559 c 0
 925.122 483.559 l 0
 914.073 458.245 881.561 445.48 853.715 455.525 c 0
 839.027 460.823 826.958 474.14 822.826 483.677 c 2
874.284 117.073 m 1
 1409.47 1184 l 1
 345.13 1184 l 1
 874.284 117.073 l 1
823.86 -24.5518 m 2
 209.86 1213.45 l 0
 197.548 1238.28 210.083 1268.39 237.394 1279.58 c 0
 244.475 1282.48 256.569 1284 260 1284 c 0
 1495 1284 l 0
 1524.96 1284 1550 1261.23 1550 1234 c 0
 1550 1226.86 1546.66 1216.49 1545.04 1213.25 c 0
 924.042 -24.7461 l 0
 911.612 -49.5254 878.438 -60.7939 851.18 -49.4932 c 0
 838.473 -44.2256 826.987 -30.8564 823.86 -24.5518 c 2
EndSplineSet
EndChar
StartChar: uniE0D7
Encoding: 57559 57559 404
Width: 1730
VWidth: -205
Flags: HW
LayerCount: 3
Back
SplineSet
861.599609375 725.390625 m 29
 654.819335938 242.7734375 l 29
 1070.33984375 241.782226562 l 29
 861.599609375 725.390625 l 29
861.599609375 1226.8359375 m 29
 259.879882812 -0.021484375 l 29
 1470.1796875 -0.021484375 l 29
 861.599609375 1226.8359375 l 29
EndSplineSet
Fore
SplineSet
810.173828125 743.538085938 m 2
 814.1328125 752.77734375 824.653320312 764.736328125 837.37890625 770.359375 c 0
 865.8125 782.923828125 901.075195312 770.409179688 912.623046875 743.654296875 c 2
 1121.36328125 260.046875 l 2
 1122.37890625 257.694335938 1124.60546875 250.36328125 1125.00585938 245.575195312 c 0
 1127.40332031 216.916992188 1101.63476562 191.70703125 1070.01953125 191.783203125 c 2
 654.499023438 192.7734375 l 2
 652.724609375 192.778320312 643.616210938 193.572265625 638.763671875 194.90234375 c 0
 608.495117188 203.201171875 591.919921875 234.139648438 603.393554688 260.920898438 c 2
 810.173828125 743.538085938 l 2
861.61328125 588.0703125 m 1
 735.008789062 292.58203125 l 1
 989.416992188 291.975585938 l 1
 861.61328125 588.0703125 l 1
811.190429688 1247.19726562 m 2
 815.223632812 1255.41992188 824.337890625 1265.36425781 834.950195312 1270.66308594 c 0
 862.661132812 1284.49707031 898.565429688 1273.58984375 911.561523438 1247.390625 c 2
 1520.14160156 20.533203125 l 2
 1521.95996094 16.8671875 1524.34667969 9.5400390625 1524.83398438 3.9013671875 c 0
 1527.31445312 -24.7509765625 1501.61914062 -50.021484375 1470.00390625 -50.021484375 c 2
 259.704101562 -50.021484375 l 2
 255.840820312 -50.021484375 247.077148438 -49.001953125 241.317382812 -47.14453125 c 0
 211.521484375 -37.5361328125 196.596679688 -5.91015625 209.470703125 20.33984375 c 2
 811.190429688 1247.19726562 l 2
861.708007812 1104.63378906 m 1
 344.446289062 49.978515625 l 1
 1384.86816406 49.978515625 l 1
 861.708007812 1104.63378906 l 1
EndSplineSet
EndChar
StartChar: uniE0DC
Encoding: 57564 57564 414
Width: 1166
VWidth: -205
Flags: HWO
LayerCount: 3
Back
SplineSet
906 614.400390625 m 5
 263.620117188 0 l 5
 260 1234.94042969 l 5
 906 614.400390625 l 5
EndSplineSet
Fore
SplineSet
830.6875 614.475585938 m 1
 315.859375 1109.01269531 l 1
 318.744140625 124.830078125 l 1
 830.6875 614.475585938 l 1
946.35546875 579.954101562 m 2
 303.975585938 -34.447265625 l 2
 282.1953125 -55.2783203125 244.34375 -54.80078125 223.208007812 -33.4267578125 c 0
 213.794921875 -23.9072265625 209.133789062 -8.037109375 209.110351562 -0.1328125 c 2
 205.490234375 1234.80761719 l 2
 205.40625 1263.54785156 233.135742188 1286.97558594 264.659179688 1284.796875 c 0
 278.774414062 1283.82128906 293.916015625 1275.57324219 300.4375 1269.30859375 c 2
 946.4375 648.76953125 l 2
 967.13671875 628.885742188 964.552734375 597.358398438 946.35546875 579.954101562 c 2
EndSplineSet
EndChar
StartChar: uniE0E1
Encoding: 57569 57569 36
Width: 2567
VWidth: -205
Flags: HW
HStem: 166 61<393 530> 370 61<311 440> 563 102<508 942 1100 1561 1708 2189>
LayerCount: 3
Back
SplineSet
742.28 -0.200195 m 29
 365 44 l 29
 593 305 l 29
 260 326 l 29
 447.37 614.2 l 1053
2306.95 614.2 m 29
 447.37 614.2 l 29
 742.28 -0.200195 l 29
 1352.58 1234.74 l 29
 1962.89 -0.200195 l 29
 2306.95 614.2 l 29
EndSplineSet
Fore
SplineSet
1744 564 m 1
 1966 116 l 1
 2050 266 2134 415 2217 564 c 1
 1744 564 l 1
961 564 m 1
 531 564 l 1
 743 123 l 1
 961 564 l 1
1574 664 m 1
 1353 1113 l 1
 1131 664 l 1
 1574 664 l 1
1010 664 m 1
 1302 1255 l 2
 1311 1273 1332 1285 1353 1285 c 0
 1360 1285 1368 1283 1375 1280 c 0
 1388 1275 1400 1262 1403 1255 c 2
 1695 664 l 1
 2307 664 l 2
 2314 664 2324 663 2332 659 c 0
 2351 650 2362 632 2362 614 c 0
 2362 606 2360 599 2356 592 c 0
 2241 387 2127 182 2012 -23 c 0
 2007 -31 1997 -41 1985 -46 c 0
 1978 -49 1970 -50 1963 -50 c 0
 1942 -50 1922 -39 1913 -21 c 2
 1624 564 l 1
 1081 564 l 1
 792 -21 l 2
 787 -32 776 -41 764 -46 c 0
 757 -49 750 -50 743 -50 c 0
 740 -50 737 -50 735 -50 c 1
 735 -50 l 1
 358 -6 l 2
 331 -3 310 19 310 44 c 0
 310 46 310 48 310 50 c 0
 311 59 316 68 322 75 c 2
 485 262 l 1
 256 276 l 2
 227 278 205 300 205 326 c 0
 205 336 208 344 213 351 c 2
 400 640 l 1
 400 640 l 1
 410 655 427 664 447 664 c 2
 1010 664 l 1
653 61 m 1
 581 211 l 1
 469 82 l 1
 653 61 l 1
509 360 m 1
 440 505 l 1
 353 370 l 1
 509 360 l 1
EndSplineSet
EndChar
StartChar: uniE0F0
Encoding: 57584 57584 48
Width: 2142
VWidth: -205
Flags: HW
HStem: -256 102<999 1141> 53 102<1002 1139> 438 102<317 516 1624 1825> 690 102<319 516 1624 1823> 1073 102<1002 1139> 1382 102<999 1141>
VStem: 205 113<540 690> 512 113<477 752> 887 113<-154 57 1171 1382> 1141 111<-154 57 1171 1382> 1518 113<477 752> 1825 113<540 690>
LayerCount: 3
Back
SplineSet
1068.37 867.811 m 29
 802.938 537.369 l 29
 903.142 397.439 l 29
 1066.84 571.09 l 29
 1233.59 397.439 l 29
 1333.03 536.527 l 29
 1068.37 867.811 l 29
1558.35 740.496 m 29
 1876.95 740.965 l 29
 1878.43 489.758 l 29
 1557.8 489.271 l 1053
579.762 740.496 m 29
 261.161 740.965 l 29
 259.681 489.758 l 29
 580.312 489.271 l 1053
1193.98 1109.82 m 29
 1193.98 1433.4 l 29
 940.032 1433.4 l 29
 942.08 1111.86 l 1053
1193.98 118.584 m 29
 1193.98 -205 l 29
 940.032 -205 l 29
 942.08 116.536 l 1053
566.312 614.2 m 4
 566.312 895.689 791.357 1124.15 1068.65 1124.15 c 4
 1345.93 1124.15 1570.98 895.689 1570.98 614.2 c 4
 1570.98 332.707 1345.93 104.248 1068.65 104.248 c 4
 791.357 104.248 566.312 332.707 566.312 614.2 c 4
EndSplineSet
Fore
SplineSet
625 614 m 0
 625 356 829 155 1071 155 c 0
 1313 155 1518 356 1518 614 c 0
 1518 872 1313 1073 1071 1073 c 0
 829 1073 625 872 625 614 c 0
1071 796 m 1
 860 536 l 1
 909 467 l 1
 1034 598 l 2
 1044 608 1057 612 1069 612 c 0
 1083 612 1096 607 1104 598 c 2
 1231 467 l 1
 1280 534 l 1
 1071 796 l 1
1032 891 m 2
 1032 893 1040 899 1044 901 c 0
 1052 906 1061 908 1070 908 c 0
 1084 908 1099 902 1108 891 c 2
 1372 561 l 2
 1382 549 1384 528 1374 514 c 2
 1274 375 l 2
 1274 373 1270 368 1266 366 c 0
 1258 360 1247 357 1236 357 c 0
 1223 357 1209 361 1200 370 c 2
 1069 508 l 1
 940 370 l 2
 938 368 934 364 930 362 c 0
 923 358 914 356 906 356 c 0
 891 356 875 363 866 375 c 2
 766 516 l 2
 756 528 758 547 768 561 c 2
 1032 891 l 2
1141 57 m 1
 1118 55 1094 53 1071 53 c 0
 1046 53 1022 55 999 57 c 1
 999 -154 l 1
 1141 -154 l 1
 1141 57 l 1
887 84 m 1
 721 141 594 274 541 438 c 1
 262 438 l 2
 237 438 205 458 205 489 c 2
 207 741 l 2
 207 766 231 792 264 792 c 2
 541 792 l 1
 596 956 723 1088 887 1145 c 1
 887 1433 l 2
 887 1456 907 1485 942 1485 c 2
 1196 1485 l 2
 1227 1485 1251 1462 1251 1433 c 2
 1251 1145 l 1
 1417 1088 1547 956 1602 792 c 1
 1878 792 l 2
 1911 792 1935 766 1935 741 c 2
 1937 489 l 2
 1937 458 1905 438 1880 438 c 2
 1602 438 l 1
 1547 272 1417 141 1251 84 c 1
 1251 -205 l 2
 1251 -234 1227 -256 1196 -256 c 2
 942 -256 l 2
 907 -256 887 -228 887 -205 c 2
 887 84 l 1
999 1171 m 1
 1022 1173 1046 1175 1071 1175 c 0
 1094 1175 1118 1173 1141 1171 c 1
 1141 1382 l 1
 999 1382 l 1
 999 1171 l 1
516 540 m 1
 512 565 512 589 512 614 c 0
 512 639 512 665 516 690 c 1
 319 690 l 1
 317 540 l 1
 516 540 l 1
1624 690 m 1
 1628 665 1630 639 1630 614 c 0
 1630 589 1628 565 1624 540 c 1
 1825 540 l 1
 1823 690 l 1
 1624 690 l 1
EndSplineSet
EndChar
StartChar: uniE0F1
Encoding: 57585 57585 49
Width: 2080
VWidth: -205
Flags: HW
HStem: 55 100<952 1008 1079 1134> 459 61<205 494 1595 1876> 583 61<207 488 1599 1870> 710 61<207 494 1595 1874> 1073 100<952 1008 1079 1134>
VStem: 485 113<521 583 645 709> 881 70<-238 61 1167 1462> 1008 74<-238 55 1173 1462> 1135 70<-238 59 1169 1462> 1491 111<521 583 645 709>
LayerCount: 3
Back
SplineSet
1069.06 -205 m 25
 1068.65 104.248 l 1049
1871.87 614.2 m 25
 1570.98 614.2 l 1049
1069.06 1433.4 m 25
 1068.65 1124.15 l 1049
262.144 614.2 m 25
 566.312 614.2 l 1049
1558.35 740.496 m 25
 1876.95 740.965 l 1041
1878.43 489.758 m 9
 1557.8 489.271 l 1049
579.762 740.496 m 25
 261.161 740.965 l 1041
259.681 489.758 m 9
 580.312 489.271 l 1049
1193.98 1109.82 m 25
 1193.98 1433.4 l 1041
940.032 1433.4 m 9
 942.08 1111.86 l 1049
1193.98 118.584 m 25
 1193.98 -205 l 1041
940.032 -205 m 9
 942.08 116.536 l 1049
566.312 614.2 m 0
 566.312 895.689 791.357 1124.15 1068.65 1124.15 c 0
 1345.93 1124.15 1570.98 895.689 1570.98 614.2 c 0
 1570.98 332.707 1345.93 104.248 1068.65 104.248 c 0
 791.357 104.248 566.312 332.707 566.312 614.2 c 0
EndSplineSet
Fore
SplineSet
1008 1462 m 1
 1081 1462 l 1
 1079 1173 l 1
 1097 1171 1117 1171 1135 1169 c 1
 1135 1462 l 1
 1204 1462 l 1
 1204 1153 l 1
 1386 1098 1528 952 1581 772 c 1
 1874 772 l 1
 1876 710 l 1
 1595 710 l 1
 1599 690 1600 668 1602 645 c 1
 1870 645 l 1
 1870 583 l 1
 1602 583 l 1
 1600 563 1599 540 1595 520 c 1
 1876 520 l 1
 1876 459 l 1
 1581 459 l 1
 1530 277 1386 131 1204 76 c 1
 1204 -238 l 1
 1135 -238 l 1
 1135 59 l 1
 1117 57 1097 57 1079 55 c 1
 1081 -238 l 1
 1008 -238 l 1
 1008 55 l 1
 990 57 970 59 952 61 c 1
 950 -238 l 1
 881 -238 l 1
 881 78 l 1
 699 133 559 279 508 459 c 1
 205 459 l 1
 205 520 l 1
 494 520 l 1
 490 540 487 563 485 583 c 1
 207 583 l 1
 207 645 l 1
 485 645 l 1
 487 668 490 690 494 710 c 1
 205 710 l 1
 207 772 l 1
 508 772 l 1
 561 952 699 1096 881 1151 c 1
 881 1462 l 1
 950 1462 l 1
 952 1167 l 1
 970 1169 990 1171 1008 1173 c 1
 1008 1462 l 1
598 614 m 0
 598 356 802 155 1044 155 c 0
 1286 155 1491 356 1491 614 c 0
 1491 872 1286 1073 1044 1073 c 0
 802 1073 598 872 598 614 c 0
EndSplineSet
EndChar
StartChar: uniE0F2
Encoding: 57586 57586 50
Width: 1716
VWidth: -205
Flags: HW
VStem: 205 111<398 830> 797 113<74 535 693 1155> 1401 111<396 833>
LayerCount: 3
Back
SplineSet
782.336 -4.2959 m 4
 782.336 37.5322 813.99 71.4805 852.992 71.4805 c 4
 891.994 71.4805 923.648 37.5322 923.648 -4.2959 c 4
 923.648 -46.124 891.994 -80.0723 852.992 -80.0723 c 4
 813.99 -80.0723 782.336 -46.124 782.336 -4.2959 c 4
782.336 1232.7 m 4
 782.336 1274.52 813.99 1308.47 852.992 1308.47 c 4
 891.994 1308.47 923.648 1274.52 923.648 1232.7 c 4
 923.648 1190.87 891.994 1156.92 852.992 1156.92 c 4
 813.99 1156.92 782.336 1190.87 782.336 1232.7 c 4
851.968 -4.2959 m 29
 854.016 1232.7 l 1053
783.104 614.542 m 4
 783.104 656.37 814.758 690.318 853.76 690.318 c 4
 892.762 690.318 924.416 656.37 924.416 614.542 c 4
 924.416 572.714 892.762 538.766 853.76 538.766 c 4
 814.758 538.766 783.104 572.714 783.104 614.542 c 4
260.096 614.2 m 4
 260.096 953.35 528.007 1228.6 858.112 1228.6 c 4
 1188.22 1228.6 1456.13 953.35 1456.13 614.2 c 4
 1456.13 275.051 1188.22 -0.200195 858.112 -0.200195 c 4
 528.007 -0.200195 260.096 275.051 260.096 614.2 c 4
EndSplineSet
Fore
SplineSet
909 729 m 1
 954 706 981 661 981 614 c 0
 981 567 954 523 909 500 c 1
 909 110 l 1
 932 100 951 81 963 61 c 1
 1209 110 1401 335 1401 614 c 0
 1401 893 1209 1118 963 1167 c 1
 951 1147 932 1128 909 1118 c 1
 909 729 l 1
797 729 m 1
 797 1118 l 1
 774 1128 757 1145 745 1165 c 1
 503 1112 315 888 315 614 c 0
 315 340 503 116 745 63 c 1
 757 81 777 100 797 110 c 1
 797 502 l 1
 754 525 727 569 727 614 c 0
 727 659 752 706 797 729 c 1
975 1270 m 1
 1284 1215 1511 938 1511 614 c 0
 1511 290 1284 14 975 -41 c 1
 961 -90 915 -131 852 -131 c 0
 789 -131 745 -88 731 -39 c 1
 426 22 205 295 205 614 c 0
 205 933 428 1207 731 1268 c 1
 745 1317 789 1360 852 1360 c 0
 915 1360 961 1319 975 1270 c 1
EndSplineSet
EndChar
StartChar: uniE0F3
Encoding: 57587 57587 52
Width: 1718
VWidth: -205
Flags: HW
VStem: 1401 113<398 831>
LayerCount: 3
Back
SplineSet
782.336 -2.24805 m 29
 1439.74 726.84 l 1053
583.68 59.1924 m 29
 1363.97 921.4 l 1053
913.408 1230.65 m 29
 256 501.561 l 1053
1112.06 1169.21 m 29
 331.776 307 l 1053
1253.38 1048.38 m 29
 438.272 167.736 l 1053
921.6 -2.24805 m 29
 264.192 726.84 l 1053
1120.26 59.1924 m 29
 339.968 921.4 l 1053
790.528 1230.65 m 29
 1447.94 501.561 l 1053
591.872 1169.21 m 29
 1372.16 307 l 1053
450.56 1048.38 m 29
 1265.66 167.736 l 1053
260.096 614.2 m 4
 260.096 953.35 528.007 1228.6 858.112 1228.6 c 4
 1188.22 1228.6 1456.13 953.35 1456.13 614.2 c 4
 1456.13 275.051 1188.22 -0.200195 858.112 -0.200195 c 4
 528.007 -0.200195 260.096 275.051 260.096 614.2 c 4
EndSplineSet
Fore
SplineSet
812 -21 m 1
 755 17 l 1
 1412 746 l 1
 1469 708 l 1
 812 -21 l 1
613 40 m 1
 556 78 l 1
 1337 940 l 1
 1393 903 l 1
 613 40 l 1
886 1249 m 1
 943 1212 l 1
 285 483 l 1
 229 520 l 1
 886 1249 l 1
1085 1188 m 1
 1141 1150 l 1
 361 288 l 1
 304 326 l 1
 1085 1188 l 1
1226 1067 m 1
 1282 1029 l 1
 467 149 l 1
 411 187 l 1
 1226 1067 l 1
951 17 m 1
 894 -21 l 1
 237 708 l 1
 294 746 l 1
 951 17 l 1
1150 78 m 1
 1093 40 l 1
 313 903 l 1
 369 940 l 1
 1150 78 l 1
763 1212 m 1
 820 1249 l 1
 1477 520 l 1
 1421 483 l 1
 763 1212 l 1
565 1150 m 1
 621 1188 l 1
 1402 326 l 1
 1345 288 l 1
 565 1150 l 1
424 1029 m 1
 480 1067 l 1
 1295 187 l 1
 1239 149 l 1
 424 1029 l 1
317 614 m 0
 317 298 566 51 859 51 c 0
 1152 51 1401 298 1401 614 c 0
 1401 930 1152 1177 859 1177 c 0
 566 1177 317 930 317 614 c 0
205 614 m 0
 205 976 492 1280 859 1280 c 0
 1226 1280 1513 976 1513 614 c 0
 1513 252 1226 -51 859 -51 c 0
 492 -51 205 252 205 614 c 0
EndSplineSet
EndChar
StartChar: uniE0F5
Encoding: 57589 57589 53
Width: 1716
VWidth: -205
Flags: HMW
LayerCount: 3
Back
SplineSet
783.104 614.542 m 4
 783.104 656.37 814.758 690.318 853.76 690.318 c 4
 892.762 690.318 924.416 656.37 924.416 614.542 c 4
 924.416 572.714 892.762 538.766 853.76 538.766 c 4
 814.758 538.766 783.104 572.714 783.104 614.542 c 4
260.096 614.2 m 0
 260.096 953.35 528.007 1228.6 858.112 1228.6 c 0
 1188.22 1228.6 1456.13 953.35 1456.13 614.2 c 0
 1456.13 275.051 1188.22 -0.200195 858.112 -0.200195 c 0
 528.007 -0.200195 260.096 275.051 260.096 614.2 c 0
EndSplineSet
Fore
SplineSet
205 614 m 0
 205 976 491 1280 858 1280 c 0
 1225 1280 1511 976 1511 614 c 0
 1511 252 1225 -51 858 -51 c 0
 491 -51 205 252 205 614 c 0
315 614 m 0
 315 299 565 51 858 51 c 0
 1151 51 1401 299 1401 614 c 0
 1401 929 1151 1177 858 1177 c 0
 565 1177 315 929 315 614 c 0
727 614 m 4
 727 677 776 741 854 741 c 4
 932 741 981 677 981 614 c 4
 981 551 932 487 854 487 c 4
 776 487 727 551 727 614 c 4
EndSplineSet
EndChar
StartChar: uniE0FB
Encoding: 57595 57595 298
Width: 1411
VWidth: 0
Flags: HW
LayerCount: 3
Back
SplineSet
959.4 812.89 m 25
 315.6 132.957 l 1049
391.56 824.915 m 25
 974.84 110.692 l 1049
337 1267 m 25
 657 1432 l 25
 657 977.633 l 1049
212.36 488.215 m 0
 212.36 758.777 410.6 977.633 657 977.633 c 0
 903.4 977.633 1102.76 758.777 1102.76 488.215 c 0
 1102.76 217.652 1041.16 0 657 0 c 0
 265 0 212.36 217.652 212.36 488.215 c 0
EndSplineSet
Fore
SplineSet
412 1224 m 1
 358 1310 l 1
 678 1475 l 2
 687 1479 697 1481 706 1481 c 0
 725 1481 743 1473 753 1457 c 0
 758 1449 760 1438 760 1432 c 2
 760 1025 l 1
 1018 995 1206 759 1206 488 c 0
 1206 212 1130 -50 705 -50 c 0
 272 -50 205 213 205 488 c 0
 205 759 392 994 650 1024 c 1
 650 1346 l 1
 412 1224 l 1
959 105 m 1
 705 416 l 1
 425 121 l 1
 483 75 571 50 705 50 c 0
 820 50 901 69 959 105 c 1
411 776 m 1
 352 700 315 600 315 488 c 0
 315 374 322 277 358 204 c 1
 637 499 l 1
 411 776 l 1
1035 179 m 1
 1084 255 1096 361 1096 488 c 0
 1096 587 1067 677 1019 749 c 1
 778 494 l 1
 1035 179 l 1
486 852 m 1
 711 576 l 1
 951 830 l 1
 883 892 796 928 705 928 c 0
 625 928 549 900 486 852 c 1
EndSplineSet
EndChar
StartChar: uniE101
Encoding: 57601 57601 64
Width: 1632
VWidth: -205
Flags: HW
VStem: 207 113<81 466> 424 112<82 319> 1315 113<231 563>
LayerCount: 3
Back
SplineSet
310.108 78.6484 m 17
 279.212 659.082 502.833 564.678 622.879 766.776 c 1
 621.291 874.78 522.496 1006.69 636.479 1086.26 c 1
 759.712 1153.08 855.684 973.95 962.847 895.8 c 1
 1294.34 872.25 1395.34 580.658 1418.4 391.992 c 1
 1418.4 232.248 1280.58 43.375 1190.62 -65.7363 c 1025
1017.24 41.7842 m 1
 1109.29 156.72 1204.22 269.112 1211.02 404.28 c 1
 1197.42 625.464 983.245 723.768 833.659 656.184 c 1
 582.083 453.432 548.086 318.264 527.688 78.6484 c 1033
EndSplineSet
Fore
SplineSet
319 81 m 1
 207 76 l 1
 176 653 424 636 519 779 c 1
 511 852 407 1024 555 1127 c 0
 557 1128 559 1129 560 1130 c 0
 733 1224 871 1001 939 945 c 1
 1303 907 1404 587 1427 398 c 0
 1427 396 1427 393 1427 392 c 0
 1427 208 1279 14 1188 -96 c 1
 1098 -35 l 1
 1186 72 1313 253 1315 389 c 1
 1292 573 1197 825 911 845 c 0
 902 846 889 850 880 856 c 0
 737 961 687 1076 621 1044 c 1
 552 992 630 916 632 767 c 0
 632 759 630 750 625 742 c 0
 478 495 289 652 319 81 c 1
1016 12 m 1
 924 72 l 1
 1017 188 1100 292 1107 404 c 1
 1104 442 1096 472 1083 499 c 0
 1030 611 905 648 818 613 c 1
 580 419 557 309 537 75 c 1
 424 83 l 1
 445 327 488 484 749 694 c 0
 752 696 757 700 761 702 c 0
 909 769 1097 706 1179 555 c 0
 1202 512 1217 462 1220 407 c 0
 1220 406 1220 404 1220 402 c 0
 1212 246 1106 125 1016 12 c 1
EndSplineSet
EndChar
StartChar: uniE110
Encoding: 57616 57616 73
Width: 1261
VWidth: -205
Flags: HW
HStem: -51 102<317 358 457 608 709 942> 102 61<348 414 582 668 840 942> 313 61<348 422 596 649 817 913> 547 61<342 449 621 696 872 911> 729 61<317 379 547 662 836 911> 942 59<317 322 496 616 786 909> 1102 61<449 514 688 799> 1184 102<317 371 473 610 713 891>
VStem: 205 113<53 104 225 315 436 549 676 731 792 852 938 942 1003 1055 1165 1186> 942 113<51 102 164 252 375 485 608 667 790 882 1001 1102>
LayerCount: 3
Back
SplineSet
352.256 1052.47 m 29
 573.44 1234.74 l 1053
352.256 847.67 m 29
 811.008 1234.74 l 1053
1089.54 1234.74 m 29
 347.47 578.691 l 21
 347.47 578.691 839.451 576.916 1085.44 577.336 c 13
 442.368 3.89648 l 1053
1089.54 1132.34 m 1053
1089.54 1132.34 m 21
 351.565 1133.7 l 1037
347.47 971.91 m 21
 1085.44 970.55 l 13
 351.565 345.22 l 21
 1089.54 343.864 l 13
 696.32 5.94434 l 1053
351.565 760.964 m 21
 1089.54 759.608 l 13
 351.565 134.275 l 21
 1089.54 132.92 l 1029
350.227 3.01367 m 13
 351.565 1236.1 l 21
 1089.54 1234.74 l 13
 1088.2 1.65723 l 21
 842.205 -3.00488 596.216 2.63672 350.227 3.01367 c 13
EndSplineSet
Fore
SplineSet
205 4 m 2
 205 1237 l 2
 205 1268 237 1288 262 1288 c 2
 999 1286 l 2
 1032 1286 1057 1260 1057 1235 c 2
 1055 2 l 2
 1055 -25 1030 -49 999 -49 c 0
 937 -50 876 -51 814 -51 c 0
 629 -51 444 -47 260 -47 c 0
 227 -47 205 -21 205 4 c 2
317 731 m 1
 317 676 l 1
 379 731 l 1
 317 731 l 1
317 225 m 1
 422 315 l 1
 317 315 l 1
 317 225 l 1
942 102 m 1
 770 102 l 1
 709 51 l 1
 787 51 864 51 942 51 c 1
 942 102 l 1
317 104 m 1
 317 53 l 1
 331 53 344 53 358 53 c 1
 414 104 l 1
 317 104 l 1
942 164 m 1
 942 252 l 1
 840 164 l 1
 942 164 l 1
942 667 m 1
 872 608 l 1
 942 608 l 1
 942 667 l 1
942 790 m 1
 942 882 l 1
 836 790 l 1
 942 790 l 1
317 792 m 1
 449 790 l 1
 616 940 l 1
 424 942 l 1
 317 852 l 1
 317 792 l 1
317 942 m 1
 317 938 l 1
 322 942 l 1
 317 942 l 1
733 790 m 1
 909 940 l 1
 717 940 l 1
 547 790 l 1
 733 790 l 1
662 729 m 1
 479 729 l 1
 342 610 l 1
 389 610 450 608 520 608 c 1
 662 729 l 1
317 436 m 1
 449 547 l 1
 398 547 350 549 317 549 c 1
 317 436 l 1
524 313 m 1
 348 166 l 1
 483 164 l 1
 649 313 l 1
 608 313 565 313 524 313 c 1
739 164 m 1
 913 313 l 1
 750 313 l 1
 582 164 l 1
 739 164 l 1
668 102 m 1
 514 102 l 1
 457 53 l 1
 508 53 557 51 608 51 c 1
 668 102 l 1
596 375 m 1
 719 375 l 1
 911 547 l 1
 876 547 838 547 799 547 c 1
 596 375 l 1
496 375 m 1
 696 547 l 1
 647 547 596 547 549 547 c 1
 348 377 l 1
 496 375 l 1
942 375 m 1
 942 485 l 1
 817 375 l 1
 942 375 l 1
764 729 m 1
 621 608 l 1
 670 608 721 608 770 608 c 1
 911 729 l 1
 764 729 l 1
942 1001 m 1
 942 1102 l 1
 899 1102 l 1
 786 1001 l 1
 942 1001 l 1
317 1003 m 1
 395 1003 l 1
 514 1102 l 1
 375 1104 l 1
 317 1055 l 1
 317 1003 l 1
317 1165 m 1
 346 1165 l 1
 371 1186 l 1
 317 1186 l 1
 317 1165 l 1
799 1102 m 1
 614 1102 l 1
 496 1001 l 1
 686 1001 l 1
 799 1102 l 1
868 1163 m 1
 891 1184 l 1
 713 1184 l 1
 688 1163 l 1
 868 1163 l 1
586 1163 m 1
 610 1184 l 1
 473 1184 l 1
 449 1163 l 1
 586 1163 l 1
EndSplineSet
EndChar
StartChar: uniE111
Encoding: 57617 57617 382
Width: 1261
VWidth: -205
Flags: HW
LayerCount: 3
Back
SplineSet
360 0 m 29
 999 335 l 29
 261 675 l 5
 999 1041 l 29
 641 1232 l 5
 264 1041 l 29
 1001 673 l 5
 265 335 l 29
 482 199 865 -0 865 -0 c 1053
1000 1235 m 1053
260 1 m 13
 262 1236 l 21
 1000 1235 l 13
 998 1 l 21
 260 1 l 13
EndSplineSet
Fore
SplineSet
1000 1235 m 1025
205 1.0732421875 m 2
 207 1236.07324219 l 2
 207.048828125 1266.33789062 238.474609375 1286.03125 262.08203125 1286 c 2
 1000.08203125 1285 l 2
 1031.32617188 1284.95800781 1055.04101562 1259.97363281 1055 1234.92675781 c 2
 1054.10883801 685.079376377 l 2
 1056.34138022 676.965774596 1056.40665306 668.359550722 1054.06839201 660.124170702 c 2
 1053.54972485 340.106279479 l 2
 1053.88249567 336.889229281 1053.8731913 333.655855987 1053.53408315 330.45534614 c 2
 1053 0.92578125 l 2
 1052.95410156 -27.5048828125 1025.40527344 -49 998 -49 c 2
 260 -49 l 2
 226.734375 -49 205 -20.5224609375 205 1.0732421875 c 2
630.338867188 915.124023438 m 1
 634.41015625 917.143554688 l 1
 887.357421875 1042.58886719 l 1
 640.293945312 1174.40234375 l 1
 377.609375 1041.31738281 l 1
 625.637695312 917.471679688 l 1
 630.338867188 915.124023438 l 1
632.544921875 447.7734375 m 1
 621.177734375 442.552734375 l 1
 373.815429688 328.954101562 l 1
 451.305664062 282.975585938 535.357421875 235.744140625 615.533203125 191.68359375 c 1
 883.490234375 332.162109375 l 1
 643.956054688 442.516601562 l 1
 632.544921875 447.7734375 l 1
632.624023438 559.844726562 m 1
 643.928710938 565.036132812 l 1
 883.048828125 674.849609375 l 1
 634.098632812 799.15625 l 1
 630.159179688 801.123046875 l 1
 625.58984375 798.856445312 l 1
 379.1328125 676.629882812 l 1
 621.3984375 565.016601562 l 1
 632.624023438 559.844726562 l 1
943.400530888 248.133451453 m 1
 723.610351562 132.907226562 l 1
 795.27374919 94.3184750138 852.246788211 64.351249146 877.753453385 51 c 1
 943.081054688 51 l 1
 943.400530888 248.133451453 l 1
943.67345703 416.543092764 m 1
 943.955835915 590.785569168 l 1
 754.409179688 503.73828125 l 1
 943.67345703 416.543092764 l 1
944.227462039 758.393031889 m 1
 944.549390559 957.039692353 l 1
 744.794921875 857.974609375 l 1
 944.227462039 758.393031889 l 1
944.82625081 1127.87688373 m 1
 944.918945312 1185.07421875 l 1
 837.34558597 1185.21992 l 1
 944.82625081 1127.87688373 l 1
436.753674134 1185.76249619 m 1
 316.918945312 1185.92480469 l 1
 316.820284324 1125.00017636 l 1
 436.753674134 1185.76249619 l 1
316.549383499 957.714886562 m 1
 316.228145746 759.345794811 l 1
 515.704101562 858.272460938 l 1
 316.549383499 957.714886562 l 1
315.959779865 593.625870834 m 1
 315.669359045 414.286693237 l 1
 510.760742188 503.879882812 l 1
 315.959779865 593.625870834 l 1
315.393919664 244.198777584 m 1
 315.081054688 51 l 1
 347.185248327 51 l 1
 506.861328125 134.7109375 l 1
 442.309191332 170.591409677 375.985570806 208.259980264 315.393919664 244.198777584 c 1
567.375761819 51 m 1
 659.887202818 51 l 1
 645.233327428 58.9011532927 630.016161509 67.1358890343 614.373046875 75.638671875 c 1
 567.375761819 51 l 1
EndSplineSet
EndChar
StartChar: uniE116
Encoding: 57622 57622 396
Width: 1261
VWidth: -205
Flags: HMW
LayerCount: 3
Back
SplineSet
850 0 m 21
 850 1234.74023438 l 1029
595 1234.74023438 m 5
 595 0 l 1029
1088 927 m 21
 350.025390625 928.360351562 l 1029
350 303 m 21
 1087.97460938 301.639648438 l 1037
1089.54003906 615.33984375 m 21
 351.565429688 616.700195312 l 1029
350.2265625 0.013671875 m 13
 351.565 1236.1 l 21
 1089.54 1234.74 l 13
 1088.20019531 0.6572265625 l 21
 350.2265625 0.013671875 l 13
EndSplineSet
Fore
SplineSet
295.2265625 0.0625 m 2
 296.565429688 1236.14941406 l 2
 296.598632812 1266.39746094 327.96484375 1286.14355469 351.676757812 1286.09960938 c 2
 1089.65136719 1284.74023438 l 2
 1120.91601562 1284.68261719 1144.56738281 1259.64355469 1144.54003906 1234.69042969 c 2
 1143.20019531 0.607421875 l 2
 1143.16894531 -27.83203125 1115.61035156 -49.3193359375 1088.25292969 -49.3427734375 c 2
 350.279296875 -49.986328125 l 2
 317.022460938 -50.015625 295.2265625 -21.5771484375 295.2265625 0.0625 c 2
1033.9218834 665.442573152 m 1
 1034.15149852 877.09905686 l 1
 905 877.337129337 l 1
 905 665.680222366 l 1
 1033.9218834 665.442573152 l 1
405.94856614 666.600152928 m 1
 540 666.353048116 l 1
 540 878.009955087 l 1
 406.177654444 878.256637608 l 1
 405.94856614 666.600152928 l 1
1033.81339837 565.442362694 m 1
 905 565.67981193 l 1
 905 351.977141405 l 1
 1033.58156391 351.740119523 l 1
 1033.81339837 565.442362694 l 1
405.840330011 566.599942011 m 1
 405.609027462 352.89769786 l 1
 540 352.649967156 l 1
 540 566.352637681 l 1
 405.840330011 566.599942011 l 1
1033.47307888 251.739909064 m 1
 905 251.97673097 l 1
 905 50.497483936 l 1
 1033.25488281 50.609375 l 1
 1033.47307888 251.739909064 l 1
405.500791333 252.897486942 m 1
 405.28125 50.0615234375 l 1
 540 50.1790536551 l 1
 540 252.649556721 l 1
 405.500791333 252.897486942 l 1
1034.25998355 977.099267319 m 1
 1034.48535156 1184.84082031 l 1
 905 1185.07963624 l 1
 905 977.337539772 l 1
 1034.25998355 977.099267319 l 1
406.285890573 978.256848525 m 1
 540 978.010365522 l 1
 540 1185.75282292 l 1
 406.510742188 1185.99902344 l 1
 406.285890573 978.256848525 l 1
650 877.807185683 m 1
 650 666.150278712 l 1
 795 665.88299177 l 1
 795 877.539898741 l 1
 650 877.807185683 l 1
650 977.807596118 m 1
 795 977.540309176 l 1
 795 1185.28251442 l 1
 650 1185.54994474 l 1
 650 977.807596118 l 1
650 352.447197752 m 1
 795 352.17991081 l 1
 795 565.882581335 l 1
 650 566.149868277 l 1
 650 352.447197752 l 1
650 252.446787316 m 1
 650 50.2750189452 l 1
 795 50.4015186458 l 1
 795 252.179500374 l 1
 650 252.446787316 l 1
EndSplineSet
EndChar
StartChar: uniE117
Encoding: 57623 57623 108
Width: 1210
VWidth: -205
Flags: HW
HStem: -51 102<319 891> 563 102<319 379 494 674 786 891> 846 102<494 676>
VStem: 207 113<51 563> 379 115<665 846> 674 113<665 844> 891 115<51 563>
LayerCount: 3
Back
SplineSet
950.271 958.26 m 25
 1132.54 1171.26 l 1049
847.872 991.03 m 25
 872.448 1212.22 l 1049
716.8 982.84 m 25
 692.224 1216.31 l 1049
602.112 966.46 m 25
 432.128 1158.97 l 1049
927.744 618.296 m 25
 931.84 894.78 l 25
 634.88 896.82 l 25
 634.88 614.2 l 1049
462.848 -0.200195 m 25
 1146.88 -0.200195 l 25
 1146.88 614.2 l 25
 460.8 614.2 l 25
 462.848 -0.200195 l 25
EndSplineSet
Fore
SplineSet
319 51 m 1
 891 51 l 1
 891 563 l 1
 319 563 l 1
 319 51 l 1
264 -51 m 2
 235 -51 207 -29 207 0 c 2
 207 614 l 2
 207 637 227 665 262 665 c 2
 379 665 l 1
 379 897 l 2
 379 920 401 948 436 948 c 2
 733 946 l 2
 758 946 788 926 788 895 c 2
 786 665 l 1
 948 665 l 2
 979 665 1006 643 1006 614 c 2
 1006 0 l 2
 1006 -29 979 -51 948 -51 c 2
 264 -51 l 2
432 985 m 1
 375 948 l 1
 205 1141 l 1
 262 1177 l 1
 432 985 l 1
553 985 m 1
 483 981 l 1
 459 1214 l 1
 528 1218 l 1
 553 985 l 1
684 989 m 1
 614 993 l 1
 639 1214 l 1
 709 1210 l 1
 684 989 l 1
780 940 m 1
 723 977 l 1
 905 1190 l 1
 963 1153 l 1
 780 940 l 1
494 665 m 1
 674 665 l 1
 676 844 l 1
 494 846 l 1
 494 665 l 1
EndSplineSet
EndChar
StartChar: uniE118
Encoding: 57624 57624 140
Width: 1696
VWidth: -205
Flags: HW
HStem: -51 102<315 1380> 336 104<315 635 748 1032 1147 1380> 563 102<315 633 745 1032 1147 1380> 799 102<743 1032 1147 1380>
VStem: 205 111<51 336 438 561 663 1235> 633 113<440 563 665 796 899 1081> 1032 115<442 563 667 799 901 1081> 1380 111<51 340 442 565 667 801 903 1235>
LayerCount: 3
Back
SplineSet
1089.54 1081.14 m 25
 1089.54 388.92 l 1049
684.032 1081.14 m 25
 692.224 388.92 l 1049
686.08 847.67 m 25
 1431.55 851.77 l 1049
262.144 612.152 m 25
 1433.6 616.248 l 1049
260.096 386.872 m 25
 1431.55 390.968 l 1049
1435.65 1234.74 m 1
 1435.65 -0.200195 l 1
 260.096 -0.200195 l 1
 260.096 1234.74 l 1025
EndSplineSet
Fore
SplineSet
1380 1235 m 1
 1491 1235 l 1
 1491 0 l 2
 1491 -29 1467 -51 1436 -51 c 2
 260 -51 l 2
 229 -51 205 -29 205 0 c 2
 205 1235 l 1
 315 1235 l 1
 315 663 l 1
 633 665 l 1
 629 1081 l 1
 739 1081 l 1
 743 899 l 1
 1032 901 l 1
 1032 1081 l 1
 1147 1081 l 1
 1147 901 l 1
 1380 903 l 1
 1380 1235 l 1
315 336 m 1
 315 51 l 1
 1380 51 l 1
 1380 340 l 1
 315 336 l 1
315 438 m 1
 635 440 l 1
 633 563 l 1
 527 563 421 561 315 561 c 1
 315 438 l 1
1380 442 m 1
 1380 565 l 1
 1147 565 l 1
 1147 442 l 1
 1380 442 l 1
1380 667 m 1
 1380 801 l 1
 1147 799 l 1
 1147 667 l 1
 1380 667 l 1
743 796 m 1
 745 665 l 1
 1032 665 l 1
 1032 799 l 1
 743 796 l 1
745 563 m 1
 748 440 l 1
 1032 440 l 1
 1032 563 l 1
 745 563 l 1
EndSplineSet
EndChar
StartChar: uniE120
Encoding: 57632 57632 78
Width: 1695
VWidth: -205
Flags: HW
HStem: -51 102<315 1380> 1184 102<315 1380>
VStem: 205 111<51 1184> 1380 111<51 1184>
LayerCount: 3
Back
SplineSet
555.008 966.46 m 25
 1175.55 268.088 l 1049
1181.7 966.46 m 25
 561.152 268.088 l 1049
260.096 1234.74 m 5
 1435.65 1234.74 l 5
 1435.65 -0.200195 l 5
 260.096 -0.200195 l 5
 260.096 1234.74 l 5
EndSplineSet
Fore
SplineSet
260 1286 m 2
 1436 1286 l 2
 1467 1286 1491 1264 1491 1235 c 2
 1491 0 l 2
 1491 -29 1467 -51 1436 -51 c 2
 260 -51 l 2
 229 -51 205 -29 205 0 c 2
 205 1235 l 2
 205 1264 229 1286 260 1286 c 2
315 1184 m 1
 315 51 l 1
 1380 51 l 1
 1380 1184 l 1
 315 1184 l 1
1139 999 m 1
 1225 934 l 1
 940 614 l 1
 1219 301 l 1
 1133 235 l 1
 868 532 l 1
 604 235 l 1
 518 301 l 1
 797 614 l 1
 512 934 l 1
 598 999 l 1
 868 696 l 1
 1139 999 l 1
EndSplineSet
EndChar
StartChar: uniE121
Encoding: 57633 57633 89
Width: 1837
VWidth: -205
Flags: HW
HStem: -51 102<457 1382> 563 102<385 795 1044 1450> 1184 102<453 1386>
VStem: 274 111<133 563 665 1098> 1450 111<137 563 665 1093>
LayerCount: 3
Back
SplineSet
1434.62 -2.24805 m 4
 1434.62 39.5801 1466.28 73.5283 1505.28 73.5283 c 4
 1544.28 73.5283 1575.94 39.5801 1575.94 -2.24805 c 4
 1575.94 -44.0762 1544.28 -78.0244 1505.28 -78.0244 c 4
 1466.28 -78.0244 1434.62 -44.0762 1434.62 -2.24805 c 4
260.864 0.141602 m 4
 260.864 41.9707 292.518 75.918 331.52 75.918 c 4
 370.522 75.918 402.176 41.9707 402.176 0.141602 c 4
 402.176 -41.6855 370.522 -75.6338 331.52 -75.6338 c 4
 292.518 -75.6338 260.864 -41.6855 260.864 0.141602 c 4
333.824 -0.200195 m 29
 1509.38 1234.74 l 1053
1505.28 -0.200195 m 29
 329.729 1234.74 l 1053
333.824 614.2 m 29
 1503.23 614.2 l 1053
329.729 1234.74 m 5
 1505.28 1234.74 l 5
 1505.28 -0.200195 l 5
 329.729 -0.200195 l 5
 329.729 1234.74 l 5
EndSplineSet
Fore
SplineSet
330 1286 m 2
 1505 1286 l 2
 1536 1286 1561 1264 1561 1235 c 2
 1561 112 l 1
 1606 89 1632 43 1632 -2 c 0
 1632 -65 1583 -129 1505 -129 c 0
 1448 -129 1407 -94 1389 -51 c 1
 446 -51 l 1
 428 -94 387 -127 332 -127 c 0
 254 -127 205 -63 205 0 c 0
 205 45 231 91 274 114 c 1
 274 1235 l 2
 274 1264 299 1286 330 1286 c 2
385 563 m 1
 385 133 l 1
 795 563 l 1
 385 563 l 1
1450 563 m 1
 1044 563 l 1
 1450 137 l 1
 1450 563 l 1
385 665 m 1
 797 665 l 1
 385 1098 l 1
 385 665 l 1
1450 665 m 1
 1450 1093 l 1
 1042 665 l 1
 1450 665 l 1
453 1184 m 1
 920 694 l 1
 1386 1184 l 1
 453 1184 l 1
1382 51 m 1
 920 536 l 1
 457 51 l 1
 1382 51 l 1
EndSplineSet
EndChar
StartChar: uniE128
Encoding: 57640 57640 85
Width: 3119
VWidth: -205
Flags: HW
HStem: 203 102<780 999 1114 1735 1849 2116> 940 102<793 997 1110 1733 1847 2091 2198 2345>
VStem: 997 113<-150 203 307 940 1042 1284> 1737 113<-150 203 307 932 1036 1392>
LayerCount: 3
Back
SplineSet
1053.25 1319.89 m 9
 1053.4 991.53 l 25
 751.938 993.03 l 17
 751.938 993.03 l 9
 555.008 1496.89 l 25
 1053.25 1319.89 l 9
2134.41 991.3 m 25
 2377.17 989.63 l 25
 2695.19 1484.16 l 25
 2183.09 1335.08 l 25
 2134.41 991.3 l 25
2134.02 253.435 m 25
 2487.17 432.043 l 25
 2857.86 184.686 l 25
 2502.57 23.0801 l 25
 2134.02 253.435 l 25
756.609 251.633 m 1
 515.86 425.073 l 25
 262.009 234.423 l 25
 560.009 64.5684 l 25
 756.609 251.633 l 1
2134.41 991.3 m 9
 1789.95 984.12 l 25
 1793.5 1392.08 l 1041
1054.5 -149.146 m 9
 1058.04 256.791 l 25
 756.609 251.633 l 1041
2134.02 253.435 m 9
 1791.57 256.972 l 25
 1796.73 -150.954 l 1041
1792.17 254.616 m 1049
1788.96 983.09 m 25
 1053.4 991.53 l 25
 1055.74 253.597 l 25
 1792.17 254.616 l 25
 1788.96 983.09 l 25
EndSplineSet
Fore
SplineSet
1733 932 m 1
 1110 940 l 1
 1112 305 l 1
 1735 305 l 1
 1733 932 l 1
1110 -150 m 1
 997 -150 l 1
 1001 205 l 1
 780 201 l 1
 600 28 l 2
 590 18 573 14 559 14 c 0
 549 14 538 14 530 20 c 2
 231 190 l 2
 227 192 223 199 219 203 c 0
 211 213 207 221 207 233 c 0
 207 247 211 264 225 274 c 2
 479 465 l 2
 489 473 504 477 516 477 c 0
 528 477 541 473 551 465 c 2
 776 303 l 1
 999 307 l 1
 997 940 l 1
 752 942 l 2
 727 942 704 961 698 977 c 2
 502 1481 l 2
 500 1487 500 1491 500 1497 c 0
 500 1517 514 1538 537 1546 c 0
 543 1548 547 1548 553 1548 c 0
 561 1548 571 1546 575 1544 c 2
 1073 1368 l 2
 1096 1360 1110 1341 1110 1321 c 2
 1110 1042 l 1
 1735 1034 l 1
 1737 1392 l 1
 1849 1392 l 1
 1847 1036 l 1
 2085 1042 l 1
 2099 1142 2114 1241 2128 1341 c 0
 2130 1357 2144 1378 2167 1384 c 2
 2679 1534 l 2
 2691 1538 2710 1536 2724 1528 c 0
 2742 1518 2750 1503 2750 1485 c 0
 2750 1477 2748 1466 2744 1458 c 2
 2425 964 l 2
 2417 950 2398 938 2378 938 c 2
 2136 940 l 1
 1845 934 l 1
 1847 307 l 1
 2120 305 l 1
 2460 477 l 2
 2480 487 2507 483 2521 473 c 2
 2892 225 l 2
 2906 215 2914 200 2914 184 c 0
 2914 174 2912 161 2904 153 c 0
 2898 147 2886 139 2884 139 c 2
 2527 -23 l 2
 2509 -31 2484 -29 2470 -19 c 2
 2116 203 l 1
 1849 205 l 1
 1853 -150 l 1
 1741 -152 l 1
 1737 203 l 1
 1114 203 l 1
 1110 -150 l 1
674 246 m 1
 516 358 l 1
 358 239 l 1
 551 131 l 1
 674 246 l 1
2241 250 m 1
 2507 82 l 1
 2750 192 l 1
 2482 370 l 1
 2241 250 l 1
2198 1042 m 1
 2345 1040 l 1
 2572 1394 l 1
 2234 1296 l 1
 2198 1042 l 1
997 1284 m 1
 649 1409 l 1
 793 1044 l 1
 997 1042 l 1
 997 1284 l 1
EndSplineSet
EndChar
StartChar: uniE129
Encoding: 57641 57641 97
Width: 1669
VWidth: -205
Flags: HW
HStem: 246 102<811 1464> 563 102<205 866> 893 102<811 1464>
VStem: 472 113<244 1018> 1082 113<0 1235>
LayerCount: 3
Back
SplineSet
598.016 243.512 m 29
 598.016 1017.66 l 1053
1533.95 296.76 m 29
 880.64 296.76 l 1053
935.936 614.2 m 29
 274.432 614.2 l 1053
1533.95 943.93 m 29
 880.64 943.93 l 29
 1533.95 943.93 l 29
1208.32 -0.200195 m 29
 1208.32 1234.74 l 1053
EndSplineSet
Fore
SplineSet
585 244 m 1
 472 244 l 1
 472 1018 l 1
 585 1018 l 1
 585 244 l 1
1464 348 m 1
 1464 246 l 1
 811 246 l 1
 811 348 l 1
 1464 348 l 1
866 665 m 1
 866 563 l 1
 205 563 l 1
 205 665 l 1
 866 665 l 1
811 995 m 1
 1464 995 l 1
 1464 893 l 1
 811 893 l 0
 809 893 811 995 811 995 c 1
811 995 m 1
 1464 995 l 1
 1464 893 l 1
 811 893 l 0
 809 893 811 995 811 995 c 1
1195 0 m 1
 1082 0 l 1
 1082 1235 l 1
 1195 1235 l 1
 1195 0 l 1
EndSplineSet
EndChar
StartChar: uniE12A
Encoding: 57642 57642 98
Width: 1599
VWidth: -205
Flags: HW
HStem: 274 102<283 524 637 1049 1161 1395> 1089 102<205 518 631 979>
VStem: 518 113<0 274 377 653 803 1089 1192 1464> 1049 113<0 274 377 653>
LayerCount: 3
Back
SplineSet
259.388 1139.76 m 29
 1033.53 1141.38 l 1053
636.134 -0.864258 m 29
 634.764 652.446 l 1053
630.784 802.62 m 29
 629.396 1464.12 l 1053
1160.42 0.492188 m 29
 1159.05 653.805 l 29
 1160.42 0.492188 l 29
338.491 324.144 m 29
 1450.55 326.734 l 1053
EndSplineSet
Fore
SplineSet
283 272 m 1
 283 375 l 1
 524 377 l 1
 522 653 l 1
 635 653 l 1
 637 377 l 1
 1049 377 l 1
 1047 653 l 2
 1047 653 1063 655 1081 655 c 0
 1114 655 1159 653 1159 653 c 1
 1161 377 l 1
 1395 379 l 1
 1395 276 l 1
 1161 274 l 1
 1161 0 l 1
 1049 0 l 1
 1049 274 l 1
 637 274 l 1
 637 0 l 1
 524 0 l 1
 524 274 l 1
 283 272 l 1
633 803 m 1
 518 803 l 1
 518 1089 l 1
 205 1089 l 1
 205 1192 l 1
 518 1192 l 1
 518 1464 l 1
 631 1464 l 1
 631 1192 l 1
 746 1192 864 1192 979 1192 c 1
 979 1089 l 1
 631 1089 l 1
 633 803 l 1
EndSplineSet
EndChar
StartChar: uniE12C
Encoding: 57644 57644 99
Width: 1761
VWidth: -205
Flags: HW
LayerCount: 3
Back
SplineSet
1396.74 1085.24 m 25
 550.912 5.94434 l 1049
1181.7 1204.02 m 25
 337.92 124.729 l 1049
1519.62 421.688 m 29
 466.944 1234.74 l 1049
1323.01 -0.200195 m 25
 241.664 804.66 l 1049
1415.17 208.696 m 25
 358.4 1007.42 l 1049
EndSplineSet
Fore
SplineSet
1452 248 m 1
 1378 170 l 1
 983 469 l 1
 909 375 l 1
 1358 39 l 1
 1288 -39 l 1
 844 291 l 1
 596 -25 l 1
 506 37 l 1
 756 356 l 1
 649 434 l 1
 383 96 l 1
 293 153 l 1
 561 500 l 1
 207 766 l 1
 276 844 l 1
 627 583 l 1
 702 680 l 1
 322 969 l 1
 395 1046 l 1
 768 764 l 1
 852 870 l 1
 430 1196 l 1
 504 1274 l 1
 918 954 l 1
 1137 1233 l 1
 1227 1175 l 1
 1004 887 l 1
 1108 807 l 1
 1352 1116 l 1
 1442 1055 l 1
 1196 739 l 1
 1556 461 l 1
 1483 383 l 1
 1128 655 l 1
 1049 553 l 1
 1452 248 l 1
938 805 m 1
 856 698 l 1
 961 618 l 1
 1042 723 l 1
 938 805 l 1
715 518 m 1
 821 440 l 1
 895 534 l 1
 791 614 l 1
 715 518 l 1
EndSplineSet
EndChar
StartChar: uniE12D
Encoding: 57645 57645 405
Width: 2072
VWidth: 0
Flags: HW
LayerCount: 3
Back
SplineSet
965.34375 613.780273438 m 4
 965.34375 655.600585938 996.998046875 689.549804688 1036 689.549804688 c 4
 1075.00195312 689.549804688 1106.65625 655.600585938 1106.65625 613.780273438 c 4
 1106.65625 571.950195312 1075.00195312 538 1036 538 c 4
 996.998046875 538 965.34375 571.950195312 965.34375 613.780273438 c 4
1404.93 984.12 m 29
 1408.48 1392.08 l 1053
265.089 251.633 m 29
 669.477 -149.146 l 29
 673.014 256.791 l 29
 265.089 251.633 l 29
1411.7 -150.954 m 29
 1812.48 253.435 l 29
 1406.54 256.972 l 29
 1411.7 -150.954 l 29
260.418 993.03 m 29
 661.197 1397.42 l 1053
260.418 993.03 m 29
 661.197 1397.42 l 29
 668.373 991.53 l 29
 260.418 993.03 l 29
1407.15 254.616 m 1053
1403.94 983.09 m 29
 668.373 991.53 l 29
 670.712 253.597 l 29
 1407.15 254.616 l 29
 1403.94 983.09 l 29
EndSplineSet
Fore
SplineSet
1406.91601562 254.615234375 m 1025
1348.92285156 933.71484375 m 1
 723.299804688 940.892578125 l 1
 725.319335938 303.672851562 l 1
 1351.6953125 304.5390625 l 1
 1348.92285156 933.71484375 l 1
383.319335938 1042.57714844 m 1
 612.244140625 1041.73535156 l 1
 608.216796875 1269.50097656 l 1
 421.749023438 1081.35351562 l 1
 383.319335938 1042.57714844 l 1
1464.84375 -22.3984375 m 1
 1689.71679688 204.5 l 1
 1461.94824219 206.484375 l 1
 1464.84375 -22.3984375 l 1
1452.32714844 -184.422851562 m 2
 1444.96582031 -191.849609375 1430.50195312 -199.595703125 1416.41113281 -200.751953125 c 0
 1384.92480469 -203.3359375 1356.83300781 -180.268554688 1356.46972656 -151.529296875 c 2
 1351.96484375 204.5390625 l 1
 727.317382812 203.67578125 l 1
 724.240234375 -149.541992188 l 2
 724.137695312 -161.34375 718.870117188 -174.069335938 709.486328125 -183.227539062 c 0
 687.936523438 -204.256835938 650.08203125 -204.124023438 628.7109375 -182.944335938 c 2
 224.323242188 217.833984375 l 2
 217.559570312 224.538085938 211.208007812 236.052734375 210.088867188 247.016601562 c 0
 207.170898438 275.634765625 232.477539062 301.228515625 264.08984375 301.627929688 c 2
 615.310546875 306.069335938 l 1
 613.295898438 941.731445312 l 1
 259.9609375 943.030273438 l 2
 228.346679688 943.146484375 202.762695312 968.51171875 205.37109375 997.154296875 c 0
 206.396484375 1008.41308594 214.572265625 1021.70507812 219.322265625 1026.49804688 c 2
 620.1015625 1430.88867188 l 2
 641.263671875 1452.24121094 679.115234375 1452.68066406 700.870117188 1431.82617188 c 0
 710.6484375 1422.453125 715.793945312 1407.3984375 715.956054688 1398.22363281 c 2
 722.272460938 1040.91210938 l 1
 1350.125 1033.70898438 l 1
 1353.24804688 1392.47558594 l 1
 1408.24609375 1392.08007812 l 1
 1463.24414062 1391.68457031 l 1
 1459.69335938 983.724609375 l 2
 1459.36230469 983.724609375 1459.03222656 983.731445312 1458.70117188 983.731445312 c 1
 1458.70117188 983.584960938 1458.70605469 983.438476562 1458.70605469 983.291015625 c 2
 1461.6875 306.4921875 l 1
 1812.7734375 303.432617188 l 2
 1822.03417969 303.3515625 1836.16796875 299.776367188 1845.7421875 293.092773438 c 0
 1870.81738281 275.588867188 1874.26953125 241.319335938 1853.10742188 219.966796875 c 2
 1452.32714844 -184.422851562 l 2
388.368164062 203.189453125 m 1
 615.350585938 -21.767578125 l 1
 617.3359375 206.084960938 l 1
 388.368164062 203.189453125 l 1
910.109375 613.780273438 m 0
 910.109375 676.141601562 958.672851562 739.549804688 1035.765625 739.549804688 c 0
 1112.85058594 739.549804688 1161.421875 676.134765625 1161.421875 613.780273438 c 0
 1161.421875 551.415039062 1112.86328125 488 1035.765625 488 c 0
 958.67578125 488 910.109375 551.422851562 910.109375 613.780273438 c 0
EndSplineSet
EndChar
StartChar: uniE130
Encoding: 57648 57648 103
Width: 1357
VWidth: -205
Flags: HW
HStem: 518 184<219 374 986 1136> 559 102<301 590 784 1057>
LayerCount: 3
Back
SplineSet
1062.2 612.688 m 29
 297.605 609.948 l 1053
1059.65 573.981 m 4
 1079.89 573.918 1096.56 592.123 1096.86 614.618 c 4
 1097.17 637.113 1080.98 655.42 1060.73 655.483 c 4
 1040.49 655.545 1023.81 637.341 1023.51 614.848 c 4
 1023.21 592.35 1039.4 574.047 1059.65 573.981 c 4
1045.19 1.65723 m 13
 325.931 1236.45 l 1045
1066.79 1236.44 m 13
 313.686 1.67383 l 1045
297.062 569.195 m 4
 317.309 569.134 333.981 587.336 334.283 609.832 c 4
 334.582 632.325 318.395 650.634 298.15 650.697 c 4
 277.903 650.763 261.23 632.555 260.93 610.061 c 4
 260.631 587.565 276.818 569.261 297.062 569.195 c 4
EndSplineSet
Fore
SplineSet
297 518 m 0x80
 236 518 205 567 205 610 c 0
 205 651 238 702 299 702 c 0x80
 336 702 361 684 375 661 c 1
 596 661 l 1
 276 1212 l 1
 375 1261 l 1
 688 723 l 1
 1018 1261 l 1
 1116 1212 l 1
 782 663 l 1
 981 663 l 1
 995 688 1024 706 1061 706 c 0
 1122 706 1153 657 1153 614 c 0
 1153 573 1120 522 1059 522 c 0
 1024 522 999 538 985 561 c 1
 784 561 l 1
 1096 26 l 1
 995 -23 l 1
 686 508 l 1
 362 -23 l 1
 264 26 l 1
 590 559 l 1
 375 559 l 1x40
 361 536 334 518 297 518 c 0x80
EndSplineSet
EndChar
StartChar: uniE131
Encoding: 57649 57649 96
Width: 1251
VWidth: -205
Flags: HW
LayerCount: 3
Back
SplineSet
992 164 m 13
 272.931 1072.45 l 1045
1013.79 1070.39 m 13
 261 164 l 1045
EndSplineSet
Fore
SplineSet
958 1101 m 1
 1046 1040 l 1
 692 614 l 1
 1025 193 l 1
 935 135 l 1
 622 530 l 1
 293 134 l 1
 205 194 l 1
 555 615 l 1
 216 1043 l 1
 231 1053 246 1062 261 1072 c 0
 276 1082 291 1092 306 1102 c 1
 625 699 l 1
 958 1101 l 1
EndSplineSet
EndChar
StartChar: uniE132
Encoding: 57650 57650 349
Width: 1660
VWidth: -205
Flags: HW
LayerCount: 3
Back
SplineSet
260 1074 m 21
 830 600 l 1029
830 630 m 5
 1436 126 l 1037
831 1234.74 m 29
 830 0 l 1053
768 615 m 4
 768 583 796 558 830 558 c 4
 864 558 891 583 891 615 c 4
 891 647 864 673 830 673 c 4
 796 673 768 647 768 615 c 4
EndSplineSet
Fore
SplineSet
758 1235 m 1
 868 1235 l 1
 868 710 l 1
 905 691 928 655 928 615 c 0
 928 611 928 606 927 602 c 1
 1455 163 l 1
 1381 89 l 1
 867 516 l 1
 867 0 l 1
 757 0 l 1
 757 520 l 1
 720 538 695 574 695 615 c 0
 695 620 695 624 696 629 c 1
 205 1037 l 1
 217 1049 230 1062 242 1074 c 0
 254 1086 267 1099 279 1111 c 1
 758 713 l 1
 758 1235 l 1
EndSplineSet
EndChar
StartChar: uniE144
Encoding: 57668 57668 110
Width: 1556
VWidth: -205
Flags: HW
HStem: -47 102<414 1143> 166 102<481 1075> 1184 102<406 1151>
VStem: 413 112<284 942> 1031 112<284 941> 1241 111<-2 33>
LayerCount: 3
Back
SplineSet
1232.9 3.89648 m 29
 323.584 3.89648 l 5
 524.641 421.209 510.169 828.35 321.536 1234.74 c 9
 1234.94 1234.74 l 17
 1046.31 828.35 1031.84 421.209 1232.9 3.89648 c 29
EndSplineSet
EndChar
StartChar: uniE147
Encoding: 57671 57671 128
Width: 952
VWidth: -205
Flags: HW
HStem: -49 102<205 635> 346 102<205 635> 792 102<205 633> 1186 102<205 633>
VStem: 205 543<-48 53 346 448 792 895 1186 1286> 635 113<53 346 448 792 895 1186>
LayerCount: 3
Back
SplineSet
260.096 843.58 m 1029
260.096 843.58 m 5
 743.424 843.58 l 1037
260.096 397.112 m 1029
260.096 397.112 m 5
 741.376 397.112 l 1037
260.096 1236.58 m 5
 400.075 1237.39 634.934 1237.71 743.424 1236.79 c 13
 747.52 1.84766 l 21
 260.096 1.84766 l 1029
260.096 1.84766 m 1029
260.096 1236.58 m 1029
EndSplineSet
Fore
SplineSet
205 1186 m 1xf8
 205 1288 l 1
 285 1288 398 1288 498 1288 c 0
 574 1288 641 1288 688 1288 c 0
 721 1288 743 1262 743 1237 c 2
 748 2 l 2
 748 -29 717 -49 692 -49 c 2
 205 -49 l 1
 205 53 l 1xf8
 635 53 l 1
 635 346 l 1xf4
 205 346 l 1
 205 448 l 1xf8
 635 448 l 1xf4
 633 792 l 1
 205 792 l 1
 205 895 l 1
 633 895 l 1
 633 1186 l 1
 594 1186 547 1186 498 1186 c 0
 398 1186 285 1186 205 1186 c 1xf8
EndSplineSet
EndChar
StartChar: uniE148
Encoding: 57672 57672 384
Width: 956
VWidth: -205
Flags: HW
LayerCount: 3
Back
SplineSet
260 616 m 1025
260 616 m 1
 741 616 l 1033
260 1237 m 1
 400 1238 635 1238 743 1237 c 9
 748 2 l 17
 260 2 l 1025
260 2 m 1025
260 1237 m 1025
EndSplineSet
Fore
SplineSet
205 1184 m 1
 215 1290 l 1
 285 1290 378 1291 468 1291 c 0
 558 1291 644 1290 698 1290 c 0
 725 1290 746 1266 746 1242 c 2
 751 7 l 2
 751 -26 719 -51 693 -51 c 2
 205 -51 l 1
 215 55 l 1
 645 55 l 1
 643 563 l 1
 205 563 l 1
 215 669 l 1
 643 669 l 1
 641 1185 l 1
 606 1185 565 1185 521 1185 c 0
 414 1185 291 1185 205 1184 c 1
EndSplineSet
EndChar
StartChar: uniE151
Encoding: 57681 57681 113
Width: 1794
VWidth: -205
Flags: HW
VStem: 205 111<104 1134> 840 113<102 1128> 1475 115<96 1128>
LayerCount: 3
Back
SplineSet
897.024 79.6719 m 4
 1214.6 -209.096 l 5
 1531.9 75.5762 l 5
 1531.9 1148.73 l 5
 1214.6 1437.5 l 5
 897.024 1150.78 l 1028
260.096 83.7676 m 5
 577.669 -205 l 5
 894.976 79.6719 l 5
 897.024 79.6719 897.024 1150.78 894.976 1152.82 c 5
 577.669 1441.59 l 5
 260.096 1154.87 l 5
 260.096 83.7676 l 5
EndSplineSet
Fore
SplineSet
315 104 m 1
 578 -133 l 1
 840 100 l 1
 840 329 840 559 840 788 c 0
 840 903 840 1017 840 1132 c 1
 578 1370 l 1
 315 1134 l 1
 315 104 l 1
221 47 m 2
 213 55 205 70 205 84 c 2
 205 1155 l 2
 205 1167 211 1182 221 1192 c 2
 539 1478 l 2
 549 1488 564 1493 578 1493 c 0
 592 1493 608 1488 618 1478 c 2
 897 1222 l 1
 1176 1474 l 2
 1186 1484 1200 1489 1214 1489 c 0
 1228 1489 1245 1484 1255 1474 c 2
 1571 1186 l 2
 1579 1178 1589 1163 1589 1149 c 2
 1589 76 l 2
 1589 64 1581 49 1571 39 c 2
 1253 -246 l 2
 1243 -254 1228 -260 1214 -260 c 0
 1200 -260 1186 -256 1176 -246 c 2
 895 8 l 1
 616 -242 l 2
 606 -250 592 -256 578 -256 c 0
 564 -256 549 -252 539 -242 c 2
 221 47 l 2
952 1128 m 1
 952 1017 952 905 952 794 c 0
 952 563 952 333 952 102 c 1
 1214 -137 l 1
 1475 96 l 1
 1475 1128 l 1
 1214 1366 l 1
 952 1128 l 1
EndSplineSet
EndChar
StartChar: uniE152
Encoding: 57682 57682 114
Width: 1794
VWidth: -205
Flags: HW
HStem: 741 102<315 840 954 1475>
VStem: 205 111<104 741 844 1134> 840 113<207 741 844 1132> 1475 115<96 741 844 1128>
LayerCount: 3
Back
SplineSet
595.968 337.72 m 25
 894.976 79.6719 l 1049
1163.26 327.48 m 17
 1163.26 327.48 894.976 79.6777 894.976 79.6719 c 1
 1214.6 -209.096 l 1
 1531.9 75.5762 l 1
 1531.9 1148.73 l 1
 1214.6 1437.5 l 1
 894.976 1152.82 l 1049
1525.8 792.38 m 25
 268.288 792.376 l 1049
260.096 83.7676 m 1
 577.669 -205 l 1
 894.976 79.6719 l 1
 897.024 79.6719 894.976 1152.82 894.976 1152.82 c 1
 577.669 1441.59 l 1
 260.096 1154.87 l 1
 260.096 83.7676 l 1
EndSplineSet
Fore
SplineSet
315 104 m 1
 578 -133 l 1
 813 80 l 1
 557 301 l 1
 635 375 l 1
 840 198 l 1
 840 243 840 297 840 358 c 0
 840 475 840 614 840 741 c 1
 315 741 l 1
 315 104 l 1
1122 364 m 1
 1204 291 l 1
 975 80 l 1
 1214 -137 l 1
 1475 96 l 1
 1475 741 l 1
 954 741 l 1
 954 680 956 612 956 549 c 0
 956 422 954 299 952 207 c 1
 1122 364 l 1
954 844 m 1
 1475 844 l 1
 1475 1128 l 1
 1214 1366 l 1
 952 1132 l 1
 952 1087 954 977 954 844 c 1
840 844 m 1
 840 977 840 1087 840 1132 c 1
 578 1370 l 1
 315 1134 l 1
 315 844 l 1
 840 844 l 1
895 8 m 1
 616 -242 l 2
 606 -250 592 -256 578 -256 c 0
 564 -256 549 -252 539 -242 c 2
 221 47 l 2
 213 55 205 70 205 84 c 2
 205 1155 l 2
 205 1167 211 1182 221 1192 c 2
 539 1478 l 2
 549 1488 564 1493 578 1493 c 0
 592 1493 608 1488 618 1478 c 2
 895 1225 l 1
 1176 1474 l 2
 1186 1482 1200 1489 1214 1489 c 0
 1228 1489 1245 1484 1255 1474 c 2
 1571 1186 l 2
 1579 1178 1589 1163 1589 1149 c 2
 1589 76 l 2
 1589 64 1581 49 1571 39 c 2
 1253 -246 l 2
 1243 -254 1228 -260 1214 -260 c 0
 1200 -260 1186 -256 1176 -246 c 2
 895 8 l 1
EndSplineSet
EndChar
StartChar: uniE162
Encoding: 57698 57698 146
Width: 1511
VWidth: -205
Flags: HW
HStem: -205 43G<205 315 1194 1307> 678 100<588 858>
VStem: 205 111<-205 1298> 692 115<1063 1466> 1194 113<-205 1300>
LayerCount: 3
Back
SplineSet
749.568 1466.17 m 29
 749.568 927.54 l 1053
260.096 -205 m 21
 260.096 1434.36 l 13
 749.568 927.54 l 29
 1249.99 1434.36 l 21
 1249.99 -205 l 1037
746.537 -204.508 m 21
 517.701 733.304 l 13
 964.526 727.25 l 29
 628.122 280.622 l 1053
EndSplineSet
Fore
SplineSet
655 407 m 1
 858 678 l 1
 588 682 l 1
 655 407 l 1
688 270 m 1
 801 -193 l 1
 692 -215 l 1
 463 723 l 2
 463 727 461 731 461 735 c 0
 461 764 487 784 518 784 c 2
 965 778 l 2
 996 778 1020 756 1020 727 c 0
 1020 717 1016 704 1012 698 c 2
 688 270 l 1
315 -205 m 1
 205 -205 l 1
 205 1433 l 2
 205 1462 229 1485 260 1485 c 0
 276 1485 293 1478 303 1468 c 2
 692 1063 l 1
 692 1466 l 1
 807 1466 l 1
 807 1061 l 1
 1208 1468 l 2
 1218 1478 1235 1485 1251 1485 c 0
 1265 1485 1278 1480 1288 1472 c 0
 1300 1462 1307 1445 1307 1433 c 2
 1307 -205 l 1
 1194 -205 l 1
 1194 1300 l 1
 791 893 l 2
 783 885 764 878 748 878 c 0
 734 878 719 883 707 895 c 2
 315 1298 l 1
 315 -205 l 1
EndSplineSet
EndChar
StartChar: uniE172
Encoding: 57714 57714 134
Width: 1456
VWidth: -205
Flags: HW
HStem: 563 102<434 1022> 1184 102<432 1022>
VStem: 205 113<715 1134> 1139 113<715 1134>
LayerCount: 3
Back
SplineSet
261.523 614.2 m 1
 1194.32 1234.74 l 1029
260.096 1234.74 m 25
 1194.32 614.2 l 9
 1194.32 1234.74 l 17
 1194.32 1234.74 l 1
 260.096 1234.74 l 25
 262.144 614.2 l 1041
1194.32 614.2 m 1033
260.096 1234.74 m 1033
261.523 614.2 m 25
 1194.32 614.2 l 25
 724.992 -8.3916 l 25
 261.523 614.2 l 25
EndSplineSet
Fore
SplineSet
369 563 m 1
 725 82 l 1
 1087 563 l 1
 369 563 l 1
1022 665 m 1
 727 860 l 1
 434 665 l 1
 1022 665 l 1
1243 588 m 0
 1241 586 l 2
 772 -37 l 2
 762 -51 741 -60 723 -60 c 0
 713 -60 700 -57 692 -51 c 0
 686 -47 680 -41 678 -37 c 2
 215 586 l 2
 207 596 203 608 205 620 c 2
 205 1235 l 2
 205 1258 225 1286 260 1286 c 2
 1194 1286 l 2
 1225 1286 1251 1264 1251 1235 c 2
 1251 614 l 2
 1251 606 1249 596 1243 588 c 0
823 923 m 1
 1139 715 l 1
 1139 1134 l 1
 823 923 l 1
317 715 m 1
 633 923 l 1
 317 1134 l 1
 317 715 l 1
727 987 m 1
 1022 1184 l 1
 432 1184 l 1
 727 987 l 1
EndSplineSet
EndChar
StartChar: uniE173
Encoding: 57715 57715 376
Width: 1456
VWidth: -205
Flags: HMW
LayerCount: 3
Back
SplineSet
1194.32 1021.99 m 25
 260.096 1021.99 l 1049
1194.32 1021.99 m 1049
1194.32 491.592 m 25
 260.096 1021.99 l 9
 260.096 -0.200195 l 25
 1194.32 -0.200195 l 9
 1194.32 1021.99 l 1041
261.523 491.592 m 25
 1194.32 1021.99 l 9
 1194.32 -0.200195 l 17
 260.096 -0.200195 l 1049
727.208 -2.24805 m 25
 728 1234.74 l 1049
1194.32 491.592 m 25
 261.523 491.592 l 1049
EndSplineSet
Fore
SplineSet
782 442 m 1
 782 50 l 1
 1139 50 l 1
 1139 442 l 1
 782 442 l 1
783 542 m 1
 1002 542 l 1
 783 666 l 1
 783 542 l 1
672 442 m 1
 315 442 l 1
 315 50 l 1
 672 50 l 1
 672 442 l 1
673 542 m 1
 673 666 l 1
 453 542 l 1
 673 542 l 1
783 847 m 1
 1003 972 l 1
 783 972 l 1
 783 847 l 1
315 581 m 1
 624 757 l 1
 315 932 l 1
 315 581 l 1
831 757 m 1
 1139 582 l 1
 1139 932 l 1
 831 757 l 1
673 847 m 1
 673 972 l 1
 452 972 l 1
 673 847 l 1
260 -50 m 2
 230 -50 205 -27 205 -0 c 2
 205 1022 l 2
 205 1028 208 1040 213 1048 c 0
 223 1063 242 1072 260 1072 c 1
 260 1072 l 1
 673 1072 l 1
 673 1235 l 1
 783 1235 l 1
 783 1072 l 1
 1194 1072 l 1
 1194 1072 l 1
 1212 1072 1231 1063 1241 1048 c 0
 1247 1040 1249 1026 1249 1022 c 2
 1249 -0 l 2
 1249 -27 1224 -50 1194 -50 c 2
 260 -50 l 2
EndSplineSet
EndChar
StartChar: uniE174
Encoding: 57716 57716 409
Width: 1455
VWidth: -205
Flags: HW
LayerCount: 3
Back
SplineSet
1194.3203125 490.591796875 m 29
 261.5234375 490.591796875 l 1053
727.208007812 490.591796875 m 29
 260.096 1031.99 l 13
 260.096 -0.200195 l 29
 1194.32 -0.200195 l 13
 1194.32 1031.99 l 21
 727.208007812 490.591796875 l 29
1194.3203125 490.591796875 m 29
 261.5234375 490.591796875 l 1053
727.208007812 490.591796875 m 29
 260.096 1031.99 l 13
 260.096 -0.200195 l 29
 1194.32 -0.200195 l 13
 1194.32 1031.99 l 21
 727.208007812 490.591796875 l 29
EndSplineSet
Fore
SplineSet
1139 887.227539062 m 1
 839.926757812 540.591796875 l 1
 1139 540.591796875 l 1
 1139 887.227539062 l 1
1139 49.7998046875 m 1
 1139 440.591796875 l 1
 314.775390625 440.591796875 l 1
 314.775390625 49.7998046875 l 1
 1139 49.7998046875 l 1
314.775390625 887.227539062 m 1
 314.775390625 540.591796875 l 1
 613.848632812 540.591796875 l 1
 314.775390625 887.227539062 l 1
303.051757812 1062.84863281 m 2
 726.887695312 571.608398438 l 1
 1150.72363281 1062.84863281 l 2
 1159.83007812 1073.40234375 1174.36621094 1080.74023438 1189.68457031 1081.8359375 c 0
 1191.09667969 1081.93652344 1192.50195312 1081.98632812 1193.89648438 1081.98632812 c 0
 1223.63769531 1081.98632812 1249 1059.44335938 1249 1031.99023438 c 2
 1249 -0.2001953125 l 2
 1249 -21.6591796875 1227.29199219 -50.2001953125 1194 -50.2001953125 c 2
 259.775390625 -50.2001953125 l 2
 236.169921875 -50.2001953125 204.775390625 -30.46484375 204.775390625 -0.2001953125 c 2
 204.775390625 1031.99023438 l 2
 204.775390625 1045.40429688 211.231445312 1059.33300781 222.541015625 1068.79003906 c 0
 232.97265625 1077.51269531 246.310546875 1081.765625 259.610351562 1081.765625 c 0
 275.977539062 1081.765625 292.287109375 1075.32519531 303.051757812 1062.84863281 c 2
EndSplineSet
EndChar
StartChar: uniE17D
Encoding: 57725 57725 339
Width: 1264
VWidth: -205
Flags: HW
LayerCount: 3
Back
SplineSet
1009 -3 m 1
 1009 1235 l 1033
272 1234.74 m 21
 265 2 l 1025
272 1234.74 m 1
 835 284 l 9
 640 2 l 25
 441 282 l 17
 1009 1235 l 1
 1009 1235.04 272 1234.74 272 1234.74 c 1
1009 613 m 25
 271 615 l 1049
EndSplineSet
Fore
SplineSet
634 720 m 1
 912 1185 l 1
 768 1185 499 1185 359 1185 c 1
 634 720 l 1
634 509 m 1
 500 284 l 1
 634 95 l 1
 766 286 l 1
 634 509 l 1
1059 -3 m 1
 949 -3 l 1
 949 563 l 1
 727 564 l 1
 878 308 l 2
 888 292 886 270 877 257 c 2
 682 -25 l 2
 672 -40 654 -47 636 -47 c 0
 626 -47 615 -45 606 -40 c 0
 599 -36 592 -29 589 -25 c 2
 390 255 l 2
 379 271 380 292 388 306 c 2
 542 564 l 1
 318 565 l 1
 317 377 316 190 315 2 c 1
 205 2 l 1
 212 1235 l 2
 212 1262 237 1285 267 1285 c 2
 267 1285 l 2
 277 1285 988 1285 1004 1285 c 1
 1004 1285 1015 1293 1028 1293 c 0
 1043 1293 1059 1282 1059 1235 c 2
 1059 -3 l 1
726 664 m 1
 949 663 l 1
 949 1038 l 1
 726 664 l 1
542 664 m 1
 321 1038 l 1
 319 665 l 1
 542 664 l 1
EndSplineSet
EndChar
StartChar: uniE180
Encoding: 57728 57728 152
Width: 1280
VWidth: -205
Flags: HW
HStem: 678 102<395.126 555.126 731.126 885.126> 1184 102<434.126 846.126>
LayerCount: 3
Back
SplineSet
264.192 -0.200195 m 25
 647.168 726.84 l 25
 1019.9 -0.200195 l 25
 901.12 1234.74 l 25
 387.072 1234.74 l 25
 264.192 -0.200195 l 25
1019.9 -0.200195 m 1025
950.271 728.888 m 25
 335.872 728.888 l 1049
EndSplineSet
Fore
SplineSet
311.126 -23 m 2
 301.126 -39 280.126 -51 260.126 -51 c 0
 258.126 -51 258.126 -51 256.126 -51 c 0
 225.126 -49 203.126 -25 205.126 4 c 2
 328.126 1239 l 2
 330.126 1264 354.126 1286 383.126 1286 c 2
 897.126 1286 l 2
 926.126 1286 950.126 1266 952.126 1239 c 2
 1071.13 4 l 2
 1073.13 -16 1063.13 -39 1040.13 -47 c 0
 1032.13 -51 1024.13 -51 1016.13 -51 c 0
 993.126 -51 972.126 -41 964.126 -23 c 2
 643.126 606 l 1
 311.126 -23 l 2
385.126 678 m 1
 344.126 278 l 1
 555.126 678 l 1
 385.126 678 l 1
395.126 780 m 1
 885.126 780 l 1
 846.126 1184 l 1
 434.126 1184 l 1
 395.126 780 l 1
895.126 678 m 1
 731.126 678 l 1
 932.126 284 l 1
 895.126 678 l 1
EndSplineSet
EndChar
StartChar: uniE181
Encoding: 57729 57729 153
Width: 1275
VWidth: -205
Flags: HW
HStem: 680 102<395.126 555.126 731.126 885.126> 932 102<420.126 860.126> 1184 102<434.126 846.126>
CounterMasks: 1 e0
LayerCount: 3
Back
SplineSet
917.504 982.84 m 25
 360.448 982.84 l 1049
260.096 -0.200195 m 25
 643.072 728.888 l 25
 1015.81 -0.200195 l 25
 897.024 1234.74 l 25
 382.976 1234.74 l 25
 260.096 -0.200195 l 25
1015.81 -0.200195 m 1025
946.176 730.936 m 25
 333.824 730.936 l 1049
EndSplineSet
Fore
SplineSet
311.126 -23 m 2
 301.126 -41 279.126 -53 256.126 -51 c 0
 225.126 -49 203.126 -25 205.126 4 c 2
 327.126 1239 l 2
 329.126 1264 354.126 1286 383.126 1286 c 2
 897.126 1286 l 2
 926.126 1286 950.126 1266 952.126 1239 c 2
 1071.13 4 l 2
 1073.13 -16 1060.13 -39 1040.13 -47 c 0
 1011.13 -59 976.126 -48 964.126 -23 c 2
 643.126 608 l 1
 311.126 -23 l 2
385.126 680 m 1
 344.126 278 l 1
 555.126 680 l 1
 385.126 680 l 1
395.126 782 m 1
 885.126 782 l 1
 870.126 932 l 1
 409.126 932 l 1
 395.126 782 l 1
893.126 680 m 1
 731.126 680 l 1
 932.126 287 l 1
 893.126 680 l 1
860.126 1034 m 1
 846.126 1184 l 1
 434.126 1184 l 1
 420.126 1034 l 1
 860.126 1034 l 1
EndSplineSet
EndChar
StartChar: uniE182
Encoding: 57730 57730 300
Width: 1382
VWidth: -205
Flags: HW
LayerCount: 3
Back
SplineSet
626 905 m 4
 626 863 657 829 696 829 c 4
 735 829 767 863 767 905 c 4
 767 947 735 981 696 981 c 4
 657 981 626 947 626 905 c 4
626 905 m 4
 626 863 657 829 696 829 c 4
 735 829 767 863 767 905 c 4
 767 947 735 981 696 981 c 4
 657 981 626 947 626 905 c 4
260 1235 m 17
 697 -1 l 9
 1122 1234 l 17
 260 1235 l 17
EndSplineSet
Fore
SplineSet
571 905 m 0
 571 967 618 1031 696 1031 c 0
 773 1031 822 968 822 905 c 0
 822 842 773 779 696 779 c 0
 618 779 571 843 571 905 c 0
571 905 m 0
 571 967 618 1031 696 1031 c 0
 773 1031 822 968 822 905 c 0
 822 842 773 779 696 779 c 0
 618 779 571 843 571 905 c 0
208 1220 m 2
 207 1223 205 1230 205 1235 c 0
 205 1262 230 1285 260 1285 c 0
 1122 1284 l 0
 1124 1284 1133 1283 1138 1282 c 0
 1162 1276 1177 1255 1177 1234 c 0
 1177 1229 1176 1224 1174 1219 c 0
 749 -16 l 0
 744 -30 731 -44 714 -49 c 0
 709 -50 703 -51 698 -51 c 0
 674 -51 652 -37 645 -16 c 0
 208 1220 l 2
335 1185 m 1
 696 164 l 1
 1047 1184 l 1
 335 1185 l 1
EndSplineSet
EndChar
StartChar: uniE183
Encoding: 57731 57731 392
Width: 2048
Flags: HW
LayerCount: 3
Back
SplineSet
1597.44042969 419.200195312 m 29
 260.095703125 419.200195312 l 1053
926.1328125 1033.60058594 m 29
 619.51953125 473.471679688 l 29
 257.920898438 1033.60058594 l 13
 257.920898438 1.41015625 l 29
 926.719726562 1.41015625 l 29
 1597.5703125 1.41015625 l 29
 1597.5703125 1033.60058594 l 21
 1235.96972656 473.471679688 l 29
 926.1328125 1033.60058594 l 29
927.307617188 1033.60058594 m 1053
  Spiro
    927.308 1033.6 {
    617.472 473.472 v
    1238.02 473.472 v
    0 0 z
  EndSpiro
EndSplineSet
Fore
SplineSet
927.307617188 1033.60058594 m 1029
202.920898438 1033.60058594 m 2
 202.920898438 1062.48199333 226.345329681 1085.57485351 256.34081157 1085.57485351 c 0
 276.09849531 1085.57485351 294.751266024 1075.27715237 305.358317434 1058.84645943 c 2
 615.532035646 578.426039396 l 1
 876.860894082 1055.82821536 l 2
 879.813280227 1061.22170913 894.619521598 1085.00571766 926.133918367 1085.00571766 c 0
 931.883068743 1085.00571766 960.209540016 1083.567704 975.302101037 1056.01472278 c 2
 1239.69878823 578.033499458 l 1
 1550.10081755 1058.85448245 l 2
 1553.43454745 1064.01851856 1569.14971924 1085.58276336 1599.11825916 1085.58276336 c 0
 1629.11591913 1085.58276336 1652.53817098 1062.48778114 1652.53817098 1033.60850731 c 2
 1652.5703125 1.41015625 l 2
 1652.5703125 -26.18559375 1627.9256375 -48.58984375 1597.5703125 -48.58984375 c 0
 257.920898438 -48.58984375 257.920898438 -48.58984375 257.920898438 -48.58984375 c 2
 227.565573437 -48.58984375 202.920898438 -26.18559375 202.920898438 1.41015625 c 0
 202.920898438 1033.60058594 202.920898438 1033.60058594 202.920898438 1033.60058594 c 2
1176.76477768 469.200195312 m 1
 926.393366905 921.826264411 l 1
 678.658687791 469.200195312 l 1
 1176.76477768 469.200195312 l 1
558.504562289 469.200195312 m 1
 312.920898438 849.617864362 l 1
 312.920898438 469.200195312 l 1
 558.504562289 469.200195312 l 1
1542.5703125 469.200195312 m 1
 1542.5703125 849.600356634 l 1
 1297.02503454 469.200195312 l 1
 1542.5703125 469.200195312 l 1
312.920898438 369.200195312 m 1
 312.920898438 51.41015625 l 1
 1542.5703125 51.41015625 l 1
 1542.5703125 369.200195312 l 1
 312.920898438 369.200195312 l 1
EndSplineSet
EndChar
StartChar: uniE193
Encoding: 57747 57747 146
Width: 921
VWidth: -205
Flags: HW
LayerCount: 3
Back
SplineSet
260.096 -0.200195 m 13
 471.04 1234.74 l 29
 661.504 -0.200195 l 1045
EndSplineSet
Fore
SplineSet
315 -8 m 1
 205 8 l 1
 416 1243 l 0
 420 1268 444 1286 471 1286 c 0
 473 1286 477 1286 479 1286 c 0
 506 1282 524 1259 526 1241 c 0
 717 6 l 1
 606 -6 l 1
 469 885 l 1
 315 -8 l 1
EndSplineSet
EndChar
StartChar: uniE194
Encoding: 57748 57748 368
Width: 1493
VWidth: 0
Flags: HW
LayerCount: 3
Back
SplineSet
412 1012.74023438 m 29
 1098 1012.74023438 l 1053
759 1012.74023438 m 29
 756 615 l 1053
260.096 614.2 m 13
 751.616 -0.200195 l 29
 1232.9 614.2 l 21
 260.096 614.2 l 13
EndSplineSet
Fore
SplineSet
368.416015625 564.200195312 m 1
 751.458984375 85.396484375 l 1
 1126.52539062 564.200195312 l 1
 368.416015625 564.200195312 l 1
215.927734375 584.791015625 m 2
 210.846679688 591.142578125 206.374023438 601.078125 205.578125 610.27734375 c 0
 203.09765625 638.9296875 228.79296875 664.200195312 260.408203125 664.200195312 c 2
 701.681640625 664.200195312 l 1
 703.93359375 962.740234375 l 1
 412.3125 962.740234375 l 1
 412.3125 1012.74023438 l 1
 412.3125 1062.74023438 l 1
 1098.3125 1062.74023438 l 1
 1098.3125 1012.74023438 l 1
 1098.3125 962.740234375 l 1
 813.9375 962.740234375 l 1
 811.685546875 664.200195312 l 1
 1233.21289062 664.200195312 l 2
 1240.36035156 664.200195312 1252.94238281 661.74609375 1261.50390625 657.078125 c 0
 1288.61523438 642.294921875 1296.35253906 608.607421875 1278.01367188 585.196289062 c 2
 796.729492188 -29.203125 l 2
 796.376953125 -29.6533203125 790.85546875 -35.7275390625 787.66796875 -38.2041015625 c 0
 763.637695312 -56.880859375 726.04296875 -52.8525390625 707.448242188 -29.6083984375 c 2
 215.927734375 584.791015625 l 2
EndSplineSet
EndChar
StartChar: uniE1A3
Encoding: 57763 57763 168
Width: 1938
VWidth: -205
Flags: W
HStem: -105 217<232.789 315 1616 1708.47> -51 102<418.291 438 541 655 752 865.584 1058.09 1190 1284 1393 1491 1516.96>
VStem: 901 115<119 235 334 444 547 680 778 1007>
LayerCount: 3
Back
SplineSet
958.464 1238.84 m 25
 323.584 -0.200195 l 25
 1613.82 -0.200195 l 25
 958.464 1238.84 l 25
958.464 1238.84 m 1
 958.464 -0.200195 l 1033
260.096 -2.24805 m 0
 260.096 -33.9023 287.621 -59.5918 321.536 -59.5918 c 0
 355.451 -59.5918 382.976 -33.9023 382.976 -2.24805 c 0
 382.976 29.4062 355.451 55.0957 321.536 55.0957 c 0
 287.621 55.0957 260.096 29.4062 260.096 -2.24805 c 0
899.072 -4.2959 m 1
 905.359 -35.8535 931.168 -61.5723 960.512 -61.6396 c 1
 994.427 -61.6396 1021.95 -35.9502 1021.95 -4.2959 c 0
 1021.95 27.3574 994.427 53.0479 960.512 53.0479 c 0
 926.598 53.0479 899.072 27.3574 899.072 -4.2959 c 1
1552.38 3.89648 m 0
 1552.38 -27.7578 1579.91 -53.4482 1613.82 -53.4482 c 0
 1647.74 -53.4482 1675.26 -27.7578 1675.26 3.89648 c 0
 1675.26 35.5498 1647.74 61.2402 1613.82 61.2402 c 0
 1579.91 61.2402 1552.38 35.5498 1552.38 3.89648 c 0
EndSplineSet
Fore
SplineSet
907 1261 m 2x60
 911 1271 922 1280 934 1286 c 0
 940 1290 948 1290 956 1290 c 0
 979 1290 1002 1279 1010 1261 c 2
 1616 112 l 1
 1682 110 1733 61 1733 4 c 0
 1733 -55 1680 -105 1614 -105 c 0xa0
 1571 -105 1533 -82 1513 -51 c 1
 1067 -51 l 1
 1049 -88 1008 -113 961 -113 c 0
 912 -113 876 -84 858 -51 c 1
 426 -51 l 1
 408 -86 369 -111 322 -111 c 0
 256 -111 205 -61 205 -2 c 0
 205 55 252 104 315 106 c 1
 907 1261 l 2x60
1016 1014 m 1
 1016 772 l 1
 1100 854 l 1
 1016 1014 l 1
1518 65 m 1
 1513 71 l 1
 1491 51 l 1
 1507 51 l 1x60
 1509 55 1514 61 1518 65 c 1
424 51 m 1
 438 51 l 1
 420 67 l 1
 418 61 l 1
 420 57 422 55 424 51 c 1
860 51 m 1
 862 53 864 57 866 59 c 1
 571 362 l 1
 526 272 l 1
 752 51 l 1
 860 51 l 1
1061 51 m 1
 1190 51 l 1
 1409 270 l 1
 1364 354 l 1
 1057 59 l 1
 1059 57 1059 53 1061 51 c 1
901 1007 m 1
 825 858 l 1
 901 778 l 1
 901 1007 l 1
1331 416 m 1
 1288 497 l 1
 1016 235 l 1
 1016 112 l 1xa0
 1331 416 l 1
604 424 m 1
 901 119 l 1
 901 237 l 1
 643 504 l 1
 604 424 l 1
1255 559 m 1
 1210 643 l 1
 1016 444 l 1
 1016 327 l 1
 1255 559 l 1
676 567 m 1
 901 334 l 1
 901 446 l 1
 717 647 l 1
 676 567 l 1
1178 706 m 1
 1133 792 l 1
 1016 680 l 1
 1016 540 l 1
 1178 706 l 1
750 713 m 1
 901 547 l 1
 901 682 l 1
 793 794 l 1
 750 713 l 1
494 211 m 1
 451 127 l 1
 541 51 l 1
 655 51 l 1x60
 494 211 l 1
1284 51 m 1
 1393 51 l 1
 1481 133 l 1
 1442 207 l 1
 1284 51 l 1
EndSplineSet
Layer: 2
SplineSet
1546.24 147.256 m 21
 1386.5 -0.200195 l 1029
550.912 -0.200195 m 5
 399.36 126.776 l 1037
1462.23 275.428 m 21
 1185.79 -0.200195 l 1029
755.712 -0.200195 m 5
 473.088 278.328 l 1037
766.947 868.52 m 29
 958.464 671.648 l 29
 1156.13 861.03 l 1053
703.107 713.571 m 29
 958.464 434.312 l 29
 1222.02 702.93 l 1053
617.99 578.122 m 29
 958.464 226.854 l 29
 1309.87 564.741 l 1053
543.253 437.97 m 29
 958.464 12.1904 l 29
 1387.01 421.749 l 1053
EndSplineSet
EndChar
StartChar: uniE1A6
Encoding: 57766 57766 372
Width: 1118
VWidth: 0
Flags: HW
LayerCount: 3
Back
SplineSet
559.358398438 0 m 29
 479.96875 0 l 5
 455.208007812 65.48828125 357.233398438 242.959960938 260.430664062 338.83984375 c 5
 260.430664062 338.83984375 267.36328125 1059 559.36328125 1234.74023438 c 5
 839.36328125 1085 858.763671875 338.83984375 858.763671875 338.83984375 c 5
 762.443359375 242.959960938 663 65.48828125 638.36328125 0 c 5
 559.358398438 0 l 29
EndSplineSet
Fore
SplineSet
556.553710938 292 m 1025
555.356445312 295.240234375 m 1025
558.961914062 -50 m 1
 479.572265625 -50 l 2
 455.177734375 -50 434.151367188 -33.689453125 427.55859375 -16.2529296875 c 0
 405.982421875 40.8125 307.0703125 218.30859375 219.514648438 305.030273438 c 0
 209.877929688 314.575195312 204.942382812 329.331054688 205.036132812 339.287109375 c 2
 205.036132812 339.287109375 194.568359375 1075.39160156 528.60546875 1276.43164062 c 0
 546.115234375 1286.96972656 569.400390625 1287.16992188 586.853515625 1277.8359375 c 0
 914.9296875 1102.38574219 913.3515625 340.028320312 913.3515625 340.028320312 c 2
 913.696289062 326.873046875 906.64453125 312.750976562 898.979492188 305.122070312 c 0
 811.670898438 218.211914062 711.315429688 40.4599609375 690.0078125 -16.1796875 c 0
 682.111328125 -37.1689453125 658.34765625 -50 637.966796875 -50 c 2
 558.961914062 -50 l 1
558.961914062 50 m 1
 600.4140625 50 l 1
 637.5625 129.290039062 716.702148438 264.912109375 802.631835938 356.930664062 c 1
 801.94921875 371.750976562 800.58203125 393.607421875 798.32421875 420.775390625 c 1
 591.524414062 281.450195312 l 1
 590.966796875 79.9287109375 l 1
 555.966796875 80 l 1
 520.966796875 80.0712890625 l 1
 521.513671875 277.893554688 l 1
 318.984375 421.233398438 l 1
 317.032226562 394.057617188 315.954101562 372.178710938 315.483398438 357.296875 c 1
 401.056640625 265.947265625 479.622070312 130.53125 517.1484375 50 c 1
 558.961914062 50 l 1
523.71484375 1136.64746094 m 1
 509.303710938 1120.02929688 495.862304688 1101.3828125 483.328125 1081.10839844 c 1
 523.4921875 1049.64550781 l 1
 523.71484375 1136.64746094 l 1
593.724609375 1140.23339844 m 1
 593.487304688 1047.4921875 l 1
 636.809570312 1079.796875 l 1
 623.48828125 1102.32421875 609.150390625 1122.66796875 593.724609375 1140.23339844 c 1
521.715820312 355.561523438 m 1
 522.141601562 521.973632812 l 1
 343.186523438 633.291015625 l 1
 335.358398438 583.279296875 329.572265625 536.036132812 325.361328125 494.530273438 c 1
 521.715820312 355.561523438 l 1
522.331054688 595.991210938 m 1
 522.71875 747.541015625 l 1
 386.918945312 842.600585938 l 1
 374.095703125 795.423828125 363.463867188 747.25 354.674804688 700.28125 c 1
 522.331054688 595.991210938 l 1
522.916992188 824.868164062 m 1
 523.28515625 968.526367188 l 1
 452.323242188 1024.11230469 l 1
 434.797851562 987.694335938 419.439453125 948.022460938 405.993164062 906.71484375 c 1
 522.916992188 824.868164062 l 1
591.721679688 357.899414062 m 1
 791.401367188 492.427734375 l 1
 786.876953125 533.762695312 780.828125 580.865234375 772.893554688 630.729492188 c 1
 592.146484375 523.701171875 l 1
 591.721679688 357.899414062 l 1
592.333007812 596.737304688 m 1
 761.48046875 696.896484375 l 1
 752.715820312 743.911132812 742.259765625 792.133789062 729.842773438 839.302734375 c 1
 592.720703125 747.932617188 l 1
 592.333007812 596.737304688 l 1
592.915039062 824.060546875 m 1
 711.556640625 903.116210938 l 1
 698.407226562 945.26171875 683.486328125 985.635742188 666.579101562 1022.46875 c 1
 593.283203125 967.814453125 l 1
 592.915039062 824.060546875 l 1
EndSplineSet
Layer: 2
SplineSet
679.083007812 1071.25976562 m 5
 554.283203125 978.200195312 l 1053
764.36328125 900.040039062 m 29
 556.36328125 761.440429688 l 1053
820.5234375 695.16015625 m 29
 556.36328125 538.740234375 l 1053
849.643554688 493.240234375 m 29
 555.752929688 295.240234375 l 1053
555.752929688 295.240234375 m 1028
438.36328125 1076 m 5
 558.36328125 982 l 1053
356.36328125 903 m 29
 556.36328125 763 l 1053
302.36328125 696 m 29
 556.36328125 538 l 1053
274.36328125 492 m 29
 556.950195312 292 l 1053
556.950195312 292 m 1028
438.36328125 1076 m 5
 558.36328125 982 l 1053
356.36328125 903 m 29
 556.36328125 763 l 1053
302.36328125 696 m 29
 556.36328125 538 l 1053
274.36328125 492 m 29
 556.950195312 292 l 1053
559.36328125 1234.74023438 m 21
 556.950195312 292 l 4
 556.36328125 80 l 1037
EndSplineSet
EndChar
StartChar: uniE1A7
Encoding: 57767 57767 411
Width: 1685
VWidth: 0
Flags: HW
LayerCount: 3
Back
SplineSet
641.01171875 908.866210938 m 29
 841.385742188 719.927734375 l 5
 1041.76171875 912.880859375 l 1053
529.120117188 688 m 29
 842.127929688 428.5625 l 5
 1156.12011719 691 l 1053
445.120117188 475 m 29
 842.90234375 156.772460938 l 5
 1261.12011719 466 l 1053
1363.87011719 258.17578125 m 29
 843.681640625 -123.080078125 l 5
 323.48828125 268.984375 l 29
 839.80859375 1435.82324219 l 5
 1363.87011719 258.17578125 l 29
839.80859375 1435.82324219 m 5
 839.583984375 -129.223632812 l 1037
260 266.936523438 m 4
 260 235.282226562 287.525390625 209.592773438 321.440429688 209.592773438 c 4
 355.35546875 209.592773438 382.879882812 235.282226562 382.879882812 266.936523438 c 4
 382.879882812 298.590820312 355.35546875 324.280273438 321.440429688 324.280273438 c 4
 287.525390625 324.280273438 260 298.590820312 260 266.936523438 c 4
780.192382812 -133.3203125 m 5
 786.479492188 -164.877929688 812.288085938 -190.595703125 841.631835938 -190.6640625 c 5
 875.546875 -190.6640625 903.0703125 -164.973632812 903.0703125 -133.3203125 c 4
 903.0703125 -101.666015625 875.546875 -75.9755859375 841.631835938 -75.9755859375 c 4
 807.717773438 -75.9755859375 780.192382812 -101.666015625 780.192382812 -133.3203125 c 5
1302.4296875 262.272460938 m 4
 1302.4296875 230.618164062 1329.95996094 204.927734375 1363.87011719 204.927734375 c 4
 1397.79003906 204.927734375 1425.31054688 230.618164062 1425.31054688 262.272460938 c 4
 1425.31054688 293.92578125 1397.79003906 319.616210938 1363.87011719 319.616210938 c 4
 1329.95996094 319.616210938 1302.4296875 293.92578125 1302.4296875 262.272460938 c 4
EndSplineSet
Fore
SplineSet
725.762695312 -142.231445312 m 0
 725.328125 -140.051757812 724.881835938 -136.19921875 724.881835938 -133.3203125 c 0
 724.881835938 -122.641601562 726.599609375 -112.264648438 729.80859375 -102.438476562 c 1
 369.416015625 169.185546875 l 1
 354.793945312 163.0390625 338.473632812 159.592773438 321.129882812 159.592773438 c 0
 255.578125 159.592773438 204.689453125 208.790039062 204.689453125 266.936523438 c 0
 204.689453125 321.83203125 250.0703125 368.752929688 310.286132812 373.826171875 c 1
 788.471679688 1454.48339844 l 2
 800.270507812 1481.14746094 835.649414062 1493.38867188 863.96484375 1480.60351562 c 0
 876.534179688 1474.92773438 887.390625 1461.52539062 890.483398438 1454.57421875 c 2
 1373.46582031 369.23828125 l 1
 1434.17382812 364.577148438 1480 317.450195312 1480 262.272460938 c 0
 1480 204.130859375 1429.09472656 154.927734375 1363.55957031 154.927734375 c 0
 1348.27929688 154.927734375 1333.79492188 157.6015625 1320.56640625 162.438476562 c 1
 953.991210938 -106.229492188 l 1
 956.454101562 -114.919921875 957.759765625 -124.005859375 957.759765625 -133.3203125 c 0
 957.759765625 -191.462890625 906.911132812 -240.6640625 841.250976562 -240.6640625 c 0
 774.924804688 -240.509765625 735.07421875 -188.969726562 725.762695312 -142.231445312 c 0
894.2890625 -21.53515625 m 1
 1249.86914062 239.075195312 l 1
 1248.06640625 246.573242188 1247.11914062 254.33984375 1247.11914062 262.272460938 c 0
 1247.11914062 287.33984375 1256.58203125 310.743164062 1272.59765625 329.258789062 c 1
 1245.47363281 390.209960938 l 1
 894.310546875 130.563476562 l 1
 894.2890625 -21.53515625 l 1
784.290039062 -13.603515625 m 1
 784.311523438 136.79296875 l 1
 444.322265625 408.786132812 l 1
 411.5 334.610351562 l 1
 427.875976562 315.987304688 437.569335938 292.314453125 437.569335938 266.936523438 c 0
 437.569335938 260.829101562 437.0078125 254.8203125 435.926757812 248.956054688 c 1
 784.290039062 -13.603515625 l 1
784.4609375 1177.46875 m 1
 680.766601562 943.126953125 l 1
 784.413085938 845.395507812 l 1
 784.4609375 1177.46875 l 1
894.4609375 1178.98828125 m 1
 894.413085938 844.125976562 l 1
 998.76171875 944.608398438 l 1
 894.4609375 1178.98828125 l 1
1202.31347656 487.197265625 m 1
 1145.63085938 614.571289062 l 1
 894.350585938 404.549804688 l 1
 894.329101562 259.475585938 l 1
 1202.31347656 487.197265625 l 1
487.85546875 507.166015625 m 1
 784.331054688 269.984375 l 1
 784.350585938 408.532226562 l 1
 535.485351562 614.8046875 l 1
 487.85546875 507.166015625 l 1
1101.56933594 713.5859375 m 1
 1044.140625 842.634765625 l 1
 894.392578125 698.434570312 l 1
 894.370117188 540.407226562 l 1
 1101.56933594 713.5859375 l 1
579.296875 713.815429688 m 1
 784.370117188 543.83984375 l 1
 784.392578125 701.336914062 l 1
 635.782226562 841.466796875 l 1
 579.296875 713.815429688 l 1
EndSplineSet
EndChar
StartChar: uniE1B5
Encoding: 57781 57781 368
Width: 1776
VWidth: -205
Flags: HW
LayerCount: 3
Back
SplineSet
604.16 980.79 m 25
 1290.24 1.84766 l 25
 512 1.84766 l 25
 1210.37 968.5 l 1049
260.096 548.664 m 9
 905.216 1369.91 l 25
 1536 548.664 l 1041
EndSplineSet
Fore
SplineSet
295 520 m 1
 205 578 l 1
 850 1399 l 2
 860 1413 878 1420 896 1420 c 0
 907 1420 918 1417 927 1411 c 0
 932 1408 939 1400 940 1399 c 2
 1571 577 l 1
 1481 520 l 1
 1203 881 l 1
 963 548 l 1
 1327 29 l 2
 1333 21 1335 12 1335 3 c 0
 1335 -14 1326 -30 1310 -40 c 0
 1301 -45 1285 -48 1280 -48 c 2
 502 -48 l 2
 472 -48 447 -25 447 2 c 0
 447 12 452 24 456 29 c 2
 832 549 l 1
 589 895 l 1
 295 520 l 1
896 457 m 1
 604 52 l 1
 1180 52 l 1
 896 457 l 1
1135 970 m 1
 895 1283 l 1
 658 982 l 1
 898 641 l 1
 1135 970 l 1
EndSplineSet
EndChar
StartChar: uniE1C4
Encoding: 57796 57796 188
Width: 1705
VWidth: -205
Flags: W
HStem: 312 100<401 706>
VStem: 276 110<402 581.999> 637 251<563.744 755.1> 706 110<412 580.902>
LayerCount: 3
Back
SplineSet
400 360 m 29
 967 363 l 29
 1048 180 l 29
 535 -0.200195 l 1053
676 -0.200195 m 29
 823 273 l 29
 1223 637 l 1053
865 -0.200195 m 29
 1459 597 l 1053
763 660.2 m 29
 761 393 l 1053
331 660.2 m 29
 331 402 l 1053
692 660.2 m 4
 692 702.2 723 736.2 762 736.2 c 4
 801 736.2 833 702.2 833 660.2 c 4
 833 618.2 801 584.2 762 584.2 c 4
 723 584.2 692 618.2 692 660.2 c 4
692 660.2 m 4
 692 702.2 723 736.2 762 736.2 c 4
 801 736.2 833 702.2 833 660.2 c 4
 833 618.2 801 584.2 762 584.2 c 4
 723 584.2 692 618.2 692 660.2 c 4
260 660.2 m 4
 260 702.2 291 736.2 330 736.2 c 4
 369 736.2 401 702.2 401 660.2 c 4
 401 618.2 369 584.2 330 584.2 c 4
 291 584.2 260 618.2 260 660.2 c 4
260 660.2 m 4
 260 702.2 291 736.2 330 736.2 c 4
 369 736.2 401 702.2 401 660.2 c 4
 401 618.2 369 584.2 330 584.2 c 4
 291 584.2 260 618.2 260 660.2 c 4
EndSplineSet
Fore
SplineSet
906 -34 m 1xd0
 824 33 l 1
 846 56 l 1
 749 21 l 1
 726 -22 l 1
 681 -2 l 1
 555 -47 l 1
 515 46 l 1
 669 100 l 1
 774 295 l 2
 777 300 780 305 784 308 c 2
 788 312 l 1
 401 310 l 1
 400 410 l 1
 706 412 l 1xd0
 707 546 l 1
 663 568 637 615 637 660 c 0
 637 722 684 786 762 786 c 0
 839 786 888 723 888 660 c 0xe0
 888 614 861 567 817 546 c 1
 816 412 l 1
 899 413 l 1
 1184 672 l 1
 1197 660 1210 649 1223 637 c 0
 1236 625 1249 614 1262 602 c 1
 1019 380 l 1
 1065 275 l 1
 1418 631 l 1
 1432 620 1445 608 1459 597 c 0
 1473 586 1486 574 1500 563 c 1
 1097 158 l 1
 1092 149 1084 142 1076 137 c 1
 906 -34 l 1xd0
456 660 m 0
 456 614 430 569 386 547 c 1
 386 402 l 1
 276 402 l 1
 276 546 l 1
 231 567 205 614 205 660 c 0
 205 722 252 786 330 786 c 0
 407 786 456 723 456 660 c 0
934 303 m 1
 869 244 l 1
 820 153 l 1
 976 208 l 1
 934 303 l 1
EndSplineSet
EndChar
StartChar: uniE1C7
Encoding: 57799 57799 221
Width: 1756
VWidth: -205
Flags: W
HStem: 1185 100<348 1401>
LayerCount: 3
Back
SplineSet
1013 260 m 25
 1172 -0.200195 l 1049
899 287 m 25
 709 -0.200195 l 25
 488 296 l 1049
335 1096 m 25
 260 1234.74 l 25
 1496 1234.74 l 25
 1192 750 l 1049
EndSplineSet
Fore
SplineSet
965 236 m 1
 1061 284 l 1
 1220 24 l 1
 1124 -24 l 1
 965 236 l 1
852 313 m 1
 946 261 l 1
 756 -26 l 0
 746 -41 728 -50 709 -50 c 0
 699 -50 690 -48 681 -43 c 0
 674 -39 666 -31 663 -28 c 0
 442 268 l 1
 534 324 l 1
 706 93 l 1
 852 313 l 1
384 1118 m 1
 286 1074 l 1
 211 1213 l 0
 207 1220 206 1228 206 1235 c 0
 206 1254 217 1271 236 1280 c 0
 244 1283 253 1285 260 1285 c 0
 1496 1285 l 0
 1526 1285 1551 1262 1551 1235 c 0
 1551 1226 1547 1215 1544 1210 c 0
 1240 725 l 1
 1144 775 l 1
 1401 1185 l 1
 348 1185 l 1
 384 1118 l 1
EndSplineSet
EndChar
StartChar: uniE1CA
Encoding: 57802 57802 310
Width: 2011
VWidth: 0
Flags: HW
LayerCount: 3
Back
SplineSet
260 0 m 25
 1025 0 l 17
 1251.37 76.1299 1676 171 1715 222 c 1
 1754 234 1757.52 851.774 1694 873 c 1
 1566.17 896.011 1213.7 689.979 989 614.2 c 9
 260 614.2 l 25
 260 0 l 25
EndSplineSet
Fore
SplineSet
260 -50 m 2
 230 -50 205 -27 205 0 c 2
 205 614 l 2
 205 641 230 664 260 664 c 2
 979 664 l 1
 1175 732 1490 925 1669 925 c 0
 1682 925 1694 924 1705 922 c 0
 1707 922 1710 921 1713 920 c 0
 1785 896 1806 727 1806 560 c 0
 1806 404 1787 250 1773 214 c 0
 1770 206 1768 198 1753 185 c 1
 1672 105 1262 26 1044 -47 c 0
 1039 -49 1031 -50 1025 -50 c 2
 260 -50 l 2
479 50 m 1
 479 564 l 1
 315 564 l 1
 315 50 l 1
 479 50 l 1
569 50 m 1
 725 50 l 1
 725 564 l 1
 569 564 l 1
 569 50 l 1
815 50 m 1
 962 50 l 1
 962 564 l 1
 815 564 l 1
 815 50 l 1
1052 62 m 1
 1097 76 1147 91 1199 106 c 1
 1199 643 l 1
 1148 621 1098 600 1052 583 c 1
 1052 62 l 1
1289 132 m 1
 1342 147 1394 162 1442 176 c 1
 1442 751 l 1
 1393 730 1342 707 1289 683 c 1
 1289 132 l 1
1532 202 m 1
 1603 224 1656 242 1672 253 c 1
 1681 287 1686 386 1686 495 c 0
 1686 625 1679 768 1662 824 c 1
 1630 821 1585 808 1532 788 c 1
 1532 202 l 1
EndSplineSet
Layer: 2
SplineSet
1487 818.2 m 29
 1487 156 l 1053
1244 704.2 m 29
 1244 63 l 1053
1007 614.2 m 29
 1007 0 l 1053
770 614.2 m 29
 770 0 l 1053
524 614.2 m 29
 524 0 l 1053
EndSplineSet
EndChar
StartChar: uniE1CD
Encoding: 57805 57805 295
Width: 2175
VWidth: 0
Flags: HW
LayerCount: 3
Back
SplineSet
1279 394 m 17
 1279 394 1245.71 504.447 1043 697 c 1
 690.553 858.432 260 883 260 883 c 1033
1477 3 m 25
 1967 76 l 25
 1799 460 l 25
 1279 394 l 25
 1477 3 l 25
EndSplineSet
Fore
SplineSet
1457 58 m 1
 1839 115 l 1
 1712 405 l 1
 1308 354 l 1
 1457 58 l 1
1434 -46 m 2
 1431 -47 1428 -47 1425 -47 c 0
 1404 -47 1384 -35 1375 -18 c 2
 1177 373 l 2
 1176 374 1175 377 1174 381 c 1
 1174 381 l 1
 1173 383 1137 484 958 656 c 1
 624 806 213 833 205 833 c 1
 211 933 l 1
 212 933 l 1
 222 932 654 908 1016 742 c 0
 1021 740 1027 736 1031 732 c 0
 1171 598 1234 501 1261 449 c 1
 1739 510 l 2
 1741 510 1744 510 1746 510 c 0
 1767 510 1789 498 1798 478 c 2
 1966 94 l 2
 1966 93 1968 87 1969 84 c 0
 1970 81 1970 79 1970 76 c 0
 1970 52 1951 31 1924 27 c 2
 1434 -46 l 2
EndSplineSet
EndChar
StartChar: uniE1CF
Encoding: 57807 57807 329
Width: 1473
VWidth: -205
Flags: HW
LayerCount: 3
Back
SplineSet
260 810 m 29
 753 1285.74 l 1053
387 656 m 29
 891 1166 l 1053
522 479 m 29
 1103 1034 l 1053
1087 975 m 4
 1087 1017 1118 1051 1157 1051 c 4
 1196 1051 1228 1017 1228 975 c 4
 1228 933 1196 899 1157 899 c 4
 1118 899 1087 933 1087 975 c 4
764 1250 m 4
 764 1292 795 1326 834 1326 c 4
 873 1326 905 1292 905 1250 c 4
 905 1208 873 1174 834 1174 c 4
 795 1174 764 1208 764 1250 c 4
EndSplineSet
Fore
SplineSet
547 445 m 1
 467 513 l 1
 1048 1068 l 1
 1053 1064 l 1
 1074 1086 1105 1101 1142 1101 c 0
 1219 1101 1268 1038 1268 975 c 0
 1268 912 1219 849 1142 849 c 0
 1092 849 1055 875 1035 910 c 1
 547 445 l 1
413 623 m 1
 331 689 l 1
 770 1134 l 1
 744 1145 724 1164 711 1187 c 1
 285 776 l 1
 205 844 l 1
 698 1320 l 1
 702 1317 705 1313 709 1310 c 1
 729 1347 767 1376 819 1376 c 0
 896 1376 945 1313 945 1250 c 0
 945 1212 927 1174 896 1150 c 1
 917 1133 l 1
 413 623 l 1
EndSplineSet
EndChar
StartChar: uniE1D0
Encoding: 57808 57808 331
Width: 1333
VWidth: -205
Flags: HW
LayerCount: 3
Back
SplineSet
260 -32 m 29
 753 443.74 l 1053
387 -186 m 29
 891 324 l 1053
522 -363 m 29
 1103 192 l 1053
EndSplineSet
Fore
SplineSet
285 -66 m 1
 205 2 l 1
 698 478 l 1
 778 409 l 1
 285 -66 l 1
413 -219 m 1
 331 -153 l 1
 835 357 l 1
 917 291 l 1
 413 -219 l 1
547 -397 m 1
 467 -329 l 1
 1048 226 l 1
 1128 158 l 1
 547 -397 l 1
EndSplineSet
EndChar
StartChar: uniE1D1
Encoding: 57809 57809 311
Width: 1955
VWidth: 0
Flags: HW
LayerCount: 3
Back
SplineSet
1751 1104 m 25
 982 0 l 1049
468 0 m 25
 1310 1224 l 1049
1531 165 m 25
 475 615 l 1049
468 0 m 25
 1417 0 l 25
 1903 614.2 l 25
 469 1234.74 l 25
 468 0 l 25
EndSplineSet
Fore
SplineSet
1543 1104 m 0
 1558 1095 1574 1086 1589 1077 c 1
 1396 799 l 1
 1719 659 l 2
 1721 658 1724 657 1727 655 c 0
 1742 645 1750 629 1750 613 c 0
 1750 603 1747 593 1740 585 c 2
 1254 -29 l 2
 1245 -40 1227 -50 1209 -50 c 2
 260 -50 l 1
 260 0 l 1
 205 0 l 1
 206 1235 l 2
 206 1242 208 1249 211 1256 c 0
 220 1274 241 1285 262 1285 c 0
 270 1285 278 1283 285 1280 c 2
 894 1016 l 1
 1055 1251 l 1
 1071 1242 1086 1233 1102 1224 c 0
 1118 1215 1133 1206 1149 1197 c 1
 994 973 l 1
 1296 842 l 1
 1497 1131 l 1
 1512 1122 1528 1113 1543 1104 c 0
1317 223 m 1
 1612 595 l 1
 1336 714 l 1
 1068 329 l 1
 1317 223 l 1
316 650 m 1
 568 542 l 1
 835 931 l 1
 316 1156 l 1
 316 650 l 1
1252 140 m 1
 1009 244 l 1
 874 50 l 1
 1181 50 l 1
 1252 140 l 1
315 539 m 1
 315 174 l 1
 509 457 l 1
 315 539 l 1
610 414 m 1
 359 50 l 1
 744 50 l 1
 908 286 l 1
 610 414 l 1
668 499 m 1
 968 372 l 1
 1236 757 l 1
 935 888 l 1
 668 499 l 1
EndSplineSet
EndChar
StartChar: uniE1D3
Encoding: 57811 57811 365
Width: 1412
VWidth: 0
Flags: HW
LayerCount: 3
Back
SplineSet
579.25 779.85 m 29
 648.7 537.3 l 1053
1131.38 243.3 m 29
 1096.65 55.875 l 29
 613.975 324.15 l 1053
666.062 1070.17 m 29
 238.945 621.825 l 29
 613.975 324.15 l 29
 985.532 739.425 l 29
 666.062 1070.17 l 29
EndSplineSet
Fore
SplineSet
686.754 994 m 1
 336.754 627 l 1
 627.754 396 l 1
 934.754 738 l 1
 686.754 994 l 1
644.754 1103 m 2
 660.754 1120 702.754 1129 727.754 1103 c 2
 1047.75 772 l 2
 1063.75 755 1065.75 727 1048.75 708 c 2
 716.754 337 l 1
 1076.75 137 l 1
 1097.75 252 l 1
 1206.75 235 l 1
 1171.75 48 l 2
 1166.75 21 1138.75 2 1108.75 7 c 0
 1101.75 8 1093.75 10 1088.75 13 c 2
 605.754 281 l 1
 605.754 282 l 1
 602.754 283 600.754 284 598.754 286 c 2
 223.754 584 l 2
 203.754 600 196.754 633 217.754 655 c 2
 644.754 1103 l 2
546.754 767 m 1
 652.754 792 l 1
 722.754 550 l 1
 615.754 525 l 1
 546.754 767 l 1
EndSplineSet
EndChar
StartChar: uniE1D4
Encoding: 57812 57812 338
Width: 1479
VWidth: 0
Flags: HW
LayerCount: 3
Back
SplineSet
260 441 m 29
 513 3 l 29
 754 406 l 29
 985 3 l 29
 1202 448 l 1053
1202 448 m 29
 1220 1035 l 29
 274 1042 l 29
 260 441 l 29
 1202 448 l 29
EndSplineSet
Fore
SplineSet
1147 498 m 1
 1162 985 l 1
 327 992 l 1
 315 491 l 1
 1147 498 l 1
1251 428 m 1
 1251 428 l 1
 1034 -17 l 2
 1030 -25 1020 -36 1009 -41 c 0
 1001 -45 993 -47 984 -47 c 0
 964 -47 945 -37 935 -20 c 2
 752 300 l 1
 560 -21 l 2
 556 -27 548 -36 538 -41 c 0
 530 -45 522 -47 513 -47 c 0
 493 -47 473 -37 463 -20 c 2
 210 418 l 1
 211 418 l 1
 207 425 204 433 204 442 c 2
 218 1043 l 2
 219 1067 242 1092 273 1092 c 2
 1219 1085 l 2
 1245 1085 1275 1064 1274 1034 c 2
 1256 447 l 2
 1256 440 1254 434 1251 428 c 1
1116 397 m 1
 821 395 l 1
 980 118 l 1
 1116 397 l 1
683 394 m 1
 572 393 461 393 350 392 c 1
 513 109 l 1
 683 394 l 1
EndSplineSet
EndChar
StartChar: uniE1D5
Encoding: 57813 57813 370
Width: 1494
VWidth: 0
Flags: HW
LayerCount: 3
Back
SplineSet
1169 837 m 21
 1249.06 682.699 1307.1 517.771 1175 261 c 1037
374 843 m 21
 299.021 647.482 282.656 459.592 392 288 c 1037
1262 945 m 29
 278 165 l 1053
260 963 m 29
 1253 159 l 1053
EndSplineSet
Fore
SplineSet
205 926 m 1
 279 1000 l 1
 749 619 l 1
 1208 983 l 1
 1280 907 l 1
 1206 848 l 1
 1286 692 1343 509 1210 246 c 1
 1272 196 l 1
 1260 184 1247 171 1235 159 c 0
 1223 147 1210 134 1198 122 c 1
 749 486 l 1
 296 127 l 1
 224 203 l 1
 318 277 l 1
 209 459 228 655 300 849 c 1
 205 926 l 1
666 553 m 1
 390 776 l 1
 338 620 333 477 403 345 c 1
 666 553 l 1
832 552 m 1
 1124 316 l 1
 1218 519 1182 650 1119 780 c 1
 832 552 l 1
EndSplineSet
EndChar
StartChar: uniE1E0
Encoding: 57824 57824 186
Width: 1395
VWidth: -205
Flags: W
HStem: -48 100<315 1080> 488 252<626.333 817.863> 1187 101<315 1075>
VStem: 205 110<52 1183> 597 251<518.9 709.1> 1080 110<52 1187>
LayerCount: 3
Back
SplineSet
652 614 m 4
 652 656 683 690 722 690 c 4
 761 690 793 656 793 614 c 4
 793 572 761 538 722 538 c 4
 683 538 652 572 652 614 c 4
652 614 m 4
 652 656 683 690 722 690 c 4
 761 690 793 656 793 614 c 4
 793 572 761 538 722 538 c 4
 683 538 652 572 652 614 c 4
260 2 m 29
 260 1233 l 21
 508 1235 888 1239 1130 1237 c 13
 1135 2 l 21
 260 2 l 29
EndSplineSet
Fore
SplineSet
205 2 m 2
 205 1233 l 2
 205 1262 233 1283 260 1283 c 0
 461 1285 747 1288 978 1288 c 0
 1032 1288 1084 1287 1130 1287 c 0
 1161 1287 1185 1261 1185 1237 c 2
 1190 2 l 2
 1190 -28 1159 -48 1135 -48 c 2
 260 -48 l 2
 230 -48 205 -25 205 2 c 2
315 52 m 1
 1080 52 l 1
 1075 1187 l 1
 1045 1187 1013 1187 980 1187 c 0
 771 1187 512 1185 315 1183 c 1
 315 52 l 1
722 488 m 0
 644 488 597 552 597 614 c 0
 597 676 644 740 722 740 c 0
 799 740 848 677 848 614 c 0
 848 551 799 488 722 488 c 0
EndSplineSet
EndChar
StartChar: uniE1E2
Encoding: 57826 57826 170
Width: 1597
VWidth: -205
Flags: W
HStem: -51 100<341 1256> 343 252<709.333 900.863>
VStem: 680 251<373.9 564.1>
LayerCount: 3
Back
SplineSet
735 469 m 4
 735 511 766 545 805 545 c 4
 844 545 876 511 876 469 c 4
 876 427 844 393 805 393 c 4
 766 393 735 427 735 469 c 4
735 469 m 4
 735 511 766 545 805 545 c 4
 844 545 876 511 876 469 c 4
 876 427 844 393 805 393 c 4
 766 393 735 427 735 469 c 4
260 -1.2002 m 21
 806 1233.74 l 13
 1337 1 l 21
 260 -1.2002 l 21
EndSplineSet
Fore
SplineSet
209 17 m 2
 755 1252 l 2
 763 1271 785 1283 807 1283 c 0
 814 1283 821 1282 827 1280 c 0
 842 1275 853 1261 857 1252 c 2
 1388 19 l 2
 1391 13 1392 7 1392 1 c 0
 1392 -19 1379 -38 1357 -46 c 0
 1351 -48 1342 -49 1337 -49 c 2
 260 -51 l 2
 230 -51 205 -28 205 -1 c 0
 205 5 207 12 209 17 c 2
341 49 m 1
 1256 51 l 1
 805 1098 l 1
 341 49 l 1
805 343 m 0
 727 343 680 407 680 469 c 0
 680 531 727 595 805 595 c 0
 882 595 931 532 931 469 c 0
 931 406 882 343 805 343 c 0
EndSplineSet
EndChar
StartChar: uniE1E3
Encoding: 57827 57827 171
Width: 1597
VWidth: -205
Flags: W
HStem: -50 100<341 1256>
LayerCount: 3
Back
SplineSet
260 0 m 21
 806 1235 l 13
 1337 2 l 21
 260 0 l 21
EndSplineSet
Fore
SplineSet
209 19 m 2
 755 1254 l 2
 763 1273 784 1285 806 1285 c 0
 813 1285 820 1283 827 1281 c 0
 842 1276 853 1262 857 1253 c 2
 1388 20 l 2
 1391 14 1392 8 1392 2 c 0
 1392 -18 1379 -37 1357 -45 c 0
 1351 -47 1342 -48 1337 -48 c 2
 260 -50 l 2
 230 -50 205 -27 205 0 c 0
 205 6 207 14 209 19 c 2
341 50 m 1
 1256 52 l 1
 805 1099 l 1
 341 50 l 1
EndSplineSet
EndChar
StartChar: uniE1E5
Encoding: 57829 57829 190
Width: 1388
VWidth: -205
Flags: W
HStem: 150 100<513.923 874.077> 978 100<513.923 874.077>
VStem: 205 110<445.895 782.102> 1073 110<445.895 782.102>
LayerCount: 3
Back
SplineSet
265 614 m 4
 265 843 459 1028 699 1028 c 4
 939 1028 1133 843 1133 614 c 4
 1133 385 939 200 699 200 c 4
 459 200 265 385 265 614 c 4
EndSplineSet
Fore
SplineSet
315 614 m 0
 315 410.524 486.59 250 694 250 c 0
 901.41 250 1073 410.524 1073 614 c 0
 1073 817.47 901.41 978 694 978 c 0
 486.59 978 315 817.47 315 614 c 0
205 614 m 0
 205 868.52 421.41 1078 694 1078 c 0
 966.59 1078 1183 868.52 1183 614 c 0
 1183 359.476 966.59 150 694 150 c 0
 421.41 150 205 359.476 205 614 c 0
EndSplineSet
EndChar
StartChar: uniE1E8
Encoding: 57832 57832 193
Width: 1399
VWidth: -205
Flags: W
HStem: 488 252<644 799> 1185 100<552.146 881.66>
VStem: 205 110<2 614.284> 597 251<552 676> 1081 113<2 707.381>
LayerCount: 3
Back
SplineSet
652 614 m 0
 652 656 683 690 722 690 c 0
 761 690 793 656 793 614 c 0
 793 572 761 538 722 538 c 0
 683 538 652 572 652 614 c 0
652 614 m 0
 652 656 683 690 722 690 c 0
 761 690 793 656 793 614 c 0
 793 572 761 538 722 538 c 0
 683 538 652 572 652 614 c 0
260 2 m 4
 261 614.2 234 1235.03 727 1234.74 c 4
 1179 1234.47 1138 614.2 1135 2 c 1028
EndSplineSet
Fore
SplineSet
597 614 m 0
 597 676 644 740 722 740 c 0
 799 740 848 677 848 614 c 0
 848 551 799 488 722 488 c 0
 644 488 597 552 597 614 c 0
597 614 m 0
 597 676 644 740 722 740 c 0
 799 740 848 677 848 614 c 0
 848 551 799 488 722 488 c 0
 644 488 597 552 597 614 c 0
315 2 m 1
 205 2 l 1
 205 57 205 113 205 168 c 0
 205 701 211 1285 727 1285 c 0
 1147 1285 1194 839 1194 363 c 0
 1194 242 1191 120 1190 2 c 1
 1080 2 l 1
 1080 91 1081 178 1081 262 c 0
 1081 784 1052 1185 727 1185 c 0
 347 1185 315 742 315 168 c 0
 315 113 315 58 315 2 c 1
EndSplineSet
EndChar
StartChar: uniE1E9
Encoding: 57833 57833 177
Width: 1399
VWidth: -205
Flags: W
HStem: 1185 100<552.146 881.66>
VStem: 205 110<2 614.284> 1081 113<2 707.381>
LayerCount: 3
Back
SplineSet
260 2 m 4
 261 614.2 234 1235.03 727 1234.74 c 4
 1179 1234.47 1138 614.2 1135 2 c 1028
EndSplineSet
Fore
SplineSet
315 2 m 1
 205 2 l 1
 205 57 205 113 205 168 c 0
 205 701 211 1285 727 1285 c 0
 1147 1285 1194 839 1194 363 c 0
 1194 242 1191 120 1190 2 c 1
 1080 2 l 1
 1080 91 1081 178 1081 262 c 0
 1081 784 1052 1185 727 1185 c 0
 347 1185 315 742 315 168 c 0
 315 113 315 58 315 2 c 1
EndSplineSet
EndChar
StartChar: uniE1EC
Encoding: 57836 57836 197
Width: 1259
VWidth: -205
Flags: W
LayerCount: 3
Back
SplineSet
991 2 m 9
 272 1236 l 1041
1013 1234 m 9
 260 2 l 1041
EndSplineSet
Fore
SplineSet
958 1258 m 1
 1054 1210 l 1
 690 614 l 1
 1033 25 l 1
 935 -21 l 1
 626 510 l 1
 301 -22 l 1
 205 26 l 1
 565 615 l 1
 216 1213 l 1
 314 1259 l 1
 629 719 l 1
 958 1258 l 1
EndSplineSet
EndChar
StartChar: uniE1ED
Encoding: 57837 57837 199
Width: 1346
VWidth: -205
Flags: W
LayerCount: 3
Back
SplineSet
661 1237 m 1049
260 614 m 25
 672 0 l 25
 1087 614 l 25
 661 1237 l 25
 260 614 l 25
EndSplineSet
Fore
SplineSet
323 615 m 1
 671 96 l 1
 1021 614 l 1
 661 1140 l 1
 323 615 l 1
212 588 m 2
 207 595 205 604 205 613 c 0
 205 622 207 631 212 639 c 2
 613 1262 l 2
 617 1269 623 1275 631 1279 c 0
 640 1284 649 1286 659 1286 c 0
 678 1286 697 1278 707 1263 c 2
 1133 640 l 2
 1138 632 1141 623 1141 614 c 0
 1141 605 1138 596 1133 588 c 2
 718 -26 l 2
 714 -31 707 -39 700 -43 c 0
 691 -48 682 -50 672 -50 c 0
 653 -50 635 -41 624 -26 c 2
 212 588 l 2
EndSplineSet
EndChar
StartChar: uniE1EF
Encoding: 57839 57839 200
Width: 2037
VWidth: -205
Flags: W
HStem: 107 100<749.729 1328.41> 564 100<858.6 1194.64>
LayerCount: 3
Back
SplineSet
1154 614 m 1
 1154 614 1659 981 1777 992 c 1
 1781 880 1414 162 1300 158 c 9
 775 157 l 17
 691 165 260 872 260 980 c 1
 378 978 903 614 903 614 c 25
 1154 614 l 1
EndSplineSet
Fore
SplineSet
1188 575 m 0
 1179 569 1167 564 1154 564 c 0
 903 564 l 0
 893 564 881 567 870 574 c 1
 868 575 532 808 345 898 c 1
 436 698 708 270 788 207 c 1
 1293 208 l 1
 1372 256 1621 696 1699 907 c 1
 1520 814 1192 578 1188 575 c 0
1135 664 m 1
 1221 726 1625 1028 1771 1042 c 0
 1773 1042 1775 1042 1777 1042 c 0
 1807 1042 1832 1020 1832 992 c 0
 1832 864 1489 115 1301 108 c 1
 775 107 l 0
 773 107 770 107 769 107 c 0
 618 121 205 855 205 980 c 0
 205 1010 236 1030 261 1030 c 0
 411 1027 836 722 921 664 c 1
 1135 664 l 1
EndSplineSet
EndChar
StartChar: uniE200
Encoding: 57856 57856 185
Width: 1387
VWidth: -205
Flags: W
HStem: 945 100<384 1007>
LayerCount: 3
Back
SplineSet
1127 996 m 25
 260 987 l 1049
260 987 m 25
 704 1438 l 25
 1127 996 l 25
 720 -0.200195 l 25
 260 987 l 25
EndSplineSet
Fore
SplineSet
219 1020 m 2
 663 1471 l 2
 674 1482 689 1488 704 1488 c 0
 719 1488 735 1482 745 1471 c 2
 1168 1029 l 2
 1177 1020 1182 1007 1182 995 c 0
 1182 989 1181 984 1179 979 c 2
 772 -18 l 2
 764 -38 742 -50 720 -50 c 0
 714 -50 707 -49 701 -47 c 0
 686 -42 673 -29 669 -20 c 2
 209 967 l 2
 206 973 205 980 205 986 c 0
 205 998 210 1011 219 1020 c 2
1007 1045 m 1
 703 1362 l 1
 384 1038 l 1
 1007 1045 l 1
343 938 m 1
 717 135 l 1
 1048 945 l 1
 343 938 l 1
EndSplineSet
EndChar
StartChar: uniE220
Encoding: 57888 57888 191
Width: 1953
VWidth: -205
Flags: HMW
LayerCount: 3
Back
SplineSet
1254 0 m 0
 1254 42 1286 76 1325 76 c 0
 1364 76 1396 42 1396 0 c 0
 1396 -42 1364 -76 1325 -76 c 0
 1286 -76 1254 -42 1254 0 c 0
554 0 m 0
 554 42 586 76 625 76 c 0
 664 76 696 42 696 0 c 0
 696 -42 664 -76 625 -76 c 0
 586 -76 554 -42 554 0 c 0
976.896 1143.58 m 25
 265.24 532.768 l 25
 627.447 1.8623 l 25
 970 342 l 25
 1326.39 -0.137695 l 25
 1684.5 530.72 l 25
 976.896 1143.58 l 25
EndSplineSet
Fore
SplineSet
977 1074 m 1
 334 523 l 1
 604 129 l 1
 612 131 618 131 625 131 c 0
 642 131 659 126 672 120 c 1
 936 383 l 2
 945.574 392.095 957.439 396.149 969.073 396.149 c 0
 981.742 396.149 994.138 391.341 1003 383 c 2
 1277 120 l 1
 1294 128 1308 131 1325 131 c 0
 1334 131 1342 130 1351 128 c 1
 1615 521 l 1
 977 1074 l 1
946 1187 m 2
 954.266 1194.23 965.467 1198.26 976.985 1198.26 c 0
 987.762 1198.26 998.816 1194.73 1008 1187 c 2
 1715 574 l 2
 1726.91 563.277 1733.51 546.877 1733.51 530.295 c 0
 1733.51 519.041 1730.47 507.703 1724 498 c 2
 1431 63 l 1
 1440 44 1446 23 1446 0 c 0
 1446 -74 1390 -131 1325 -131 c 0
 1260 -131 1204 -74 1204 0 c 0
 1204 14 1206 27 1210 39 c 1
 971 268 l 1
 740 40 l 1
 744 28 746 14 746 0 c 0
 746 -74 690 -131 625 -131 c 0
 560 -131 504 -74 504 0 c 0
 504 25 510 47 521 66 c 1
 225 500 l 2
 218.864 509.203 215.418 521.288 215.418 533.56 c 0
 215.418 549.29 221.08 565.327 234 576 c 2
 946 1187 l 2
EndSplineSet
EndChar
StartChar: uniE221
Encoding: 57889 57889 201
Width: 1951
VWidth: -205
Flags: W
VStem: 205 252<-94.0999 36.4375> 273 110<116 649> 1494 252<-94.0999 34.4837> 1565 110<116 647>
LayerCount: 3
Back
SplineSet
1549 1 m 0
 1549 43 1581 77 1620 77 c 0
 1659 77 1691 43 1691 1 c 0
 1691 -41 1659 -75 1620 -75 c 0
 1581 -75 1549 -41 1549 1 c 0
260 1 m 0
 260 43 292 77 331 77 c 0
 370 77 402 43 402 1 c 0
 402 -41 370 -75 331 -75 c 0
 292 -75 260 -41 260 1 c 0
975 1239 m 29
 329 670 l 29
 328 0 l 29
 971 552 l 29
 1620 0 l 29
 1618 668 l 29
 975 1239 l 29
EndSplineSet
Fore
SplineSet
975 1169 m 1x50
 384 649 l 1
 383 116 l 1
 933 588 l 2
 944 597 958 602 972 602 c 0
 986 602 999 597 1009 589 c 2
 1565 116 l 1
 1563 647 l 1
 975 1169 l 1x50
937 1275 m 2
 948 1284 962 1289 976 1289 c 0
 990 1289 1003 1284 1013 1275 c 2
 1656 704 l 2
 1665 696 1673 682 1673 668 c 2
 1675 115 l 1x50
 1720 94 1746 47 1746 1 c 0
 1746 -62 1697 -125 1620 -125 c 0
 1543 -125 1494 -62 1494 1 c 0
 1494 12 1496 24 1499 35 c 1
 971 483 l 1
 452 37 l 1
 456 25 457 13 457 1 c 0
 457 -62 408 -125 331 -125 c 0
 254 -125 205 -62 205 1 c 0xa0
 205 46 230 91 273 113 c 1
 274 670 l 2
 274 681 280 696 291 706 c 2
 937 1275 l 2
EndSplineSet
EndChar
StartChar: uniE222
Encoding: 57890 57890 202
Width: 1812
VWidth: -205
Flags: W
VStem: 205 110<116 649> 1497 110<116 647>
LayerCount: 3
Back
SplineSet
907 1239 m 29
 261 670 l 29
 260 0 l 29
 903 552 l 29
 1552 0 l 29
 1550 668 l 29
 907 1239 l 29
EndSplineSet
Fore
SplineSet
907 1169 m 1
 316 649 l 1
 315 116 l 1
 865 588 l 2
 887 607 922 605 941 589 c 2
 1497 116 l 1
 1495 647 l 1
 907 1169 l 1
869 1275 m 2
 890 1293 924 1294 945 1275 c 2
 1588 704 l 2
 1597 696 1605 682 1605 668 c 2
 1607 0 l 2
 1607 -12 1602 -25 1592 -34 c 0
 1572 -54 1536 -56 1514 -37 c 2
 903 483 l 1
 298 -36 l 2
 288 -44 274 -50 260 -50 c 0
 230 -50 205 -27 205 0 c 2
 206 670 l 2
 206 681 212 696 223 706 c 2
 869 1275 l 2
EndSplineSet
EndChar
StartChar: uniE240
Encoding: 57920 57920 192
Width: 1938
VWidth: -205
Flags: W
HStem: 315 100<552 771 1139 1372>
LayerCount: 3
Back
SplineSet
452 365 m 29
 837 366 l 21
 717 0 l 13
 252 613 l 29
 963 1143 l 29
 1671 611 l 29
 1178 0 l 29
 1058 367 l 29
 1461 365 l 1053
506 1163 m 29
 591 1433 l 29
 963 1143 l 1053
EndSplineSet
Fore
SplineSet
477 415 m 1
 844 416 l 0
 874 416 900 393 900 366 c 0
 900 361 898 355 897 352 c 0
 777 -14 l 0
 770 -35 748 -50 724 -50 c 0
 719 -50 714 -49 709 -48 c 0
 697 -45 685 -35 679 -28 c 0
 214 585 l 0
 208 593 205 602 205 612 c 0
 205 627 212 642 225 652 c 0
 936 1182 l 0
 946 1190 959 1193 971 1193 c 0
 984 1193 997 1189 1006 1182 c 0
 1714 650 l 0
 1727 640 1733 625 1733 611 c 0
 1733 600 1730 589 1723 581 c 0
 1230 -30 l 0
 1219 -43 1203 -50 1186 -50 c 0
 1174 -50 1163 -47 1153 -40 c 0
 1143 -33 1135 -20 1133 -14 c 0
 1013 353 l 0
 1011 358 1011 362 1011 367 c 0
 1011 388 1026 408 1050 415 c 0
 1055 416 1062 417 1066 417 c 0
 1452 415 l 1
 1603 603 l 1
 970 1078 l 1
 334 604 l 1
 477 415 l 1
552 315 m 1
 705 114 l 1
 771 316 l 1
 552 315 l 1
1372 315 m 1
 1139 317 l 1
 1207 111 l 1
 1372 315 l 1
566 1149 m 1
 461 1177 l 1
 546 1447 l 0
 553 1469 576 1483 600 1483 c 0
 605 1483 609 1482 614 1481 c 0
 622 1479 631 1473 634 1471 c 0
 1006 1181 l 1
 935 1105 l 1
 628 1344 l 1
 566 1149 l 1
EndSplineSet
EndChar
StartChar: uniE243
Encoding: 57923 57923 195
Width: 1939
VWidth: -205
Flags: W
LayerCount: 3
Back
SplineSet
845 366 m 17
 725 0 l 9
 260 613 l 25
 971 1143 l 25
 1679 611 l 25
 1186 0 l 25
 1066 367 l 1049
EndSplineSet
Fore
SplineSet
792 380 m 1
 898 352 l 1
 778 -14 l 2
 771 -35 748 -50 724 -50 c 0
 719 -50 714 -49 709 -48 c 0
 697 -45 686 -35 680 -28 c 2
 215 585 l 2
 209 593 206 603 206 613 c 0
 206 628 212 642 225 652 c 2
 936 1182 l 2
 946 1190 959 1193 971 1193 c 0
 984 1193 997 1189 1006 1182 c 2
 1714 650 l 2
 1727 640 1733 625 1733 611 c 0
 1733 600 1730 589 1723 581 c 2
 1230 -30 l 2
 1219 -43 1203 -50 1186 -50 c 0
 1174 -50 1163 -47 1153 -40 c 0
 1143 -33 1135 -20 1133 -14 c 2
 1013 353 l 1
 1119 381 l 1
 1207 111 l 1
 1604 603 l 1
 971 1078 l 1
 334 604 l 1
 705 114 l 1
 792 380 l 1
EndSplineSet
EndChar
StartChar: uniE266
Encoding: 57958 57958 221
Width: 1755
VWidth: -205
Flags: W
HStem: 472 100<476 1278> 660 100<477 1276>
LayerCount: 3
Back
SplineSet
366.123 522.472 m 29
 1392.2 522.168 l 1053
367.722 709.51 m 29
 1400.41 709.812 l 1053
260 614 m 29
 875 0 l 29
 1496 614 l 29
 874 1237 l 29
 260 614 l 29
EndSplineSet
Fore
SplineSet
219 580 m 2
 210 589 205 601 205 614 c 0
 205 626 210 638 219 647 c 2
 833 1270 l 2
 841 1279 859 1286 877 1286 c 0
 890 1286 904 1282 915 1271 c 2
 1537 648 l 2
 1546 639 1550 627 1550 615 c 0
 1550 602 1546 590 1536 580 c 2
 915 -34 l 2
 905 -44 890 -49 874 -49 c 0
 860 -49 845 -45 834 -34 c 2
 219 580 l 2
1376 660 m 1
 379 660 l 1
 334 614 l 1
 376 572 l 1
 710 572 1045 572 1379 572 c 1
 1422 614 l 1
 1376 660 l 1
1276 760 m 1
 874 1162 l 1
 477 760 l 1
 743 760 1010 760 1276 760 c 1
476 472 m 1
 875 74 l 1
 1278 472 l 1
 476 472 l 1
EndSplineSet
EndChar
StartChar: uniE268
Encoding: 57960 57960 242
Width: 1893
VWidth: -205
Flags: W
HStem: 472 100<547 1348> 488 252<235.137 372.39 1522.56 1657.86> 660 100<548 1346>
LayerCount: 3
Back
SplineSet
1491 613 m 4
 1491 655 1523 689 1562 689 c 4
 1601 689 1633 655 1633 613 c 4
 1633 571 1601 537 1562 537 c 4
 1523 537 1491 571 1491 613 c 4
260 614 m 4
 260 656 292 690 331 690 c 4
 370 690 401 656 401 614 c 4
 401 572 370 538 331 538 c 4
 292 538 260 572 260 614 c 4
436 522 m 29
 1462 522 l 1053
438 710 m 29
 1470 710 l 1053
330 614 m 29
 945 0 l 29
 1566 614 l 29
 944 1237 l 29
 330 614 l 29
EndSplineSet
Fore
SplineSet
205 614 m 0x40
 205 677 254 740 331 740 c 0
 346 740 360 738 373 733 c 1
 903 1270 l 2
 911 1279 929 1286 947 1286 c 0
 960 1286 974 1282 985 1271 c 2
 1522 733 l 1
 1534 737 1548 739 1562 739 c 0
 1639 739 1688 676 1688 613 c 0
 1688 550 1639 487 1562 487 c 0
 1547 487 1532 489 1519 494 c 1
 985 -34 l 2
 975 -44 960 -49 944 -49 c 0
 930 -49 915 -45 904 -34 c 2
 374 495 l 1
 361 490 347 488 331 488 c 0
 254 488 205 551 205 614 c 0x40
449 660 m 1xa0
 448 659 l 1
 453 645 456 629 456 614 c 0
 456 600 454 586 449 572 c 1
 1443 572 l 1
 1438 585 1436 599 1436 613 c 0
 1436 629 1439 645 1445 660 c 1
 449 660 l 1xa0
1346 760 m 1
 944 1162 l 1
 548 760 l 1
 1346 760 l 1
547 472 m 1
 945 74 l 1
 1348 472 l 1
 547 472 l 1
EndSplineSet
EndChar
StartChar: uniE26B
Encoding: 57963 57963 226
Width: 1728
VWidth: -205
Flags: W
LayerCount: 3
Back
SplineSet
260.096 614.2 m 25
 862.208 -0.200195 l 25
 1468.42 614.2 l 25
 845.824 1236.79 l 25
 260.096 614.2 l 25
EndSplineSet
Fore
SplineSet
219 581 m 2
 210 590 205 603 205 615 c 0
 205 627 209 638 218 647 c 2
 804 1269 l 2
 812 1278 830 1285 848 1285 c 0
 862 1285 876 1281 887 1270 c 2
 1509 648 l 2
 1518 639 1523 627 1523 614 c 0
 1523 602 1518 590 1509 581 c 2
 903 -34 l 2
 895 -42 878 -49 861 -49 c 0
 847 -49 832 -45 821 -33 c 2
 219 581 l 2
557 386 m 1
 644 476 l 1
 562 559 l 1
 475 470 l 1
 557 386 l 1
1084 924 m 1
 1001 1007 l 1
 908 912 l 1
 990 828 l 1
 1084 924 l 1
617 326 m 1
 701 240 l 1
 788 329 l 1
 704 415 l 1
 617 326 l 1
1144 864 m 1
 1112 832 1082 799 1050 767 c 1
 1134 681 l 1
 1229 779 l 1
 1144 864 l 1
761 179 m 1
 862 75 l 1
 950 164 l 1
 848 268 l 1
 761 179 l 1
1290 719 m 1
 1193 620 l 1
 1297 515 l 1
 1394 614 l 1
 1290 719 l 1
415 531 m 1
 503 620 l 1
 419 706 l 1
 333 615 l 1
 415 531 l 1
941 1068 m 1
 847 1161 l 1
 757 1066 l 1
 848 973 l 1
 941 1068 l 1
706 706 m 1
 622 620 l 1
 704 536 l 1
 788 622 l 1
 706 706 l 1
646 767 m 1
 560 856 l 1
 477 768 l 1
 562 681 l 1
 646 767 l 1
992 415 m 1
 908 329 l 1
 1010 224 l 1
 1094 310 l 1
 992 415 l 1
932 476 m 1
 848 562 l 1
 764 476 l 1
 848 390 l 1
 932 476 l 1
766 767 m 1
 848 683 l 1
 930 767 l 1
 848 851 l 1
 766 767 l 1
706 828 m 1
 788 912 l 1
 699 1004 l 1
 618 918 l 1
 706 828 l 1
1052 476 m 1
 1154 371 l 1
 1237 454 l 1
 1134 559 l 1
 1052 476 l 1
992 536 m 1
 1074 620 l 1
 990 706 l 1
 908 622 l 1
 992 536 l 1
EndSplineSet
Layer: 2
SplineSet
698.368 1064.76 m 29
 1296.38 454.456 l 1053
415.744 769.848 m 29
 1013.76 159.544 l 1053
559.104 917.3 m 29
 1157.12 307 l 1053
1009.66 1077.05 m 29
 411.648 466.744 l 1053
1292.29 782.136 m 29
 694.271 171.832 l 1053
1148.93 929.59 m 29
 550.912 319.288 l 1053
EndSplineSet
EndChar
StartChar: uniE26E
Encoding: 57966 57966 280
Width: 1730
VWidth: -205
Flags: HW
LayerCount: 3
Back
SplineSet
1094 616 m 4
 1094 636 1111 653 1134 653 c 4
 1157 653 1175 636 1175 616 c 4
 1175 596 1157 579 1134 579 c 4
 1111 579 1094 596 1094 616 c 4
815 921 m 4
 815 941 833 958 856 958 c 4
 879 958 897 941 897 921 c 4
 897 901 879 885 856 885 c 4
 833 885 815 901 815 921 c 4
553 618 m 4
 553 638 571 655 594 655 c 4
 617 655 635 638 635 618 c 4
 635 598 617 581 594 581 c 4
 571 581 553 598 553 618 c 4
857 924 m 29
 865 256 l 1053
595 614 m 29
 1139 614 l 1053
EndSplineSet
Fore
SplineSet
518 618 m 0
 518 655 551 686 594 686 c 0
 627 686 654 670 666 645 c 1
 825 645 l 1
 823 860 l 1
 796 870 780 894 780 921 c 0
 780 958 813 989 856 989 c 0
 899 989 934 958 934 921 c 0
 934 896 920 874 895 862 c 1
 897 645 l 1
 1065 645 l 1
 1077 668 1104 684 1135 684 c 0
 1178 684 1212 653 1212 616 c 0
 1212 579 1178 549 1135 549 c 0
 1106 549 1079 563 1067 583 c 1
 897 583 l 1
 901 256 l 2
 901 236 884 227 866 227 c 0
 848 227 829 236 829 256 c 0
 827 365 827 474 825 583 c 1
 659 583 l 1
 647 565 623 551 594 551 c 0
 551 551 518 581 518 618 c 0
219 579 m 2
 209 589 205 602 205 614 c 0
 205 626 211 637 219 647 c 2
 805 1270 l 2
 813 1280 832 1288 850 1288 c 0
 864 1288 877 1284 889 1272 c 2
 1511 649 l 2
 1519 641 1526 626 1526 614 c 0
 1526 602 1521 589 1511 579 c 2
 905 -35 l 2
 897 -43 880 -49 862 -49 c 0
 848 -49 833 -47 821 -35 c 2
 219 579 l 2
336 614 m 1
 864 78 l 1
 1395 614 l 1
 848 1159 l 1
 336 614 l 1
EndSplineSet
EndChar
StartChar: uniE272
Encoding: 57970 57970 305
Width: 1728
VWidth: -205
Flags: HW
LayerCount: 3
Back
SplineSet
260 614 m 29
 862 0 l 29
 1468 614 l 29
 846 1237 l 29
 260 614 l 29
EndSplineSet
Fore
SplineSet
711 412 m 1
 645 468 l 1
 831 642 l 0
 840 650 851 654 863 654 c 0
 874 654 886 650 895 643 c 0
 904 635 909 622 909 614 c 0
 910 196 l 1
 820 196 l 1
 819 514 l 1
 711 412 l 1
219 581 m 2
 210 590 205 602 205 614 c 0
 205 625 209 637 218 646 c 0
 804 1269 l 0
 813 1279 831 1286 849 1286 c 0
 863 1286 876 1282 887 1271 c 0
 1509 648 l 0
 1518 639 1523 627 1523 614 c 0
 1523 602 1518 590 1509 581 c 0
 903 -33 l 0
 895 -41 878 -49 860 -49 c 0
 846 -49 832 -44 821 -33 c 0
 219 581 l 2
333 615 m 1
 862 75 l 1
 1394 614 l 1
 847 1161 l 1
 333 615 l 1
EndSplineSet
Layer: 2
SplineSet
678 440 m 29
 864 614 l 29
 865 196 l 1053
EndSplineSet
EndChar
StartChar: uniE273
Encoding: 57971 57971 359
Width: 1755
VWidth: -205
Flags: HW
LayerCount: 3
Back
SplineSet
260 614 m 29
 875 0 l 29
 1496 614 l 29
 874 1237 l 29
 260 614 l 29
EndSplineSet
Fore
SplineSet
334 614 m 1
 875 74 l 1
 1422 614 l 1
 874 1162 l 1
 334 614 l 1
219 580 m 2
 210 589 205 601 205 614 c 0
 205 626 210 638 219 647 c 2
 833 1270 l 2
 841 1279 859 1286 877 1286 c 0
 890 1286 904 1282 915 1271 c 2
 1537 648 l 2
 1546 639 1550 627 1550 615 c 0
 1550 602 1546 590 1536 580 c 2
 915 -34 l 2
 905 -44 890 -49 874 -49 c 0
 860 -49 845 -45 834 -34 c 2
 219 580 l 2
787 612 m 1
 671 688 l 1
 671 533 l 1
 787 612 l 1
862 663 m 1
 1074 807 l 2
 1082 812 1091 815 1101 815 c 0
 1115 815 1128 810 1137 800 c 0
 1143 793 1147 780 1147 775 c 2
 1147 456 l 2
 1147 434 1127 416 1102 416 c 0
 1092 416 1079 422 1075 424 c 2
 863 563 l 1
 654 421 l 2
 647 417 636 412 626 412 c 0
 601 412 581 430 581 452 c 2
 581 768 l 2
 581 776 584 784 590 791 c 0
 599 802 613 808 627 808 c 0
 636 808 645 805 653 800 c 2
 862 663 l 1
937 614 m 1
 1057 535 l 1
 1057 695 l 1
 937 614 l 1
EndSplineSet
Layer: 2
SplineSet
1101.52 775.498 m 29
 1101.52 456.317 l 29
 626.223 767.617 l 29
 626.223 452.377 l 29
 1101.52 775.498 l 29
EndSplineSet
EndChar
StartChar: uniE278
Encoding: 57976 57976 407
Width: 1900
VWidth: 0
Flags: HW
LayerCount: 3
Back
SplineSet
879.198242188 1234 m 4
 879.198242188 1276 911.198242188 1310 950.198242188 1310 c 4
 989.198242188 1310 1020.19824219 1276 1020.19824219 1234 c 4
 1020.19824219 1192 989.198242188 1158 950.198242188 1158 c 4
 911.198242188 1158 879.198242188 1192 879.198242188 1234 c 4
885.198242188 4 m 4
 885.198242188 46 917.198242188 80 956.198242188 80 c 4
 995.198242188 80 1026.19824219 46 1026.19824219 4 c 4
 1026.19824219 -38 995.198242188 -72 956.198242188 -72 c 4
 917.198242188 -72 885.198242188 -38 885.198242188 4 c 4
1498.19824219 613 m 4
 1498.19824219 655 1530.19824219 689 1569.19824219 689 c 4
 1608.19824219 689 1640.19824219 655 1640.19824219 613 c 4
 1640.19824219 571 1608.19824219 537 1569.19824219 537 c 4
 1530.19824219 537 1498.19824219 571 1498.19824219 613 c 4
267.198242188 614 m 4
 267.198242188 656 299.198242188 690 338.198242188 690 c 4
 377.198242188 690 408.198242188 656 408.198242188 614 c 4
 408.198242188 572 377.198242188 538 338.198242188 538 c 4
 299.198242188 538 267.198242188 572 267.198242188 614 c 4
337.198242188 614 m 5
 1573.19824219 614 l 1029
951.198242188 1237 m 5
 952.198242188 0 l 1029
337.198242188 614 m 29
 952.198242188 0 l 29
 1573.19824219 614 l 29
 951.198242188 1237 l 29
 337.198242188 614 l 29
EndSplineSet
Fore
SplineSet
212.198242188 614 m 0
 212.198242188 676.739257812 261.2421875 740 338.198242188 740 c 0
 353.565429688 740 367.745117188 737.485351562 380.606445312 732.973632812 c 1
 831.911132812 1190.89355469 l 1
 826.858398438 1204.75488281 824.198242188 1219.39160156 824.198242188 1234 c 0
 824.198242188 1296.73925781 873.2421875 1360 950.198242188 1360 c 0
 1027.84667969 1360 1075.19824219 1295.79980469 1075.19824219 1234 c 0
 1075.19824219 1220.48828125 1072.93554688 1206.86230469 1068.58789062 1193.81835938 c 1
 1528.93652344 732.729492188 l 1
 1541.27929688 736.76953125 1554.74707031 739 1569.19824219 739 c 0
 1646.14648438 739 1695.19824219 675.732421875 1695.19824219 613 c 0
 1695.19824219 550.259765625 1646.15332031 487 1569.19824219 487 c 0
 1553.83300781 487 1539.57910156 489.522460938 1526.60644531 494.060546875 c 1
 1073.83007812 46.3876953125 l 1
 1078.671875 32.677734375 1081.19824219 18.2744140625 1081.19824219 4 c 0
 1081.19824219 -57.8046875 1033.85253906 -122 956.198242188 -122 c 0
 879.25 -122 830.198242188 -58.7314453125 830.198242188 4 c 0
 830.198242188 16.71484375 832.212890625 29.4521484375 836.06640625 41.6787109375 c 1
 381.620117188 495.38671875 l 1
 368.4921875 490.6484375 353.970703125 488 338.198242188 488 c 0
 261.25 488 212.198242188 551.268554688 212.198242188 614 c 0
897.09375 129.279296875 m 1
 896.7421875 564 l 1
 461.665039062 564 l 1
 897.09375 129.279296875 l 1
896.303710938 1106.37207031 m 1
 460.322265625 664 l 1
 896.662109375 664 l 1
 896.303710938 1106.37207031 l 1
1007.09472656 128.150390625 m 1
 1447.91308594 564 l 1
 1006.74316406 564 l 1
 1007.09472656 128.150390625 l 1
1006.30371094 1107.41113281 m 1
 1006.66210938 664 l 1
 1449.00292969 664 l 1
 1006.30371094 1107.41113281 l 1
EndSplineSet
EndChar
StartChar: uniE279
Encoding: 57977 57977 387
Width: 2048
Flags: HW
LayerCount: 3
Back
SplineSet
260 616 m 4
 260 658 292 692 331 692 c 4
 370 692 402 658 402 616 c 4
 402 574 370 540 331 540 c 4
 292 540 260 574 260 616 c 4
329 614 m 29
 944 0 l 29
 1565 614 l 29
 943 1237 l 29
 329 614 l 29
870 0 m 4
 870 42 902 76 941 76 c 4
 980 76 1012 42 1012 0 c 4
 1012 -42 980 -76 941 -76 c 4
 902 -76 870 -42 870 0 c 4
EndSplineSet
Fore
SplineSet
941 -126 m 0
 872.689156634 -126 815 -71.2239341305 815 0 c 0
 815 16.3564342214 818.042240401 31.8449733562 823.556602723 46.001735719 c 1
 371.99646415 496.823890886 l 1
 359.080516418 492.391119686 345.271860926 490 331 490 c 0
 262.689156634 490 205 544.77606587 205 616 c 0
 205 687.229655581 262.694970466 742 331 742 c 0
 345.984644685 742 360.458187943 739.364248626 373.923818709 734.497311339 c 1
 902.195264133 1270.51214929 l 2
 913.427017208 1281.81678176 928.207880168 1287.47398136 942.994680578 1287.47398136 c 0
 957.667597808 1287.47398136 972.392204694 1281.94887196 983.571047862 1270.75194235 c 2
 1605.81543789 647.500812403 l 2
 1615.01732956 638.239150059 1619.61307826 626.124116347 1619.61307826 614.009088231 c 0
 1619.61307826 601.779978091 1614.95295706 589.527877127 1605.57522715 580.255902086 c 2
 1060.24373999 41.0742466628 l 1
 1064.61612283 28.277143489 1067 14.478407686 1067 0 c 0
 1067 -71.2296555813 1009.30502953 -126 941 -126 c 0
987.6981525 117.064372271 m 1
 1490.51976451 614.218107817 l 1
 943.264414237 1162.35328984 l 1
 448.91869336 660.76145905 l 1
 454.132352158 646.94176121 457 631.879680947 457 616 c 0
 457 599.367320874 453.854130628 583.632100268 448.16188728 569.282122644 c 1
 899.259388605 118.918113191 l 1
 912.388559965 123.516031156 926.453683941 126 941 126 c 0
 957.39476554 126 973.177709749 122.844835817 987.6981525 117.064372271 c 1
EndSplineSet
EndChar
StartChar: uniE27A
Encoding: 57978 57978 415
Width: 2048
Flags: HW
LayerCount: 3
Back
SplineSet
1491 616 m 4
 1491 658 1523 692 1562 692 c 4
 1601 692 1633 658 1633 616 c 4
 1633 574 1601 540 1562 540 c 4
 1523 540 1491 574 1491 616 c 4
329 614 m 29
 944 0 l 29
 1565 614 l 29
 943 1237 l 29
 329 614 l 29
870 0 m 4
 870 42 902 76 941 76 c 4
 980 76 1012 42 1012 0 c 4
 1012 -42 980 -76 941 -76 c 4
 902 -76 870 -42 870 0 c 4
EndSplineSet
Fore
SplineSet
941 -126 m 0
 872.689156634 -126 815 -71.2239341305 815 0 c 0
 815 16.3564342214 818.042240401 31.8449733562 823.556602723 46.001735719 c 1
 288.327814407 580.355801201 l 2
 279.032971385 589.635530657 274.379065027 601.82337232 274.379065027 614.011625281 c 0
 274.379065027 626.057499506 278.924875979 638.103775476 288.029018345 647.34346667 c 2
 902.195264133 1270.51214929 l 2
 913.427017208 1281.81678176 928.207880168 1287.47398136 942.994680578 1287.47398136 c 0
 957.667597808 1287.47398136 972.392204694 1281.94887196 983.571047862 1270.75194235 c 2
 1518.99058502 734.466140699 l 1
 1532.48079068 739.353036538 1546.98401172 742 1562 742 c 0
 1630.31084337 742 1688 687.22393413 1688 616 c 0
 1688 544.770344419 1630.30502953 490 1562 490 c 0
 1547.77914774 490 1534.01862141 492.373902031 1521.14306873 496.775905025 c 1
 1060.24373999 41.0742466628 l 1
 1064.61612283 28.277143489 1067 14.478407686 1067 0 c 0
 1067 -71.2296555813 1009.30502953 -126 941 -126 c 0
943.264414237 1162.35328984 m 1
 403.099792544 614.270945681 l 1
 899.259388605 118.918113191 l 1
 912.388559965 123.516031156 926.453683941 126 941 126 c 0
 957.39476554 126 973.177709749 122.844835817 987.6981525 117.064372271 c 1
 1444.90410164 569.116631165 l 1
 1439.17013821 583.511419434 1436 599.303787565 1436 616 c 0
 1436 631.871721663 1438.86460235 646.926225099 1444.07288669 660.739659077 c 1
 943.264414237 1162.35328984 l 1
EndSplineSet
EndChar
StartChar: uniE290
Encoding: 58000 58000 249
Width: 1503
VWidth: -205
Flags: W
HStem: -50 100<556.591 939.874> 1185 100<385 1120>
VStem: 205 108<244.935 525.41> 393 108<707.357 1040.26> 511 168<250.503 358.436 865.612 971.721> 804 168<242.503 357.342 860.612 971.486> 1002 108<706.087 1036.21> 1188 110<249.497 529.048>
LayerCount: 3
Back
SplineSet
1144 614.2 m 17
 1426 252 1001 -0.200195 746 -0.200195 c 1
 490 -0.200195 64 252 346 614.2 c 1033
1144 614.2 m 17
 996.122 809.73 1023.46 1009.03 1222.12 1234.62 c 9
 743.568 1235.62 l 25
 271.223 1234.62 l 17
 469.885 1009.03 493.878 809.73 346 614.2 c 1033
EndSplineSet
Fore
SplineSet
810 905 m 0
 810 944 843 984 894 984 c 0
 945 984 978 944 978 905 c 0
 978 869 950 833 907 827 c 1
 797 612 l 1
 903 390 l 1
 945 383 972 347 972 312 c 0
 972 273 939 233 888 233 c 0
 837 233 804 273 804 312 c 0
 804 328 810 344 820 358 c 1
 747 513 l 1
 668 359 l 1
 675 347 679 333 679 320 c 0
 679 281 646 241 595 241 c 0
 544 241 511 281 511 320 c 0
 511 358 542 396 589 399 c 1
 699 613 l 1
 595 833 l 1
 552 840 525 876 525 911 c 0
 525 950 558 990 609 990 c 0
 660 990 693 950 693 911 c 0
 693 895 687 878 677 865 c 1
 750 713 l 1
 825 860 l 1
 815 873 810 889 810 905 c 0
352 614 m 1
 397 585 l 1
 338 509 313 440 313 379 c 0
 313 277 381 197 473 138 c 0
 561 81 671 50 752 50 c 0
 929 50 1188 190 1188 381 c 0
 1188 440 1166 507 1105 585 c 1
 1120 595 1135 604 1150 614 c 2
 1105 586 l 1
 1036 677 1002 770 1002 866 c 0
 1002 970 1042 1077 1120 1185 c 1
 750 1186 l 1
 385 1185 l 1
 462 1078 501 973 501 870 c 0
 501 773 466 678 397 586 c 1
 352 614 l 1
307 643 m 1
 364 718 393 793 393 870 c 0
 393 973 342 1081 234 1203 c 0
 228 1210 222 1224 222 1235 c 0
 222 1262 247 1285 277 1285 c 2
 750 1286 l 1
 1228 1285 l 2
 1238 1285 1252 1281 1262 1274 c 0
 1275 1264 1283 1249 1283 1234 c 0
 1283 1223 1279 1212 1271 1203 c 0
 1162 1080 1110 971 1110 868 c 0
 1110 791 1139 717 1195 643 c 1
 1266 552 1298 464 1298 381 c 0
 1298 107 966 -50 752 -50 c 0
 643 -50 515 -12 409 56 c 0
 294 129 205 245 205 383 c 0
 205 463 235 551 307 643 c 1
EndSplineSet
Layer: 2
SplineSet
843.088 311.912 m 4
 843.088 332.392 861.52 350.824 882 350.824 c 4
 902.48 350.824 920.912 332.392 920.912 311.912 c 4
 920.912 291.432 902.48 273 882 273 c 4
 861.52 273 843.088 291.432 843.088 311.912 c 4
550.088 319.912 m 4
 550.088 340.392 568.52 358.824 589 358.824 c 4
 609.48 358.824 627.912 340.392 627.912 319.912 c 4
 627.912 299.432 609.48 281 589 281 c 4
 568.52 281 550.088 299.432 550.088 319.912 c 4
564.088 910.91 m 4
 564.088 931.39 582.52 949.82 603 949.82 c 4
 623.48 949.82 641.912 931.39 641.912 910.91 c 4
 641.912 890.43 623.48 872 603 872 c 4
 582.52 872 564.088 890.43 564.088 910.91 c 4
849.088 904.92 m 4
 849.088 925.4 867.52 943.83 888 943.83 c 4
 908.48 943.83 926.912 925.4 926.912 904.92 c 4
 926.912 884.439 908.48 866 888 866 c 4
 867.52 866 849.088 884.439 849.088 904.92 c 4
891 904 m 29
 592 319 l 1053
600 913 m 29
 885 311 l 1053
EndSplineSet
EndChar
StartChar: uniE292
Encoding: 58002 58002 251
Width: 1475
VWidth: -205
Flags: W
HStem: 351 60<683 782> 475 60<539 634 830 924> 657 60<383 482 680 779 974 1073> 823 60<392 486 689 783 983 1077> 981 60<395 490 692 787 986 1081> 1077 100<315 500 667 803 970 1159>
VStem: 205 110<629 1077 1177 1324> 383 99<657 717 823 883 981 1041> 539 95<481 540> 683 99<351 411 657 717 823 883 982 1041> 830 94<475 535> 974 99<657 717 823 883 982 1041> 1159 110<630 1077 1177 1324>
LayerCount: 3
Back
SplineSet
1543 1126.77 m 29
 1544 1433.4 l 29
 1152.15 1127.79 l 29
 589 1126.77 l 29
 589 1433.4 l 29
 972.85 1129.62 l 1053
1072 -0.200195 m 29
 1543 614.2 l 29
 1543 1126.77 l 29
 589 1126.77 l 29
 589 613 l 29
 1072 -0.200195 l 29
EndSplineSet
Fore
SplineSet
970 1177 m 1
 1159 1177 l 1
 1160 1324 l 1
 970 1177 l 1
683 351 m 1
 683 411 l 1
 782 411 l 1
 782 401 782 391 782 381 c 0
 782 371 782 361 782 351 c 1
 683 351 l 1
830 505 m 0
 830 515 830 525 830 535 c 1
 924 535 l 1
 924 525 924 515 924 505 c 0
 924 495 924 485 924 475 c 1
 830 475 l 1
 830 485 830 495 830 505 c 0
539 480 m 1
 539 540 l 1
 634 541 l 1
 634 481 l 1
 539 480 l 1
974 687 m 0
 974 697 974 707 974 717 c 1
 1073 717 l 1
 1073 707 1073 697 1073 687 c 0
 1073 677 1073 667 1073 657 c 1
 974 657 l 1
 974 667 974 677 974 687 c 0
983 853 m 0
 983 863 983 873 983 883 c 1
 1077 883 l 1
 1077 873 1077 863 1077 853 c 0
 1077 843 1077 833 1077 823 c 1
 983 823 l 1
 983 833 983 843 983 853 c 0
986 1011 m 0
 986 1021 986 1031 986 1041 c 1
 1081 1042 l 1
 1081 1032 1081 1022 1081 1012 c 0
 1081 1002 1081 992 1081 982 c 1
 986 981 l 1
 986 991 986 1001 986 1011 c 0
680 657 m 1
 680 717 l 1
 779 717 l 1
 779 707 779 697 779 687 c 0
 779 677 779 667 779 657 c 1
 680 657 l 1
689 823 m 1
 689 883 l 1
 783 883 l 1
 783 873 783 863 783 853 c 0
 783 843 783 833 783 823 c 1
 689 823 l 1
692 981 m 1
 692 1041 l 1
 787 1042 l 1
 787 1032 787 1022 787 1012 c 0
 787 1002 787 992 787 982 c 1
 692 981 l 1
383 657 m 1
 383 717 l 1
 482 717 l 1
 482 657 l 1
 383 657 l 1
392 823 m 1
 392 883 l 1
 486 883 l 1
 486 823 l 1
 392 823 l 1
395 981 m 1
 395 1041 l 1
 490 1041 l 1
 490 981 l 1
 395 981 l 1
500 1177 m 1
 315 1324 l 1
 315 1177 l 1
 500 1177 l 1
788 -29 m 2
 786 -31 780 -38 775 -41 c 0
 766 -47 755 -50 744 -50 c 0
 726 -50 708 -43 698 -29 c 2
 215 584 l 2
 209 591 205 603 205 613 c 2
 205 1127 l 1
 205 1433 l 2
 205 1460 230 1483 260 1483 c 0
 274 1483 291 1475 296 1471 c 2
 667 1178 l 1
 803 1178 l 1
 1179 1471 l 2
 1188 1478 1202 1483 1215 1483 c 0
 1245 1483 1270 1460 1270 1433 c 2
 1269 1127 l 1
 1269 614 l 2
 1269 606 1265 594 1259 586 c 2
 788 -29 l 2
742 86 m 1
 1159 630 l 1
 1159 1077 l 1
 315 1077 l 1
 315 629 l 1
 742 86 l 1
EndSplineSet
Layer: 2
SplineSet
1011.68 380.881 m 21
 1111 381 l 1029
1111 381 m 1029
1158.68 504.907 m 21
 1253.07 505.021 l 1029
1253.07 505.021 m 1029
867.682 510.499 m 21
 962.956 510.613 l 1029
962.956 510.613 m 1029
1302.68 686.881 m 21
 1402 687 l 1029
1402 687 m 1029
1311.68 852.91 m 21
 1406.07 853.02 l 1029
1406.07 853.02 m 1029
1314.68 1011.5 m 21
 1409.96 1011.61 l 1029
1409.96 1011.61 m 1029
1008.68 686.881 m 21
 1108 687 l 1029
1108 687 m 1029
1017.68 852.91 m 21
 1112.07 853.02 l 1029
1112.07 853.02 m 1029
1020.68 1011.5 m 21
 1115.96 1011.61 l 1029
1115.96 1011.61 m 1029
712 686.591 m 21
 811.318 686.71 l 1029
811.318 686.71 m 1029
721 852.62 m 21
 815.388 852.73 l 1029
815.388 852.73 m 1029
724 1011.21 m 21
 819.274 1011.32 l 1029
819.274 1011.32 m 1029
EndSplineSet
EndChar
StartChar: uniE293
Encoding: 58003 58003 253
Width: 1496
VWidth: -205
Flags: W
HStem: 192 117<710 780> 375 117<521 591> 393 117<866 936> 660 117<986 1056> 675 117<602 672> 828 117<809 879> 843 117<425 495> 1077 100<315 421 635 872 1086 1180>
VStem: 205 110<474.559 1077 1177 1294> 425 70<843 960> 521 70<375 492> 602 70<675 792> 710 70<192 309> 809 70<828 945> 866 70<393 510> 986 70<660 777> 1180 110<474.602 1077 1177 1287>
LayerCount: 3
Back
SplineSet
535 1130 m 29
 752 1433 l 29
 974 1128 l 1053
1235 1127 m 29
 1236 1433 l 29
 974 1128 l 29
 260 1127 l 29
 260 1433 l 29
 535 1130 l 1053
753 0 m 5
 902 75 1178 261 1235 614 c 5
 1235 1127 l 29
 260 1127 l 29
 260 1127 260 1127 260 613 c 5
 326 270 602 66 753 0 c 5
EndSplineSet
Fore
SplineSet
752 57 m 5x81f980
 898 136 1128 309 1180 618 c 5
 1180 1077 l 5
 315 1077 l 5
 315 617 l 5
 375 316 609 128 752 57 c 5x81f980
780 -44 m 4
 773 -48 763 -50 753 -50 c 4
 745 -50 736 -48 729 -45 c 4
 565 27 276 240 206 604 c 4
 206 606 205 610 205 613 c 6
 205 1127 l 5
 205 1433 l 6
 205 1460 230 1483 260 1483 c 4
 277 1483 295 1473 302 1465 c 6
 530 1214 l 5
 706 1460 l 6
 716 1475 735 1483 753 1483 c 4
 763 1483 773 1480 782 1475 c 4
 788 1471 797 1462 798 1461 c 6
 978 1214 l 5
 1193 1464 l 6
 1203 1476 1219 1483 1236 1483 c 4
 1266 1483 1291 1460 1291 1433 c 6
 1290 1127 l 5
 1290 614 l 6
 1290 612 1289 609 1289 607 c 4
 1228 232 936 35 780 -44 c 4
421 1177 m 5
 315 1294 l 5
 315 1177 l 5
 421 1177 l 5
425 960 m 5x83f980
 495 960 l 5
 495 843 l 5
 425 843 l 5
 425 960 l 5x83f980
602 792 m 5x89f980
 672 792 l 5
 672 675 l 5
 602 675 l 5
 602 792 l 5x89f980
809 945 m 5x85fd80
 879 945 l 5
 879 828 l 5
 809 828 l 5
 809 945 l 5x85fd80
986 777 m 5x91f980
 1056 777 l 5
 1056 660 l 5
 986 660 l 5
 986 777 l 5x91f980
521 492 m 5xc1f980
 591 492 l 5
 591 375 l 5
 521 375 l 5
 521 492 l 5xc1f980
866 510 m 5xa1fb80
 936 510 l 5
 936 393 l 5
 866 393 l 5
 866 510 l 5xa1fb80
710 309 m 5
 780 309 l 5
 780 192 l 5
 710 192 l 5
 710 309 l 5
1086 1177 m 5
 1180 1177 l 5
 1181 1287 l 5
 1086 1177 l 5
635 1178 m 5
 872 1178 l 5
 752 1342 l 5
 635 1178 l 5
EndSplineSet
Layer: 2
SplineSet
745 309 m 29
 745 192 l 1053
901 510 m 29
 901 393 l 1053
556 492 m 29
 556 375 l 1053
1021 777 m 29
 1021 660 l 1053
844 945 m 29
 844 828 l 1053
637 792 m 29
 637 675 l 1053
460 960 m 29
 460 843 l 1053
EndSplineSet
EndChar
